STARTFONT 2.3
FONT -FontForge-Lobster-Book-R-Normal--36-360-72-72-P-212-ISO10646-1
SIZE 36 72 72  4
FONTBOUNDINGBOX 73 55 -17 -18
COMMENT "Generated by fontforge, http://fontforge.sourceforge.net"
COMMENT "Copyright 2010 The Lobster Project Authors (https://github.com/impallari/The-Lobster-Font), with Reserved Font Name "Lobster"."
STARTPROPERTIES 41
FOUNDRY "FontForge"
FAMILY_NAME "Lobster"
WEIGHT_NAME "Book"
SLANT "R"
SETWIDTH_NAME "Normal"
ADD_STYLE_NAME ""
PIXEL_SIZE 36
POINT_SIZE 360
RESOLUTION_X 72
RESOLUTION_Y 72
SPACING "P"
AVERAGE_WIDTH 212
CHARSET_REGISTRY "ISO10646"
CHARSET_ENCODING "1"
FONTNAME_REGISTRY ""
CHARSET_COLLECTIONS "ISO8859-2 ISO8859-5 ISO8859-9 ISO8859-4 ISO10646-1"
BITS_PER_PIXEL 4
FONT_NAME "Lobster-Regular"
FACE_NAME "Lobster Regular"
COPYRIGHT "Copyright 2010 The Lobster Project Authors (https://github.com/impallari/The-Lobster-Font), with Reserved Font Name "Lobster"."
FONT_VERSION "2.100"
FONT_ASCENT 29
FONT_DESCENT 7
UNDERLINE_POSITION -4
UNDERLINE_THICKNESS 2
X_HEIGHT 19
CAP_HEIGHT 26
DEFAULT_CHAR 1
RAW_ASCENT 800
RAW_DESCENT 200
NORM_SPACE 8
RELATIVE_WEIGHT 40
RELATIVE_SETWIDTH 50
SUPERSCRIPT_X 0
SUPERSCRIPT_Y 12
SUPERSCRIPT_SIZE 21
SUBSCRIPT_X 0
SUBSCRIPT_Y 2
SUBSCRIPT_SIZE 21
AVG_LOWERCASE_WIDTH 170
AVG_UPPERCASE_WIDTH 224
ENDPROPERTIES
CHARS 1148
STARTCHAR NULL.dup1
ENCODING 0
SWIDTH 600 0
DWIDTH 22 0
BBX 1 1 0 0
BITMAP
00
ENDCHAR
STARTCHAR nonmarkingreturn
ENCODING 13
SWIDTH 600 0
DWIDTH 22 0
BBX 1 1 0 0
BITMAP
00
ENDCHAR
STARTCHAR space
ENCODING 32
SWIDTH 217 0
DWIDTH 8 0
BBX 1 1 0 0
BITMAP
00
ENDCHAR
STARTCHAR exclam
ENCODING 33
SWIDTH 257 0
DWIDTH 9 0
BBX 11 27 1 0
BITMAP
000002579B90
00000DFFFF60
00000FFFFF20
00002FFFFD00
00005FFFF800
00007FFFF400
00009FFFE000
0000CFFFB000
0000EFFF6000
0001FFFF2000
0003FFFD0000
0006FFF90000
0008FFF40000
000AFFF10000
000DFFB00000
000FFF700000
002FFF200000
005FFD000000
003885000000
000000000000
000000000000
07DE80000000
6FFFF7000000
BFFFFC000000
BFFFFC000000
6FFFF6000000
07DE80000000
ENDCHAR
STARTCHAR quotedbl
ENCODING 34
SWIDTH 353 0
DWIDTH 13 0
BBX 12 8 3 19
BITMAP
009FFF20EFFC
00EFF904FFF4
04FFF209FFC0
09FF900EFF40
0EFF204FFC00
4FFA009FF400
9FF200EFC000
EFA005FF4000
ENDCHAR
STARTCHAR numbersign
ENCODING 35
SWIDTH 659 0
DWIDTH 24 0
BBX 20 23 2 2
BITMAP
0000000ACA00007CC100
0000000FFA0000BFE000
0000003FF70000EFB000
0000006FF40002FF8000
0000009FF10004FF5000
000000BFD00007FF2000
000000EFA0000AFE0000
00DFFFFFFFFFFFFFFFF3
02FFFFFFFFFFFFFFFFE0
01333BFF33338FF53320
00000DFC00009FF10000
00001FF90000CFD00000
00004FF60000FFA00000
13338FF53335FF933200
7FFFFFFFFFFFFFFFF900
BFFFFFFFFFFFFFFFF600
0002FF70000DFB000000
0006FF40001FF8000000
0009FF10004FF5000000
000CFD00008FF2000000
000FFA0000BFE0000000
003FF70000EFB0000000
003AA30001AA50000000
ENDCHAR
STARTCHAR dollar
ENCODING 36
SWIDTH 548 0
DWIDTH 20 0
BBX 20 36 0 -5
BITMAP
00000000000006F60000
00000000000009F30000
0000000000000CF00000
0000000000001FC00000
0000000016BDFFD72000
00000005EFFFEFFFF700
0000006FFFC2BF3CFF70
000004FFFE10ED05FFE0
00000BFFF903FA05FFF2
00000FFFF806F609FFF1
00001FFFFB0AF34FFFC0
00000FFFFF2DE04CEB20
00000CFFFFCFB0000000
000006FFFFFF70000000
000001DFFFFF60000000
0000004FFFFFE4000000
00000007FFFFFE300000
00000000AFFFFFD20000
000000001CFFFFFB0000
000000000AFFFFFF6000
000000000EFFFFFFD000
007DFC502FBAFFFFF300
08FFFFF46F72FFFFF500
2FFFFC629F30AFFFF600
6FFFC000DE007FFFF500
7FFF5001FB007FFFF100
6FFF4005F700BFFFA000
2FFF8008F405FFFE2000
09FFF71CF27FFFF40000
01BFFFFFFFFFFD400000
0006DFFFFFFE81000000
000003BF964000000000
000000BF100000000000
000000FC000000000000
000003F9000000000000
000007F5000000000000
ENDCHAR
STARTCHAR percent
ENCODING 37
SWIDTH 796 0
DWIDTH 29 0
BBX 28 27 1 0
BITMAP
000006CEEC5000000003FF600000
0001CFD48FF60000000CFC000000
001CFF201FFD0000005FF4000000
009FF8000FFF200000DFB0000000
03FFF2000FFF400007FF30000000
08FFC0001FFF30001EF900000000
0DFF80003FFF20008FE100000000
1FFF50005FFE0002FF7000000000
2FFF30008FFA000AFD1000000000
3FFF2000DFF4003FF60000000000
2FFF2003FFB000BFC00000000000
0DFF300BFE2005FF400000000000
07FF918FD2000DFB00005BEFC500
007EFFE910006FF3000BFD48FF50
000022000001EF9000BFF301FFD0
000000000008FE1007FFA000FFF2
00000000002FF7001EFF3000FFF4
0000000000AFD1006FFE0001FFF4
0000000003FF6000BFFA0002FFF3
000000000BFC0000FFF70004FFF1
000000005FF40001FFF40007FFC0
00000000DFB00002FFF3000AFF80
00000006FF300002FFF2000EFE20
0000001EF9000001FFF2005FF800
0000008FE2000000CFF400DFB100
000002EF800000004FFB3AFB1000
000009FE1000000004CEEB600000
ENDCHAR
STARTCHAR ampersand
ENCODING 38
SWIDTH 682 0
DWIDTH 25 0
BBX 24 28 0 -1
BITMAP
00000000039DFEC810000000
000000008FFFFFFFD2000000
0000000BFFFD53AFFD000000
0000008FFFD1001EFF500000
000003FFFF40000DFF800000
000009FFFD00001FFF800000
00000CFFFA00008FFF500000
00000DFFF90001EFFC000000
00000CFFFB00002750000000
000009FFFE10000000000000
000003FFFFA0000000000000
0000008FFFFA200000000051
0000016EFFFD8100000007F8
00004EFFFF8000014678DFFB
0007FFFFF60003BFFFFFFFF8
005FFFFF80003EFFFFFFFFE2
01EFFFFD0000CFFFFFFFFE30
09FFFFF60000FFFECDF96100
1EFFFFF10000DE710DC00000
4FFFFFD0000063003F900000
6FFFFFC000000000AF400000
7FFFFFE000000005FD000000
6FFFFFF30000004EF5000000
2FFFFFFC100017FF80000000
0AFFFFFFE98AEFFA00000000
01CFFFFFFFFFFE6000000000
0008EFFFFFFE920000000000
000004677630000000000000
ENDCHAR
STARTCHAR quotesingle
ENCODING 39
SWIDTH 196 0
DWIDTH 7 0
BBX 7 8 3 19
BITMAP
009FFF20
00EFF900
04FFF200
09FF9000
0EFF2000
4FFA0000
9FF20000
EFA00000
ENDCHAR
STARTCHAR parenleft
ENCODING 40
SWIDTH 437 0
DWIDTH 16 0
BBX 15 37 5 -9
BITMAP
0000000000000300
000000000004CE10
00000000009FE600
000000001CFE3000
00000002DFE20000
0000002DFF400000
000001DFF7000000
00000AFFC0000000
00006FFF40000000
0002EFFB00000000
0009FFF400000000
002FFFC000000000
009FFF7000000000
01EFFF2000000000
05FFFC0000000000
0AFFF80000000000
0EFFF40000000000
2FFFF10000000000
5FFFE00000000000
7FFFC00000000000
8FFFA00000000000
9FFF900000000000
9FFF800000000000
8FFF800000000000
7FFF800000000000
5FFF900000000000
2FFFA00000000000
0EFFB00000000000
0AFFE00000000000
05FFF10000000000
00EFF40000000000
008FF90000000000
001EFD0000000000
0006FF4000000000
0000AFB000000000
00001DE100000000
0000023000000000
ENDCHAR
STARTCHAR parenright
ENCODING 41
SWIDTH 413 0
DWIDTH 15 0
BBX 15 37 -3 -9
BITMAP
0000000030000000
00000004F8000000
00000001FF500000
000000009FE20000
000000003FF90000
000000000DFF2000
0000000009FF9000
0000000006FFE100
0000000003FFF500
0000000001FFF900
0000000000EFFC00
0000000000DFFF00
0000000000DFFF20
0000000000CFFF30
0000000000DFFF40
0000000000DFFF40
0000000000EFFF30
0000000001FFFF20
0000000003FFFF00
0000000006FFFC00
0000000009FFF900
000000000CFFF500
000000001FFFF100
000000006FFFA000
00000000BFFF4000
00000002FFFC0000
00000008FFF50000
0000001EFFB00000
0000008FFE200000
000002FFF6000000
00000BFF90000000
00007FFB00000000
0005FFB000000000
005FF90000000000
08FE600000000000
5FB2000000000000
1400000000000000
ENDCHAR
STARTCHAR asterisk
ENCODING 42
SWIDTH 515 0
DWIDTH 19 0
BBX 13 14 3 13
BITMAP
00000AED100000
00003FFE000000
07105FFC000000
6FD23FF919EB10
AFFE4EF7CFFF70
4FFFFEFEFFFD50
028CFFFFC83000
0049EFFFC94000
9EFFFEFEFFF900
CFFF7DF8AFFF10
4CB41FFA08FE00
00003FFC006300
00006FFB000000
00006ED4000000
ENDCHAR
STARTCHAR plus
ENCODING 43
SWIDTH 442 0
DWIDTH 16 0
BBX 15 13 0 6
BITMAP
0000000588200000
0000000DFF100000
0000001FFC000000
0000005FF9000000
0000008FF5000000
0CDDDDEFFDDDDD40
2FFFFFFFFFFFFF20
5FFFFFFFFFFFFE00
000007FF60000000
00000AFF30000000
00000EFE00000000
00002FFB00000000
00005FF800000000
ENDCHAR
STARTCHAR comma
ENCODING 44
SWIDTH 216 0
DWIDTH 8 0
BBX 7 10 0 -5
BITMAP
01AEC300
0BFFFD00
1FFFFF20
1FFFFF10
08FFFC00
007FF600
001FD000
009E3000
06F50000
0B400000
ENDCHAR
STARTCHAR hyphen
ENCODING 45
SWIDTH 290 0
DWIDTH 10 0
BBX 9 3 0 8
BITMAP
0ADDDDDD60
0EFFFFFF40
3FFFFFFF10
ENDCHAR
STARTCHAR period
ENCODING 46
SWIDTH 263 0
DWIDTH 9 0
BBX 6 6 1 0
BITMAP
08ED70
7FFFF6
CFFFFB
CFFFFB
7FFFF6
08ED70
ENDCHAR
STARTCHAR slash
ENCODING 47
SWIDTH 311 0
DWIDTH 11 0
BBX 11 36 0 -9
BITMAP
00000001FF80
00000004FF50
00000008FF10
0000000BFD00
0000000EFA00
0000002FF700
0000005FF400
0000008FF100
000000CFC000
000000FF9000
000003FF6000
000006FF3000
000009FE0000
00000DFB0000
00001FF80000
00004FF50000
00007FF20000
0000AFE00000
0000DFA00000
0002FF700000
0005FF400000
0008FF100000
000BFD000000
000EFA000000
003FF6000000
006FF3000000
009FF0000000
00CFC0000000
01FF90000000
03FF50000000
07FF20000000
0AFE00000000
0DFB00000000
1FF800000000
4FF500000000
8FF100000000
ENDCHAR
STARTCHAR zero
ENCODING 48
SWIDTH 546 0
DWIDTH 20 0
BBX 20 27 0 0
BITMAP
00000000049DEED92000
00000003CFFFFFFFF600
0000005FFFFB45FFFF50
000005FFFFA0009FFFD0
00003FFFFD10004FFFF5
0000DFFFF500001FFFF9
0007FFFFC000000FFFFC
001EFFFF6000000FFFFD
006FFFFF1000000FFFFE
00CFFFFA0000001FFFFD
02FFFFF60000002FFFFD
06FFFFF20000003FFFFB
0AFFFFE00000005FFFF9
0DFFFFB00000008FFFF7
0FFFFF80000000AFFFF4
2FFFFF60000000DFFFF1
3FFFFF50000002FFFFB0
3FFFFF40000005FFFF70
3FFFFF3000000AFFFF20
3FFFFF2000001EFFFA00
1FFFFF2000006FFFF300
0DFFFF400000DFFF9000
09FFFF600007FFFD1000
03FFFFB0003FFFF30000
00AFFFF837EFFE400000
001BFFFFFFFFC3000000
00005ADEEDA500000000
ENDCHAR
STARTCHAR one
ENCODING 49
SWIDTH 317 0
DWIDTH 11 0
BBX 12 27 0 0
BITMAP
000000000025
0000000039F6
0001258CFFF3
009FFFFFFFE0
00CFFFFFFFB0
00233AFFFF80
00000CFFFF50
00000FFFFF20
00003FFFFD00
00006FFFFA00
0000AFFFF700
0000DFFFF400
0001FFFFF100
0005FFFFC000
0008FFFF9000
000BFFFF6000
000EFFFF3000
003FFFFE0000
006FFFFB0000
009FFFF80000
00DFFFF50000
01FFFFF20000
04FFFFD00000
07FFFFA00000
0BFFFF700000
0EFFFF400000
2FFFFF100000
ENDCHAR
STARTCHAR two
ENCODING 50
SWIDTH 492 0
DWIDTH 18 0
BBX 18 28 -1 -1
BITMAP
00000004ADEEDA4000
000002CFFFFFFFFA10
00002EFF944CFFFFB0
0000CFF80001FFFFF5
0004FFF20000AFFFFB
0007FFF100008FFFFD
0008FFF400006FFFFE
0006FFFB00008FFFFD
0001EFFF8000AFFFFA
00004CD81001FFFFF4
000000000007FFFFB0
00000000002EFFFE10
0000000000CFFFE300
0000000009FFFD2000
000000008FFFB10000
00000008FFF8000000
0000008FFE50000000
000008FFD200000000
00008FFB1000000000
0008FFA00000000000
005FFB000000000010
02EFF54431000006C0
0AFFFFFFFFDA88CFF0
1FFFFFFFFFFFFFFFF1
5FFFFFFFFFFFFFFFC0
6FFFFFFFFFFFFFFF40
4C620136AEFFFFE500
000000000046751000
ENDCHAR
STARTCHAR three
ENCODING 51
SWIDTH 514 0
DWIDTH 19 0
BBX 18 27 0 0
BITMAP
000000049DEFDB6000
000002CFFFFFFFFD30
00002EFFD635DFFFD1
0000BFFF20002FFFF8
0001FFFC00000CFFFC
0003FFFC00000BFFFD
0001FFFF20000EFFFB
0000AFFFB0005FFFF7
000006961001DFFFD1
00000000000BFFFF40
0000000002BFFFE400
000000038EFFFA2000
000000029FFFFC5000
0000000004EFFFFA00
00000000006FFFFF80
00012100000CFFFFF1
01AFFF800006FFFFF6
0CFFFFF30002FFFFF8
5FFFF8200001FFFFF7
AFFFB0000002FFFFF5
BFFF60000004FFFFF1
BFFF40000008FFFF90
9FFF5000001EFFFE10
5FFFC00001BFFFF400
0CFFFB536DFFFE4000
01BFFFFFFFFFB20000
00038CEFEC83000000
ENDCHAR
STARTCHAR four
ENCODING 52
SWIDTH 476 0
DWIDTH 17 0
BBX 18 27 0 0
BITMAP
00000005EEC5000000
00000004FFFF400000
00000003FFFF900000
00000004FFFFB00000
00000006FFFF800000
00000009FFFF300000
0000000EFFFB012200
0000005FFFE208FD00
000000CFFF600DFA00
000005FFFA003FF700
00001DFFC1008FF400
00008FFD2000DFF100
0004FFE20003FFD000
001DFE200008FF9010
00AFD200000DFF64D0
07FE9CEFDB9FFFCFF2
4FFFFFFFFFFFFFFFF1
EFFFFFFFFFFFFFFFA0
AE97679CFFFFFFFA10
100000002CFFFA4000
000000000EFFF20000
000000005FFFE00000
00000000AFFFB00000
00000001FFFF700000
00000006FFFF400000
0000000BFFFF100000
0000001FFFFD000000
ENDCHAR
STARTCHAR five
ENCODING 53
SWIDTH 517 0
DWIDTH 19 0
BBX 19 26 0 0
BITMAP
00000264311012369D10
000008FFFFFFFFFFFF00
00000BFFFFFFFFFFFD00
00000EFFFFFFFFFFF500
00003FFD469CEFEC5000
00006FF9000000000000
00009FF5000000000000
0000CFF2000000000000
0001FFD0000000000000
0004FFA49CEEC7100000
0007FFFFFFFFFFD20000
000AFFFFFFFFFFFD1000
000EE94114CFFFFF8000
00071000001DFFFFE000
000000000005FFFFF200
000011000001FFFFF400
004CFFD30000FFFFF400
05FFFFF80000EFFFF400
1EFFFB100001FFFFF100
5FFFD1000004FFFFC000
6FFF90000009FFFF7000
6FFF9000002FFFFD1000
3FFFE10002DFFFF40000
0BFFFD869EFFFE500000
01CFFFFFFFFFB2000000
0006ADFFEC8300000000
ENDCHAR
STARTCHAR six
ENCODING 54
SWIDTH 500 0
DWIDTH 18 0
BBX 19 27 0 0
BITMAP
00000000049DEFD92000
00000003CFFFFFFFF500
0000006FFFFB44BFFE10
000006FFFF80001FFF40
00004FFFFA00000EFF50
0001EFFFE100004FFF20
000AFFFF700000DFF900
003FFFFE100000285000
00AFFFF9000000000000
01FFFFF4000000000000
06FFFFE0000220000000
0AFFFFA06CFFFE810000
0DFFFF7AFFFFFFFC1000
1FFFFFAC4128FFFF9000
3FFFFFD10000AFFFF100
5FFFFF6000005FFFF400
6FFFFF2000003FFFF500
6FFFFE0000003FFFF500
6FFFFD0000005FFFF400
5FFFFD0000007FFFF100
3FFFFD000000AFFFB000
1FFFFF000001EFFF4000
0BFFFF300008FFF90000
06FFFF90003FFFD10000
00CFFFF836EFFC200000
001CFFFFFFFF91000000
00005ADFED9300000000
ENDCHAR
STARTCHAR seven
ENCODING 55
SWIDTH 464 0
DWIDTH 17 0
BBX 17 27 2 0
BITMAP
018DFEB60000000020
2DFFFFFFD731137C90
AFFFFFFFFFFFFFFF30
EFFFFFFFFFFFFFFA00
EE61136ACB8DFFE200
93000000002FFF6000
0000000000CFFC0000
0000000009FFF20000
000000006FFF700000
00000003FFFC000000
0000002EFFF3000000
000000CFFF80000000
000009FFFD10000000
00006FFFF500000000
0002EFFFC000000000
000BFFFF4000000000
005FFFFC0000000000
00DFFFF60000000000
05FFFFE10000000000
0BFFFFA00000000000
1FFFFF600000000000
3FFFFF400000000000
4FFFFF300000000000
3FFFFF400000000000
1EFFFF500000000000
07FFFF900000000000
008EEC600000000000
ENDCHAR
STARTCHAR eight
ENCODING 56
SWIDTH 499 0
DWIDTH 18 0
BBX 20 27 -1 0
BITMAP
0000000027CDFEB71000
00000008FFFFFFFFE400
000000BFFFF845CFFE30
000008FFFF50002FFFB0
00001FFFFD00000DFFE0
00005FFFFA00000DFFF1
00007FFFFB00001FFFD0
00005FFFFF10007FFF70
00002FFFFFA002EFFC00
00000BFFFFF71CFFD200
000003FFFFFFDFFA1000
0000006FFFFFFE500000
00000009FFFFFF800000
0000018EFFFFFFF90000
00006EFFDAFFFFFF8000
000AFFFC109FFFFFF400
00AFFFE2000BFFFFFC00
05FFFF600001EFFFFF20
0BFFFE1000007FFFFF50
0FFFFC0000002FFFFF60
1FFFFB0000000FFFFF40
0EFFFC0000001FFFFE10
0BFFFE1000006FFFF700
04FFFF800002EFFFB000
007FFFF9437EFFFB1000
0005EFFFFFFFFE600000
000016BDEFDB61000000
ENDCHAR
STARTCHAR nine
ENCODING 57
SWIDTH 489 0
DWIDTH 18 0
BBX 18 27 0 0
BITMAP
00000005ADEED81000
000004DFFFFFFFE400
00007FFFA44CFFFE20
0007FFF90001EFFF90
004FFFD10000AFFFF1
00DFFF7000008FFFF5
06FFFF1000007FFFF7
0BFFFD0000007FFFF9
0EFFFA0000008FFFFA
0FFFF9000000AFFFFB
0FFFF9000000EFFFFA
0DFFFA000004FFFFF9
09FFFE10001DFFFFF8
02EFFFC436DCEFFFF6
005FFFFFFFD3FFFFF3
0003AEFEB614FFFFE0
000000000007FFFFB0
00000000000CFFFF60
00000000002FFFFE10
00450000007FFFF900
0AFFA00000DFFFE200
4FFF400007FFFF7000
7FFC00003EFFFB0000
7FFD0003DFFFD10000
3FFFB79FFFFC100000
07FFFFFFFF80000000
004AEFEC8200000000
ENDCHAR
STARTCHAR colon
ENCODING 58
SWIDTH 267 0
DWIDTH 10 0
BBX 8 14 1 2
BITMAP
0006DE80
004FFFF8
009FFFFE
009FFFFE
004FFFF9
0006DE91
00000000
00000000
04CEA100
2EFFFB00
7FFFFF20
7FFFFF20
2FFFFC00
04CEA200
ENDCHAR
STARTCHAR semicolon
ENCODING 59
SWIDTH 276 0
DWIDTH 10 0
BBX 8 19 1 -4
BITMAP
0005DE91
003FFFFA
008FFFFF
008FFFFF
003FFFFA
0005DEA1
00000000
00000000
00000000
03CFC200
1DFFFA00
4FFFFE00
3FFFFD00
0BFFF900
01AFF300
004FA000
00CD1000
0AE30000
0C200000
ENDCHAR
STARTCHAR less
ENCODING 60
SWIDTH 358 0
DWIDTH 13 0
BBX 13 13 0 3
BITMAP
00000000001890
0000000018EF80
00000018EFFF60
000018EFFFB300
0018EFFFC40000
18EFFFC5000000
8FFFD500000000
7FFFF910000000
02BFFFE8100000
0004CFFFE71000
000006EFFFD000
00000018FFA000
000000002A6000
ENDCHAR
STARTCHAR equal
ENCODING 61
SWIDTH 515 0
DWIDTH 19 0
BBX 16 12 1 4
BITMAP
008FFFFFFFFFFFFB
00BFFFFFFFFFFFF8
00EFFFFFFFFFFFF5
02FFFFFFFFFFFFF2
0000000000000000
0000000000000000
0000000000000000
0000000000000000
1FFFFFFFFFFFFF20
5FFFFFFFFFFFFE00
8FFFFFFFFFFFFB00
BFFFFFFFFFFFF800
ENDCHAR
STARTCHAR greater
ENCODING 62
SWIDTH 362 0
DWIDTH 13 0
BBX 13 13 0 3
BITMAP
007B3000000000
00BFF910000000
00DFFFE7000000
0006EFFFD50000
000017EFFFB300
00000018EFFF70
00000007EFFF70
000006DFFFD600
0005DFFFD60000
05CFFFE6000000
7FFFE700000000
9FE71000000000
97100000000000
ENDCHAR
STARTCHAR question
ENCODING 63
SWIDTH 441 0
DWIDTH 16 0
BBX 15 27 1 0
BITMAP
000038CEFEB61000
0019FFFFFFFFD300
01CFFC549FFFFD10
08FFC0000CFFFF50
0EFF700008FFFF80
2FFF700007FFFF70
2FFFD00009FFFF40
0CFFFB000DFFFC00
02BEB3007FFFE200
00000003FFFE3000
0000002EFFD20000
000001DFFB100000
00000CFF90000000
00009FF800000000
0003FF9000000000
000AFE1000000000
000EF80000000000
002FF40000000000
0017710000000000
0000000000000000
0000000000000000
02BEC30000000000
1DFFFE1000000000
4FFFFF5000000000
4FFFFF5000000000
0DFFFE1000000000
02BEC30000000000
ENDCHAR
STARTCHAR at
ENCODING 64
SWIDTH 688 0
DWIDTH 25 0
BBX 25 25 -1 -4
BITMAP
0000000000169CEFED95000000
0000000018EFFFFFFFFFD40000
00000005EFFFC84336BFFF5000
0000009FFFC400000005FFF300
00000AFFF800000000008FFB00
00008FFF6000120000002FFF10
0005FFF70019FFC8FE700DFF40
001DFFA001DFFFFFFF500CFF50
008FFE101CFFE42FFF100CFF60
01EFF7008FFF304FFC000EFF40
06FFE102FFF8008FF8002FFF20
0AFFA007FFF100CFF4006FFD00
0EFF500CFFB001FFE000CFF700
2FFF200EFF7006FFB004FFE100
4FFF001FFF600AFF801DFF6000
4FFF000FFF916EFFA1BFF90000
5FFF000BFFFFF4EFFFFFA00000
4FFF1002DFFB304EFFC5000000
2FFF4000021000003200000000
0DFFA00000000000B900000000
09FFF5000000002CFD00000000
02EFFF93000149FFFB00000000
005FFFFFEDEFFFFFE300000000
0003DFFFFFFFFFFA2000000000
0000059CEFEDA7200000000000
ENDCHAR
STARTCHAR A
ENCODING 65
SWIDTH 668 0
DWIDTH 24 0
BBX 25 31 0 -4
BITMAP
00000000000000000016BEED80
000000000000000005DFFFFFB0
00000000000000008FFFFFFF70
000000000000000AFF6DFFFF40
00000000000000AFF41FFFFF10
00000000000008FF604FFFFD00
0000000000005FFA008FFFFA00
000000000002EFE100BFFFF600
00000000000CFF6000EFFFF300
00000000008FFC0002FFFFF000
0000001223FFF40006FFFFC000
0006BEFFFFFFE63009FFFF9000
03DFFFFFFFFFFFFE9DFFFF5000
2EFFE732EFFC036AFFFFFF2000
8FFF5007FFF500004FFFFE0000
9FFF701EFFE000006FFFFB0000
3EFF509FFF800000AFFFF80000
013101FFFF200000DFFFF40000
000007FFFB000001FFFFF10000
00000DFFF6000004FFFFD00000
00005FFFF1000008FFFFA00000
0000AFFFB000000BFFFF700000
0001FFFF7000000EFFFF300000
0005FFFF3000002FFFFF000000
0009FFFE0000006FFFFC000000
000CFFFB0000009FFFF9000000
000EFFF9000000CFFFF6000000
000EFFF7000000000000000000
000CFFF6000000000000000000
0005FFF6000000000000000000
00005BE9000000000000000000
ENDCHAR
STARTCHAR B
ENCODING 66
SWIDTH 641 0
DWIDTH 23 0
BBX 22 28 0 -1
BITMAP
0000000037BDEFEC940000
0000005CFFFFFFFFFFC300
00003CFFFC75335AFFFE20
0006FFFB200012005FFFA0
006FFF605ACEFA000BFFF0
04FFF700BFFFF60008FFF2
0CFFB000EFFFF20009FFF0
4FFF4003FFFFE0000EFFB0
7FFF0006FFFFA0008FFF30
8FFD0009FFFF7007FFF600
6FFC000CFFFF65BFFE4000
1DFD001FFFFFFFFFFFC400
0169104FFFFFFFFFFFFF60
0000007FFFFA103BFFFFE1
000000AFFFF70000DFFFF7
000000EFFFF300007FFFFA
000002FFFFF000004FFFFC
000005FFFFC000003FFFFB
000008FFFF9000004FFFFA
00000CFFFF6000005FFFF8
00000FFFFF2000008FFFF4
00003FFFFE000000CFFFE1
00006FFFFB000002FFFF90
0000AFFFF843000BFFFF20
0000DFFFF58FA8DFFFF700
0001FFFFF19FFFFFFFA000
0004FFFFD03EFFFFE70000
0000000000015775100000
ENDCHAR
STARTCHAR C
ENCODING 67
SWIDTH 497 0
DWIDTH 18 0
BBX 20 28 0 -1
BITMAP
00000000049DEFEB5000
00000003CFFFFFFFFB10
0000004EFFFFB439FFA0
000004FFFFF80000DFF1
00002EFFFFB00000AFF3
0000BFFFFE200000DFF3
0005FFFFF8000004FFF1
000DFFFFE100001DFFA0
005FFFFFA00000048710
00AFFFFF400000000000
01FFFFFE000000000000
04FFFFFA000000000000
08FFFFF7000000000000
0BFFFFF3000000000000
0EFFFFF1000000000000
1FFFFFD0000000000000
3FFFFFC0000000000000
4FFFFFB0000000000000
4FFFFFA0000000000000
4FFFFFA0000000000000
3FFFFFB0000000000000
1FFFFFE0000000000890
0DFFFFF5000000008F20
08FFFFFD2000004CF700
02EFFFFFFA88ADFF7000
005FFFFFFFFFFFD40000
0003BFFFFFFFC6000000
00000156765100000000
ENDCHAR
STARTCHAR D
ENCODING 68
SWIDTH 663 0
DWIDTH 24 0
BBX 24 28 0 -1
BITMAP
0000000037BDEFEDA6100000
0000006CFFFFFFFFFFD50000
00004DFFFB74336BFFFF7000
0007FFFA200000007FFFF400
008FFF5058ACE7000AFFFD00
05FFF600EFFFF40004FFFF50
0EFFA002FFFFF10000FFFFA0
6FFF3005FFFFC00000CFFFE0
AFFD0009FFFF900000CFFFF1
BFFA000CFFFF600000CFFFF2
AFF9000FFFFF300000DFFFF3
6FF9003FFFFE000000EFFFF2
08EC007FFFFB000000FFFFF2
000200AFFFF8000002FFFFF0
000000DFFFF5000005FFFFD0
000001FFFFF1000007FFFFA0
000005FFFFD000000AFFFF60
000008FFFFA000000EFFFF20
00000BFFFF6000004FFFFC00
00000EFFFF300000AFFFF600
00003FFFFF000002FFFFE100
00006FFFFC00000AFFFF8000
00009FFFF800005FFFFD1000
0000DFFFF60004EFFFF50000
0001FFFFFFA8BFFFFF800000
0004FFFFEFFFFFFFF9000000
0008FFFFA3BFFFFE60000000
000000000003675100000000
ENDCHAR
STARTCHAR E
ENCODING 69
SWIDTH 459 0
DWIDTH 17 0
BBX 18 28 0 -1
BITMAP
0000000005AEFEB500
00000001BFFFFFFF90
0000002DFFFA44CFF4
000000CFFF90003FF9
000006FFFE10001FFB
00000DFFF900004FF9
00002FFFF60000BFF5
00004FFFF50004FFB0
00003FFFF700003400
00001FFFFC00000000
00000AFFFF50000000
000001DFFFF6000000
0000029FFFFC500000
00009FFFFF60000000
001CFFFFF500000000
00AFFFFF7000000000
05FFFFFC0000000000
0DFFFFF50000000000
4FFFFFE00000000000
8FFFFFA00000000000
AFFFFF800000000010
BFFFFF9000000001C3
AFFFFFC00000001BA0
6FFFFFF7000016EC10
1EFFFFFFC99BEFC100
04FFFFFFFFFFF80000
004CFFFFFFE9200000
000036776300000000
ENDCHAR
STARTCHAR F
ENCODING 70
SWIDTH 459 0
DWIDTH 17 0
BBX 22 27 0 0
BITMAP
000000169CEEFFFFFFFFFA
000029FFFFFFFFFFFFFFF5
0006EFFBDFFFFFFFFFFFC0
007FFB10CFFFF88BDEE910
04FFD001FFFFF200000000
0CFF5004FFFFE000000000
3FFF1007FFFFB000000000
7FFD000AFFFF8000000000
9FFB000DFFFF5000000000
AFFB001FFFFF2000000000
8FFA005FFFFE0000000000
3FFB008FFFFFFFFFF00000
04BD00BFFFFFFFFFC00000
000000EFFFFB9999600000
000002FFFFF10000000000
000006FFFFD00000000000
000009FFFFA00000000000
00000CFFFF600000000000
00001FFFFF300000000000
00003FFFFF000000000000
00007FFFFC000000000000
0000AFFFF8000000000000
0000DFFFF5000000000000
0001FFFFF2000000000000
0004FFFFE0000000000000
0008FFFFA0000000000000
000BFFFF70000000000000
ENDCHAR
STARTCHAR G
ENCODING 71
SWIDTH 578 0
DWIDTH 21 0
BBX 21 34 0 -7
BITMAP
00000000048CEFEDA40000
00000005DFFFFFFFFFB100
000001AFFFFFA535DFFA00
00002DFFFFE400003FFF30
0001DFFFFE2000001FFF60
000BFFFFF30000003FFF60
005FFFFF80000000AFFF30
00DFFFFE10000004FFFB00
05FFFFF700000000596000
0AFFFFF200000000000000
0EFFFFC000000000000000
2FFFFF8000000000000000
3FFFFF6000000007BBB600
4FFFFF400000000EFFF600
4FFFFF400000004FFFF200
3FFFFF400000009FFFE000
1FFFFF60000001FFFFB000
0DFFFF9000000AFFFF7000
08FFFFE100006FFFFF4000
01EFFFFC3029FFFFFF1000
007FFFFFFFFFCEFFFC0000
0007FFFFFFFB3FFFF90000
00003ADFEB505FFFF50000
0000000000009FFFF20000
000001453000DFFFD00000
00007EFFFA01FFFF900000
0007FFFFFF45FFFF500000
002FFFD99E59FFFE100000
006FFD10011DFFF9000000
007FF900004FFFF2000000
005FFB0000CFFF80000000
001EFF934BFFFC00000000
0003EFFFFFFFA100000000
000018CEFDA40000000000
ENDCHAR
STARTCHAR H
ENCODING 72
SWIDTH 665 0
DWIDTH 24 0
BBX 25 27 0 0
BITMAP
0000000027BDFF600005FFFFD0
0000004BFFFFFF300008FFFFA0
00002BFFEFFFFF00000BFFFF70
0004EFE76FFFFC00000EFFFF40
004FFE309FFFF900002FFFFF10
02EFF500CFFFF600005FFFFC00
0BFFA000FFFFF200008FFFF900
3FFF4003FFFFE00000CFFFF600
7FFF0006FFFFB00000EFFFF300
8FFD000AFFFF800003FFFFE000
7FFC000DFFFF500006FFFFB000
2FFD001FFFFFFFFFFFFFFF8000
03BD104FFFFFFFFFFFFFFF5000
0000008FFFFD9999AFFFFF2000
000000BFFFF700004FFFFE0000
000000EFFFF400007FFFFB0000
000002FFFFF10000AFFFF70000
000005FFFFC00000DFFFF40000
000009FFFF900001FFFFF10000
00000CFFFF600005FFFFD00000
00000FFFFF300008FFFFA00000
00003FFFFE00000BFFFF600000
00007FFFFB00000EFFFF300000
0000AFFFF800003FFFFF000000
0000DFFFF500006FFFFC000000
0001FFFFF200009FFFF9000000
0004FFFFD00000CFFFF6000000
ENDCHAR
STARTCHAR I
ENCODING 73
SWIDTH 375 0
DWIDTH 14 0
BBX 15 27 0 0
BITMAP
0000000048BEFF30
0000006DFFFFFF00
00004DFFDFFFFC00
0007FFC39FFFF900
008FFB10CFFFF500
05FFD100FFFFF200
1EFF6003FFFFE000
7FFE1007FFFFB000
AFFB000AFFFF8000
BFF9000DFFFF4000
AFF9001FFFFF1000
4FFA004FFFFD0000
039A008FFFFA0000
000000BFFFF70000
000000EFFFF30000
000002FFFFF00000
000005FFFFC00000
000009FFFF900000
00000CFFFF600000
00000FFFFF200000
00003FFFFE000000
00007FFFFB000000
0000AFFFF8000000
0000DFFFF5000000
0001FFFFF1000000
0004FFFFD0000000
0008FFFFA0000000
ENDCHAR
STARTCHAR J
ENCODING 74
SWIDTH 536 0
DWIDTH 19 0
BBX 21 34 0 -7
BITMAP
0000000000000016ADEFB0
0000000000002AFFFFFF70
000000000018FFDEFFFF40
0000000002CFF81FFFFF10
000000002DFF504FFFFD00
00000000CFF8008FFFF900
00000007FFD000BFFFF600
0000000EFF8000EFFFF300
0000003FFF4003FFFFF000
0000004FFF2006FFFFC000
0000002FFF100AFFFF8000
0000000BFF200DFFFF5000
000000017B501FFFFF2000
0000000000005FFFFE0000
0000000000008FFFFB0000
000000000000CFFFF70000
000000000000FFFFF40000
000000000003FFFFF10000
000000000007FFFFD00000
00000000000AFFFF900000
00000000000EFFFF600000
00000000002FFFFF300000
00000000005FFFFF000000
00000000009FFFFC000000
0002553000CFFFF8000000
009FFFFD21FFFFF5000000
08FFFFFF74FFFFF1000000
1FFFE98C78FFFFB0000000
5FFE20001CFFFF60000000
5FFA00002FFFFD00000000
3FFC00008FFFF500000000
0DFFA438FFFF8000000000
03EFFFFFFFE70000000000
0029DFEDB7100000000000
ENDCHAR
STARTCHAR K
ENCODING 75
SWIDTH 601 0
DWIDTH 22 0
BBX 24 28 0 -1
BITMAP
0000000048BEFE300004FFF7
0000006DFFFFFF10001DFFA0
00003CFFEFFFFC0000AFFC00
0006FFD48FFFF90006FFD100
006FFD10CFFFF6002EFE3000
04FFE200FFFFF300CFF50000
0DFF7003FFFFE008FF700000
6FFF1006FFFFC04FFA000000
AFFC000AFFFF81DFC0000000
BFFA000DFFFF5AFD10000000
AFF9001FFFFF8FE300000000
6FF9004FFFFFEF5000000000
07EC007FFFFFFFFFDA200000
000100BFFFFC9BFFFFE10000
000000EFFFF4009FFFF70000
000002FFFFF1004FFFF90000
000005FFFFD0004FFFF90000
000009FFFF90006FFFF70000
00000CFFFF60009FFFF30000
00000FFFFF3000DFFFE00000
00003FFFFE0002FFFFB00000
00006FFFFB0006FFFF700000
0000AFFFF8000AFFFF300000
0000DFFFF5000DFFFF000000
0001FFFFF2000FFFFD000000
0004FFFFD0001FFFFE100000
0008FFFFA0000AFFFF900000
000000000000005775200000
ENDCHAR
STARTCHAR L
ENCODING 76
SWIDTH 379 0
DWIDTH 14 0
BBX 24 36 0 -9
BITMAP
0000000048BEFF3000000000
0000006DFFFFFF0000000000
00004DFFDFFFFC0000000000
0007FFC39FFFF80000000000
008FFB10CFFFF50000000000
05FFD101FFFFF20000000000
1EFF6003FFFFE00000000000
7FFE1007FFFFB00000000000
AFFB000AFFFF700000000000
BFF9000DFFFF400000000000
AFF9001FFFFF100000000000
4FFA005FFFFD000000000000
039A008FFFF9000000000000
000000BFFFF6000000000000
000000EFFFF3000000000000
000003FFFFF0000000000000
000006FFFFC0000000000000
000009FFFF80000000000000
00000CFFFF50000000000000
00001FFFFF20000000000000
00004FFFFE00000000000000
00007FFFFB00000000000000
0000AFFFF700000000000000
0000DFFFF400000000000000
0002FFFFF100000000000000
0005FFFFD000000000000000
0008FFFFFB60000000000000
00058AEFFFFD500000000000
00000005CFFFFB3000000000
0000000007FFFFFA20000000
00000000003DFFFFFA521136
000000000001BFFFFFFFFFFA
00000000000008FFFFFFFFF7
000000000000005EFFFFFFF2
0000000000000002BFFFFF80
000000000000000005BEE800
ENDCHAR
STARTCHAR M
ENCODING 77
SWIDTH 787 0
DWIDTH 28 0
BBX 27 27 2 0
BITMAP
000000016ADFD920000000000000
0000007EFFFFFFA0000007FFFFD0
00002CFFEDFFFF9000000DFFFFB0
0004FFF91CFFFF8000004FFFFF90
003EFF502FFFFF800000BFFFFF60
01EFF6008FFFFF700002FFFFFF40
09FFC000DFFFFF600009FFFFFF20
1FFF5004FFFFFF60001EFFFFFF00
5FFF100AFFFFFF50006FFFFFFD00
7FFE001FFFFFFF4000DFFFFFFB00
6FFD006FFFFFFF4004FFFFFFF800
2EFD00CFFDFFFF300AFFEFFFF600
04CE12FFBCFFFF202FFBEFFFF400
000008FF6CFFFF208FF5FFFFF200
00000DFE1DFFFF10EFD3FFFFF000
00004FFA0EFFFF06FF65FFFFC000
0000AFF40EFFFF0CFE17FFFFA000
0001FFD00FFFFE3FF90AFFFF8000
0006FF801FFFFDAFF20CFFFF6000
000CFF201FFFFEFFB00EFFFF4000
002FFB002FFFFFFF401FFFFF1000
008FF6003FFFFFFD003FFFFE0000
00DFE1003FFFFFF7005FFFFC0000
04FF90004FFFFFE1008FFFFA0000
0AFF40005FFFFF9000AFFFF80000
1FFD00005FFFFF2000CFFFF60000
6FF700006FFFFB0000EFFFF30000
ENDCHAR
STARTCHAR N
ENCODING 78
SWIDTH 668 0
DWIDTH 24 0
BBX 26 27 0 0
BITMAP
00000016BDEFDA00000000BFFB
000019FFFFFFFF30000000EFF8
0004EFFEBFFFFF70000002FFF4
004FFF917FFFFFA0000005FFF1
02EFF800BFFFFFD0000008FFD0
0BFFC000EFFFFFF200000CFFA0
3FFF5002FFFFFFF500000EFF60
8FFF0006FFFFFFF900003FFF30
BFFC0009FFFFFFFC00006FFF00
BFFC000CFFDFFFFF10009FFC00
AFFD001FFF8DFFFF4000CFF800
5FFF004FFF5AFFFF7000FFF500
07EF407FFF16FFFFA003FFF200
000320BFFD02FFFFE006FFE000
000000EFF900EFFFF209FFA000
000002FFF600AFFFF60CFF7000
000006FFF3007FFFF90FFF4000
000009FFE0003FFFFC3FFF1000
00000CFFB0000EFFFF7FFC0000
00001FFF70000BFFFFDFF90000
00004FFF400008FFFFFFF60000
00007FFF000004FFFFFFF30000
0000AFFC000001FFFFFFE00000
0000EFF8000000CFFFFFB00000
0002FFF50000009FFFFF800000
0005FFF10000005FFFFF500000
0009FFD00000002FFFFF100000
ENDCHAR
STARTCHAR O
ENCODING 79
SWIDTH 665 0
DWIDTH 24 0
BBX 24 27 0 0
BITMAP
00000000026ACEFFDB820000
00000005BFFFFFFFFFFF8000
000004DFFFB743359FFFF900
00009FFFA201566104FFFF40
000BFFE4008EFFA100AFFFC0
00AFFE301CFFFC00006FFFF2
06FFF400BFFFF200004FFFF5
0DFFA007FFFF8000003FFFF8
3FFF402EFFFF1000003FFFF9
6FFF109FFFFA0000003FFFF9
5FFE01FFFFF30000005FFFF8
1EFD07FFFFD00000006FFFF7
04BE1CFFFF800000009FFFF5
00002FFFFF40000000CFFFF2
00006FFFFF00000001FFFFE0
00009FFFFC00000005FFFFA0
0000CFFFF90000000AFFFF50
0000EFFFF60000001EFFFE10
0001FFFFF50000006FFFF900
0001FFFFF4000000DFFFF200
0001FFFFF4000007FFFF9000
0000FFFFF500002EFFFD1000
0000CFFFF80001CFFFF30000
00008FFFFE203CFFFF500000
00001EFFFFFEFFFFE5000000
000004EFFFFFFFFB20000000
00000018CEFEC83000000000
ENDCHAR
STARTCHAR P
ENCODING 80
SWIDTH 573 0
DWIDTH 21 0
BBX 22 27 0 0
BITMAP
0000000048BEFEDB610000
0000006DFFFFFFFFFE6000
00003CFFE964336DFFF800
0006FFE600000001CFFF50
007FFD20479BD7003FFFC0
04FFE300EFFFF4000CFFF2
1DFF8002FFFFF1000AFFF4
6FFF1005FFFFD0000BFFF5
AFFC0008FFFF90000CFFF3
BFFA000CFFFF60001FFFF1
AFF9000FFFFF30005FFFA0
6FF9003FFFFE0000CFFF30
06DC007FFFFB0006FFF900
000000AFFFF8003FFFC100
000000DFFFF404EFFB1000
000001FFFFF8BFFE600000
000005FFFFFDC951000000
000008FFFFA00000000000
00000BFFFF600000000000
00000EFFFF300000000000
00003FFFFE000000000000
00006FFFFB000000000000
00009FFFF8000000000000
0000DFFFF5000000000000
0001FFFFF2000000000000
0004FFFFD0000000000000
0008FFFFA0000000000000
ENDCHAR
STARTCHAR Q
ENCODING 81
SWIDTH 665 0
DWIDTH 24 0
BBX 24 31 0 -4
BITMAP
00000000026ACEFFDB820000
00000005CFFFFFFFFFFF8000
000005DFFFB743359FFFF900
00019FFF9201576104FFFF40
001CFFD4008FFFA000AFFFC0
00BFFE201CFFFB00006FFFF2
07FFF300BFFFE200004FFFF5
0EFFA007FFFF7000003FFFF8
4FFF402EFFFE1000003FFFF9
6FFF009FFFF90000003FFFF9
5FFD01FFFFF20000005FFFF8
1DFD07FFFFC00000007FFFF7
028B1CFFFF800000009FFFF5
00002FFFFF30000000DFFFF2
00006FFFFE00000002FFFFE0
00009FFFFB00000006FFFFA0
0000CFFFF80000000BFFFF50
0000EFFFF60000002FFFFE10
0001FFFFF50000009FFFF800
0001FFFFF4000002EFFFF200
0001FFFFF300000AFFFF9000
0000FFFFFDEFE96FFFFE1000
0000CFFFFC47FFFFFFF40000
00008FFFFE309FFFFF600000
00001EFFFFFEFFFFE5000000
000004EFFFFFFFFFF3000000
00000018CEFECAFFFD200000
00000000000000EFFFE74200
000000000000008FFFFFFB00
000000000000001DFFFFF300
00000000000000029DEB4000
ENDCHAR
STARTCHAR R
ENCODING 82
SWIDTH 601 0
DWIDTH 22 0
BBX 21 28 0 -1
BITMAP
0000000038BEFEDB720000
0000005CFFFFFFFFFF8000
00003CFFFB74335AFFFA00
0005FFFA200000009FFF60
006FFF50479BD7001FFFC0
03FFF600EFFFF4000CFFE0
0DFFA002FFFFF1000CFFF0
5FFF3005FFFFD0001FFFC0
AFFD0008FFFF90006FFF70
BFFA000CFFFF6001DFFD10
BFF9000FFFFF300BFFE300
7FF9003FFFFE14CFFD3000
1AFB007FFFFFFFFFFA2000
002400AFFFFFDFFFFFD100
000000DFFFF501BFFFF600
000001FFFFF2004FFFF900
000005FFFFD0004FFFF900
000008FFFFA0006FFFF700
00000BFFFF70008FFFF300
00000EFFFF3000CFFFE000
00003FFFFF0001FFFFB000
00006FFFFC0006FFFF7000
00009FFFF80009FFFF3000
0000DFFFF5000DFFFF0000
0001FFFFF2000FFFFD0000
0004FFFFD0001FFFFE1000
0008FFFFA0000BFFFF9000
0000000000000057752000
ENDCHAR
STARTCHAR S
ENCODING 83
SWIDTH 570 0
DWIDTH 21 0
BBX 19 28 1 -1
BITMAP
0000000038CEFEC71000
00000019FFFFFFFFE400
000001CFFFF844AFFF20
00000AFFFF50000CFF90
00003FFFFD000009FFD0
00007FFFFA00000AFFD0
00008FFFFB00002FFFA0
00006FFFFE1000CFFF30
00003FFFFF9000289300
00000CFFFFF600000000
000004FFFFFF40000000
0000008FFFFFE3000000
0000000BFFFFFE200000
00000001CFFFFFD10000
000000002EFFFFFB0000
0000120004FFFFFF5000
004CFFE5007FFFFFD000
05FFFFFF200CFFFFF300
1EFFFE841005FFFFF600
7FFFE2000001FFFFF700
AFFF80000000EFFFF600
BFFF50000000FFFFF300
9FFF60000005FFFFC000
5FFFC000001DFFFF4000
0CFFFB3015DFFFF60000
02DFFFFFFFFFFE500000
0018EFFFFFFE81000000
00000467763000000000
ENDCHAR
STARTCHAR T
ENCODING 84
SWIDTH 481 0
DWIDTH 17 0
BBX 26 27 0 0
BITMAP
000000159CEEFEC95100000005
000019EFFFFFFFFFFEA52015CC
0005EFFFFFFFFFFFFFFFFFFFF9
006FFFD7315FFFFFFFFFFFFFF4
03FFFA10008FFFFFFFFFFFFFB0
0BFFC00000CFFFFC58BDEFD810
3FFF400000EFFFF80000000000
7FFE000003FFFFF40000000000
AFFB000006FFFFF10000000000
BFFA000009FFFFC00000000000
BFF900000DFFFF900000000000
9FF900001FFFFF500000000000
2EFA00004FFFFF200000000000
017800007FFFFE000000000000
00000000AFFFFA000000000000
00000000DFFFF7000000000000
00000002FFFFF3000000000000
00000005FFFFF0000000000000
00000008FFFFC0000000000000
0000000BFFFF80000000000000
0000000EFFFF50000000000000
0000003FFFFF10000000000000
0000006FFFFD00000000000000
0000009FFFFA00000000000000
000000CFFFF600000000000000
000001FFFFF300000000000000
000004FFFFE000000000000000
ENDCHAR
STARTCHAR U
ENCODING 85
SWIDTH 716 0
DWIDTH 26 0
BBX 29 27 -1 0
BITMAP
00000000058BDEFD3000000BFFFF50
00000029EFFFFFFF1000000EFFFF20
000019FFFA9FFFFC0000003FFFFE00
0002DFFB209FFFF80000006FFFFA00
002EFF8000DFFFF40000009FFFF700
01DFFA0001FFFFF0000000DFFFF400
08FFE10005FFFFB0000001FFFFF100
0EFF900009FFFF70000004FFFFD000
2FFF50000DFFFF30000007FFFF9000
2FFF30002FFFFE0000000BFFFF6000
0EFF50006FFFFA0000000EFFFF3000
07FF8000AFFFF60000002FFFFF0000
005CC000DFFFF20000005FFFFC0000
00000002FFFFD00000009FFFF80000
00000006FFFF90000000CFFFF50000
0000000AFFFF50000000FFFFF20000
0000000EFFFF10000003FFFFE00000
0000002FFFFC00000007FFFFA00000
0000004FFFF90000000BFFFF500000
0000006FFFF70000001FFFFE100000
0000006FFFF60000007FFFF9000000
0000005FFFF7000001EFFFE2000000
0000002FFFFB00000BFFFF70000000
0000000CFFFF8214CFFFFA00000000
00000004FFFFFFFFFFFFA000000000
000000005EFFFFFFFFE60000000000
00000000027BEFEDA6100000000000
ENDCHAR
STARTCHAR V
ENCODING 86
SWIDTH 615 0
DWIDTH 22 0
BBX 25 27 0 0
BITMAP
0000000048BEFE40000001EF80
0000006DFFFFFF50000005FF20
00004DFFAFFFFF5000000AFC00
0007FFC31FFFFF5000001FF600
008FFB100FFFFF5000005FF100
05FFE1000FFFFF600000BFA000
1EFF60000FFFFF600001FF4000
7FFE10000EFFFF600006FE0000
AFFB00000EFFFF60000BF80000
BFF900000EFFFF60001FF30000
AFF900000DFFFF70006FC00000
4FFA00000DFFFF7000BF700000
039A00000DFFFF7001FF100000
000000000CFFFF7006FA000000
000000000CFFFF700CF5000000
000000000CFFFF802FE0000000
000000000BFFFF807F90000000
000000000BFFFF80CF30000000
000000000BFFFF82FD00000000
000000000AFFFF97F700000000
000000000AFFFF9CF200000000
000000000AFFFFBFB000000000
0000000009FFFFFF5000000000
0000000009FFFFFE1000000000
0000000008FFFFF90000000000
0000000008FFFFF40000000000
0000000008FFFFD00000000000
ENDCHAR
STARTCHAR W
ENCODING 87
SWIDTH 962 0
DWIDTH 35 0
BBX 37 27 0 0
BITMAP
0000000048BEFE40000001EFFFB00000008FE0
0000006DFFFFFF50000005FFFFC0000000DF90
00004DFFAFFFFF5000000AFFFFC0000003FF30
0007FFC31FFFFF5000001FFFFFC0000008FD00
008FFB100FFFFF5000005FFFFFC000000DF700
05FFE1000FFFFF600000BFFFFFC000004FF200
1EFF60000FFFFF600001FFFFFFD000009FB000
7FFE10000EFFFF600006FFFFFFD00000EF6000
AFFB00000EFFFF60000BFFFFFFD00004FE1000
BFF900000EFFFF60001FFAFFFFD00009F90000
AFF900000DFFFF70006FD6FFFFE0000EF40000
4FFA00000DFFFF7000BF76FFFFE0004FD00000
039A00000DFFFF7001FF26FFFFE0009F800000
000000000CFFFF7006FB05FFFFE000EF200000
000000000CFFFF700CF505FFFFE005FC000000
000000000CFFFF802FE105FFFFF00AF6000000
000000000BFFFF807F9004FFFFF00EF1000000
000000000BFFFF80CF4004FFFFF05FA0000000
000000000BFFFF82FD0004FFFFF0AF40000000
000000000AFFFF97F70003FFFFF1EE00000000
000000000AFFFF9CF20003FFFFF6F800000000
000000000AFFFFBFB00003FFFFFBF300000000
0000000009FFFFFF600002FFFFFFC000000000
0000000009FFFFFE100002FFFFFF7000000000
0000000008FFFFF9000002FFFFFF1000000000
0000000008FFFFF4000001FFFFFA0000000000
0000000008FFFFD0000001FFFFF50000000000
ENDCHAR
STARTCHAR X
ENCODING 88
SWIDTH 620 0
DWIDTH 22 0
BBX 23 27 0 0
BITMAP
0000000048BEFF500004FF40
0000006DFFFFFF90000CFA00
00004DFFAFFFFFC0005FF200
0007FFC30DFFFFF000DF8000
008FFB100AFFFFF307FE1000
05FFE10007FFFFF61EF60000
1EFF600003FFFFF98FC00000
7FFE100000FFFFFDFF400000
AFFB000000CFFFFFFB000000
BFF90000009FFFFFF2000000
AFF90000006FFFFF90000000
4FFA0000002FFFFFA0000000
039A0000000EFFFFD0000000
00000000000BFFFFF1000000
000000000008FFFFF4000000
00000000000AFFFFF7000000
00000000003FFFFFFA000000
0000000000CFFFFFFE000000
0000000005FEBFFFFF200000
000000001DF67FFFFF500000
000000007FC04FFFFF800000
00000001EF301FFFFFB00000
00000009F9000CFFFFE00000
0000003FE10009FFFFF20000
000000BF700006FFFFF50000
000005FD000003FFFFF80000
00000DF5000000EFFFFC0000
ENDCHAR
STARTCHAR Y
ENCODING 89
SWIDTH 620 0
DWIDTH 22 0
BBX 25 27 0 0
BITMAP
0000000048BEFF600000007FD0
0000006DFFFFFFA0000000DF70
00004DFFAFFFFFD0000004FE10
0007FFC30CFFFFF200000AF900
008FFB1008FFFFF600002FF200
05FFE10004FFFFF900008FA000
1EFF600001FFFFFD0000EF4000
7FFE100000CFFFFF1005FC0000
AFFB0000008FFFFF500BF60000
BFF90000004FFFFF902FE00000
AFF90000001FFFFFC08F700000
4FFA0000000BFFFFF2EF100000
039A00000007FFFFFAF9000000
000000000004FFFFFFF3000000
000000000000EFFFFFB0000000
000000000000BFFFFF40000000
000000000000BFFFFF00000000
000000000000EFFFFC00000000
000000000002FFFFF900000000
000000000006FFFFF500000000
000000000009FFFFF200000000
00000000000CFFFFE000000000
00000000001FFFFFB000000000
00000000004FFFFF8000000000
00000000007FFFFF4000000000
0000000000AFFFFF1000000000
0000000000DFFFFD0000000000
ENDCHAR
STARTCHAR Z
ENCODING 90
SWIDTH 542 0
DWIDTH 20 0
BBX 20 27 0 0
BITMAP
000019DFFFFFFFFFFFF9
0001DFFFFFFFFFFFFFF2
0009FFC533335FFFFF90
000DFFE00000AFFFFF20
000CFFF00003FFFFF900
0005FF70000AFFFFF200
00001000003FFFFF9000
0000000000BFFFFF2000
0000000003FFFFF90000
000000000BFFFFF20000
000000003FFFFF900000
00000000BFFFFF200000
00000004FFFFF9000000
0000000BFFFFF2000000
0000004FFFFF90000000
000000CFFFFF20000000
000004FFFFF900000000
00000CFFFFF200000000
00004FFFFF9000000000
0000CFFFFF2000000000
0005FFFFF90000001000
000CFFFFF200006EF700
005FFFFF900000EFFE00
00CFFFFF200000DFFE00
05FFFFFB333346CFF800
0DFFFFFFFFFFFFFFC100
5FFFFFFFFFFFFFD70000
ENDCHAR
STARTCHAR bracketleft
ENCODING 91
SWIDTH 400 0
DWIDTH 14 0
BBX 16 36 -1 -9
BITMAP
00000000CFFFFFFD
00000000FFFFFFFA
00000003FFF93332
00000006FFF40000
0000000AFFF10000
0000000DFFD00000
0000001FFFA00000
0000004FFF700000
0000007FFF400000
000000AFFF100000
000000DFFC000000
000002FFF9000000
000005FFF6000000
000008FFF3000000
00000BFFE0000000
00000EFFB0000000
00002FFF80000000
00005FFF50000000
00009FFF20000000
0000CFFE00000000
0000FFFA00000000
0003FFF700000000
0006FFF400000000
0009FFF100000000
000DFFD000000000
001FFF9000000000
004FFF6000000000
007FFF3000000000
00AFFF0000000000
00DFFC0000000000
01FFF80000000000
05FFF50000000000
08FFF20000000000
0BFFE33320000000
0EFFFFFFB0000000
2FFFFFFF80000000
ENDCHAR
STARTCHAR backslash
ENCODING 92
SWIDTH 362 0
DWIDTH 13 0
BBX 11 36 1 -9
BITMAP
6FF300000000
3FF600000000
0EFA00000000
0BFD00000000
08FF10000000
05FF40000000
02FF70000000
00EFA0000000
00AFE0000000
007FF2000000
004FF5000000
001FF8000000
000DFB000000
0009FE000000
0006FF300000
0003FF600000
0000FF900000
0000CFC00000
00009FF10000
00005FF40000
00002FF70000
00000EFA0000
00000BFD0000
000008FF1000
000004FF4000
000001FF8000
000000DFB000
000000AFE000
0000007FF200
0000004FF500
0000001FF900
0000000CFC00
00000009FF00
00000006FF30
00000003FF60
00000000EF90
ENDCHAR
STARTCHAR bracketright
ENCODING 93
SWIDTH 400 0
DWIDTH 14 0
BBX 16 36 -3 -9
BITMAP
00000000AFFFFFFF
00000000DFFFFFFC
000000003334FFF9
000000000004FFF6
000000000007FFF2
00000000000BFFE0
00000000000EFFB0
00000000002FFF80
00000000005FFF50
00000000008FFF20
0000000000CFFE00
0000000000FFFA00
0000000003FFF700
0000000006FFF400
0000000009FFF100
000000000DFFD000
000000001FFFA000
000000004FFF6000
000000007FFF3000
00000000AFFF0000
00000000EFFC0000
00000002FFF90000
00000005FFF60000
00000008FFF30000
0000000BFFE00000
0000000EFFB00000
0000003FFF800000
0000006FFF500000
0000009FFF200000
000000CFFE000000
000001FFFB000000
000004FFF7000000
000007FFF4000000
02333BFFF1000000
0DFFFFFFD0000000
1FFFFFFFA0000000
ENDCHAR
STARTCHAR asciicircum
ENCODING 94
SWIDTH 421 0
DWIDTH 15 0
BBX 11 7 2 20
BITMAP
000000062000
000001AF8000
00002CFFD000
0003DFFFF300
005EFE8BF800
07FE7101DD00
9E7100003F30
ENDCHAR
STARTCHAR underscore
ENCODING 95
SWIDTH 444 0
DWIDTH 16 0
BBX 14 3 1 0
BITMAP
2DDDDDDDDDDDD6
6FFFFFFFFFFFF4
9FFFFFFFFFFFF1
ENDCHAR
STARTCHAR grave
ENCODING 96
SWIDTH 201 0
DWIDTH 7 0
BBX 5 7 1 20
BITMAP
EFFB00
8FFD00
2FFF00
0BFF20
05FF50
00DF70
008F90
ENDCHAR
STARTCHAR a
ENCODING 97
SWIDTH 526 0
DWIDTH 19 0
BBX 22 18 -1 0
BITMAP
00000039DFEA2FFFFF3000
000009FFFFFFCFFFFE0000
0000AFFFFA45EFFFFB0000
0008FFFF9000AFFFF80000
004FFFFE1000CFFFF50000
00CFFFF60001FFFFF20000
04FFFFE10003FFFFE00000
09FFFFA00007FFFFB00000
0EFFFF60000AFFFF700000
2FFFFF20000DFFFF400000
5FFFFF00001FFFFF100000
6FFFFE00004FFFFD000152
7FFFFD00009FFFFA0006F2
6FFFFE0002EFFFF9000DA0
3FFFFF714DFFFFFD22AF20
0DFFFFFFFF6FFFFFFFF600
03EFFFFFE40BFFFFFE6000
002AEFD810019EFD820000
ENDCHAR
STARTCHAR b
ENCODING 98
SWIDTH 444 0
DWIDTH 16 0
BBX 16 25 -1 0
BITMAP
00001579BD100000
00005FFFFD000000
00008FFFFA000000
0000BFFFF6000000
0000EFFFF3000000
0003FFFFE0000000
0006FFFFB0000000
0009FFFFA9DFD700
000DFFFFFFFFFF80
001FFFFF844EFFF2
004FFFFD0006FFF6
007FFFFA0002FFF8
00BFFFF60000FFF9
00EFFFF30001FFF9
02FFFFF10002FFF8
05FFFFC00004FFF6
09FFFF900007FFF3
0CFFFF60000BFFE0
0FFFFF30001FFF90
2FFFFF00008FFF30
3FFFFE0002FFF900
2FFFFF613DFFD100
0DFFFFFFFFFE2000
04FFFFFFFFB20000
002ADFED94000000
ENDCHAR
STARTCHAR c
ENCODING 99
SWIDTH 384 0
DWIDTH 14 0
BBX 16 18 -1 0
BITMAP
00000028CEFD9100
000008FFFFFFFA00
0000AFFFF83DFF10
0008FFFF9008FF30
003FFFFE100AFE10
00CFFFF7000AE600
03FFFFF100000000
09FFFFA000000000
0DFFFF6000000000
2FFFFF3000000000
4FFFFF0000000000
6FFFFE0000000025
7FFFFD00000003E6
6FFFFF1000005EA0
3FFFFF92014BFB10
0CFFFFFFFFFFA100
03EFFFFFFFE60000
0018CEFDB6100000
ENDCHAR
STARTCHAR d
ENCODING 100
SWIDTH 525 0
DWIDTH 19 0
BBX 22 25 -1 0
BITMAP
000000000000002579B900
00000000000000AFFFF700
00000000000000EFFFF400
00000000000002FFFFF100
00000000000005FFFFD000
00000000000008FFFFA000
0000000000000CFFFF6000
00000039DFEA2FFFFF3000
000009FFFFFFCFFFFF0000
0000AFFFFA45EFFFFC0000
0008FFFF9000AFFFF90000
004FFFFE1000DFFFF50000
00CFFFF60001FFFFF20000
04FFFFE10004FFFFE00000
09FFFFA00007FFFFB00000
0EFFFF60000AFFFF800000
2FFFFF20000EFFFF400000
5FFFFF00002FFFFF100000
6FFFFE00005FFFFD000031
7FFFFD00009FFFFA0005F2
6FFFFE0002EFFFF8000DA0
3FFFFF714DFFFFFB12AF20
0DFFFFFFFF9FFFFFFFF600
03EFFFFFE50CFFFFFF6000
002AEFD92002AEFD920000
ENDCHAR
STARTCHAR e
ENCODING 101
SWIDTH 384 0
DWIDTH 14 0
BBX 16 18 -1 0
BITMAP
00000028CEED8100
000008FFFFFFFA00
0000AFFFF83CFF10
0008FFFF8009FF30
004FFFFD000BFF20
00CFFFF6001FFD00
04FFFFE000AFF700
09FFFF9008FFC000
0DFFFF76CFFD1000
2FFFFFFFFF910000
4FFFFFFD93000000
6FFFFE0000000013
7FFFFD00000002D8
6FFFFF0000004DC0
3FFFFF91014AFC10
0CFFFFFFFFFFB100
03EFFFFFFFE70000
0018CEFEB6100000
ENDCHAR
STARTCHAR f
ENCODING 102
SWIDTH 267 0
DWIDTH 10 0
BBX 22 36 -8 -9
BITMAP
000000000000003ADFD910
00000000000008FFFFFFD1
0000000000007FFFFFFFF9
000000000001FFFFF814FC
000000000007FFFFC000DC
00000000000CFFFF600043
00000000001FFFFF200000
00000000003FFFFE000000
00000000007FFFFB000000
0000000000AFFFFFFF2000
0000000000DFFFF6220000
0000000001FFFFF1000000
0000000004FFFFD0000000
0000000008FFFFA0000000
000000000BFFFF60000000
000000000EFFFF30000000
000000002FFFFF00000000
000000005FFFFC00000000
000000008FFFF900000000
00000000CFFFF600000000
00000000FFFFF200000000
00000003FFFFE000000000
00000006FFFFB000000000
00000009FFFF8000000000
0000000DFFFF5000000000
0000001FFFFF2000000000
0000006FFFFE0000000000
00028DFFFFFA0000000000
008FD7BFFFF70000000000
09F910DFFFF40000000000
3FC002FFFFF10000000000
6F8007FFFFB00000000000
7FC23EFFFF500000000000
3FFFFFFFFB000000000000
09FFFFFFC1000000000000
006CFEB600000000000000
ENDCHAR
STARTCHAR g
ENCODING 103
SWIDTH 507 0
DWIDTH 18 0
BBX 21 27 -1 -9
BITMAP
00000039DFEA2FFFFF3000
000009FFFFFFCFFFFE0000
0000AFFFFA45EFFFFB0000
0008FFFF9000AFFFF80000
004FFFFE1000DFFFF50000
00CFFFF60001FFFFF20000
04FFFFE10004FFFFD00000
09FFFFA00007FFFFA00000
0EFFFF60000AFFFF700000
2FFFFF20000DFFFF400000
5FFFFF00002FFFFF100000
6FFFFE00005FFFFC000220
7FFFFD00009FFFF9001E80
6FFFFE0002EFFFF6007F20
3FFFFF714DFFFFF302E900
0DFFFFFFFFFFFFE03DD100
03EFFFFFFCFFFFD9FD2000
002AEFD92AFFFFFE810000
000000027EFFFF81000000
0000019FFFFFFF20000000
00004EFA7FFFFE00000000
0002EF607FFFFB00000000
0008F900BFFFF600000000
0009F502FFFFE100000000
0008FB4BFFFF7000000000
0002EFFFFFF80000000000
000029DFDA300000000000
ENDCHAR
STARTCHAR h
ENCODING 104
SWIDTH 505 0
DWIDTH 18 0
BBX 22 25 -2 0
BITMAP
000001579BD10000000000
000004FFFFD00000000000
000008FFFFA00000000000
00000BFFFF600000000000
00000EFFFF300000000000
00002FFFFE000000000000
00006FFFFB000000000000
00009FFFF829DFD8100000
0000CFFFFAFFFFFFB00000
0001FFFFFFFFFFFFF30000
0004FFFFFC22EFFFF60000
0007FFFFE200AFFFF60000
000AFFFF9000AFFFF40000
000DFFFF4000DFFFF20000
002FFFFF1001FFFFE00000
005FFFFC0004FFFFB00000
008FFFF90007FFFF700000
00BFFFF6000BFFFF400000
00EFFFF3000EFFFF100032
03FFFFE0001FFFFC0002F6
06FFFFB0003FFFFB000AE1
09FFFF80003FFFFE218F70
0DFFFF50000EFFFFFFFC00
1FFFFF200007FFFFFFC100
4FFFFE0000006CFEC60000
ENDCHAR
STARTCHAR i
ENCODING 105
SWIDTH 267 0
DWIDTH 10 0
BBX 12 25 -1 0
BITMAP
000007DE7000
00006FFFF700
0000BFFFFC00
0000BFFFFC00
00006FFFF700
000007EE8000
000000000000
000AFFFF8000
000DFFFF5000
001FFFFF1000
004FFFFD0000
008FFFFA0000
00BFFFF70000
00EFFFF40000
02FFFFF10000
06FFFFC00000
09FFFF900000
0CFFFF600000
0FFFFF300048
3FFFFF0000DA
4FFFFE0009F4
3FFFFFA8CFA0
1FFFFFFFFD10
08FFFFFFB100
007DFEA40000
ENDCHAR
STARTCHAR j
ENCODING 106
SWIDTH 240 0
DWIDTH 9 0
BBX 18 34 -8 -9
BITMAP
000000000001AED400
00000000000AFFFF30
00000000001FFFFF80
00000000001FFFFF80
00000000000BFFFF30
000000000001AED500
000000000000000000
00000000009FFFF900
0000000000DFFFF500
0000000001FFFFF200
0000000004FFFFE000
0000000007FFFFB000
000000000AFFFF8000
000000000EFFFF5000
000000002FFFFF2000
000000005FFFFE0000
000000008FFFFB0000
00000000BFFFF80000
00000000EFFFF40012
00000003FFFFF1009E
00000006FFFFD001E8
00000009FFFFA007E1
0000000CFFFF704F60
0000001FFFFF47E700
0000004FFFFFEC3000
000017DFFFFD300000
0007EFFFFFF8000000
01CFFDEFFFF5000000
0AFE60EFFFF2000000
2FF303FFFFC0000000
4FC009FFFF60000000
2FE47FFFFC00000000
0AFFFFFFD200000000
006CEEC60000000000
ENDCHAR
STARTCHAR k
ENCODING 107
SWIDTH 518 0
DWIDTH 19 0
BBX 22 25 -2 0
BITMAP
00000179BDF10000000000
000005FFFFD00000000000
000008FFFFA00000000000
00000BFFFF600000000000
00000EFFFF300000000000
00003FFFFF000000000000
00006FFFFC000000000000
00009FFFF900004EFE5000
0000CFFFF50007FFB20000
0001FFFFF201AFF7000000
0004FFFFE02CFD30000000
0007FFFFB4EF9100000000
000AFFFFDFFFEFC3000000
000EFFFFFFFFFFFE200000
002FFFFFFFFFFFFFA00000
005FFFFFA20AFFFFD00000
008FFFFA0006FFFFE00000
00BFFFF60007FFFFC00000
00EFFFF30009FFFF900013
03FFFFF0000CFFFF6000AD
06FFFFC0000EFFFF4003F6
09FFFF80000EFFFF813DD0
0DFFFF50000CFFFFFFFF30
1FFFFF200004FFFFFFE500
4FFFFE0000004BEFE92000
ENDCHAR
STARTCHAR l
ENCODING 108
SWIDTH 267 0
DWIDTH 10 0
BBX 12 25 -1 0
BITMAP
00001579BD10
00005FFFFD00
00008FFFFA00
0000BFFFF700
0000EFFFF300
0003FFFFF000
0006FFFFC000
0009FFFF9000
000CFFFF5000
001FFFFF2000
004FFFFE0000
007FFFFA0000
00BFFFF70000
00EFFFF40000
02FFFFF10000
05FFFFC00000
09FFFF900000
0CFFFF600000
0FFFFF300047
3FFFFF0000CB
4FFFFE0009F4
3FFFFFB8CFA0
1FFFFFFFFD10
08FFFFFFB100
007DFEA40000
ENDCHAR
STARTCHAR m
ENCODING 109
SWIDTH 752 0
DWIDTH 27 0
BBX 31 18 -2 0
BITMAP
0000AFFFF829DFD91003ADFD70000000
0000DFFFFAFFFFFFC07FFFFFF9000000
0001FFFFFFFFFFFFF9FFFFFFFF200000
0004FFFFFC32EFFFFFB23FFFFF400000
0008FFFFE200BFFFFE100CFFFF500000
000BFFFF9000DFFFF7000CFFFF300000
000EFFFF4001FFFFF2000EFFFF100000
002FFFFF1004FFFFE0002FFFFD000000
005FFFFC0007FFFFB0006FFFF9000000
009FFFF9000AFFFF70009FFFF6000000
00CFFFF6000DFFFF4000CFFFF2000000
00FFFFF3002FFFFF1001FFFFE0000420
03FFFFE0005FFFFD0003FFFFB0004F40
06FFFFB0008FFFFA0005FFFFA000CD00
0AFFFF8000BFFFF70005FFFFD219F500
0DFFFF5000EFFFF30002FFFFFFFFA000
1FFFFF2002FFFFF000009FFFFFFA1000
4FFFFE0005FFFFC0000007DFEB500000
ENDCHAR
STARTCHAR n
ENCODING 110
SWIDTH 505 0
DWIDTH 18 0
BBX 22 18 -2 0
BITMAP
0000AFFFF83ADFD8100000
0000DFFFFBFFFFFFB00000
0001FFFFFFFFFFFFF30000
0004FFFFFC22EFFFF60000
0008FFFFE200AFFFF60000
000BFFFF9000AFFFF40000
000EFFFF4000DFFFF20000
002FFFFF1001FFFFE00000
005FFFFC0004FFFFB00000
009FFFF90007FFFF700000
00CFFFF6000BFFFF400000
00FFFFF3000EFFFF100032
03FFFFE0001FFFFC0002F6
06FFFFB0003FFFFB000AE1
0AFFFF80003FFFFE218F70
0DFFFF50000EFFFFFFFC00
1FFFFF200007FFFFFFC100
4FFFFE0000006CFEC60000
ENDCHAR
STARTCHAR o
ENCODING 111
SWIDTH 439 0
DWIDTH 16 0
BBX 22 18 -1 0
BITMAP
00000028CEFD8100000000
000007FFFFFFFC00000000
00009FFFF938FF60000000
0007FFFF9001FFB0000020
003FFFFE1006FFD00018E1
00CFFFF7000FFFE46AED30
03FFFFF1001FFFFFFC6000
09FFFFB00007FFE5200000
0DFFFF600004FFA0000000
2FFFFF300007FF80000000
5FFFFF00000CFF50000000
6FFFFE00002FFE00000000
7FFFFD00009FF900000000
6FFFFE0003FFF200000000
3FFFFF714EFF7000000000
0CFFFFFFFFFA0000000000
03EFFFFFFF800000000000
0018CEFD93000000000000
ENDCHAR
STARTCHAR p
ENCODING 112
SWIDTH 468 0
DWIDTH 17 0
BBX 20 28 -4 -9
BITMAP
0000006FFFFC00000000
0000009FFFF85BEFD910
000000CFFFFEFFFFFFC1
000001FFFFFD54CFFFF7
000004FFFFE2004FFFFB
000007FFFF90001FFFFD
00000AFFFF60000FFFFE
00000EFFFF30001FFFFD
00002FFFFF00002FFFFC
00005FFFFC00005FFFFB
00008FFFF900008FFFF7
0000CFFFF60000DFFFF4
0000FFFFF20003FFFFE1
0003FFFFE0000BFFFFA0
0006FFFFB0005FFFFF30
000AFFFFD216EFFFF800
000DFFFFFFFFFFFFB000
001FFFFFFFFFFFFA1000
004FFFFD4CEFDA400000
008FFFFA000000000000
00BFFFF7000000000000
00EFFFF3000000000000
02FFFFF0000000000000
06FFFFC0000000000000
09FFFF80000000000000
0CFFFF50000000000000
1FFFB810000000000000
27300000000000000000
ENDCHAR
STARTCHAR q
ENCODING 113
SWIDTH 486 0
DWIDTH 18 0
BBX 19 27 -1 -9
BITMAP
00000039DFEA2FFFFF20
000009FFFFFFDFFFFE00
0000AFFFFA45EFFFFB00
0008FFFF9000AFFFF700
004FFFFE1000DFFFF400
00CFFFF60001FFFFF100
04FFFFE10004FFFFD000
09FFFFA00007FFFF9000
0EFFFF60000BFFFF6000
2FFFFF20000EFFFF3000
5FFFFF00002FFFFE0000
6FFFFE00005FFFFB0000
7FFFFD00009FFFF80000
6FFFFE0002EFFFF50000
3FFFFF714DFFFFF20000
0DFFFFFFFFFFFFD00000
03EFFFFFDAFFFFA00000
002AEFD81BFFFF700000
000000000EFFFF400000
000000002FFFFF100000
000000005FFFFC000000
000000008FFFF9000000
00000000CFFFF6000000
00000000FFFFF2000000
00000003FFFFE0000000
00000006FFDA50000000
00000005620000000000
ENDCHAR
STARTCHAR r
ENCODING 114
SWIDTH 376 0
DWIDTH 14 0
BBX 16 18 -2 0
BITMAP
0000AFFFF817DEB2
0000DFFFF7DFFFFB
0001FFFFFFEDFFFE
0004FFFFF702FFFB
0008FFFFA000AEB2
000BFFFF60000000
000EFFFF30000000
002FFFFF00000000
005FFFFC00000000
009FFFF900000000
00CFFFF600000000
00FFFFF300000000
03FFFFE000000000
06FFFFB000000000
0AFFFF8000000000
0DFFFF5000000000
1FFFFF2000000000
4FFFFE0000000000
ENDCHAR
STARTCHAR s
ENCODING 115
SWIDTH 382 0
DWIDTH 14 0
BBX 17 19 -2 0
BITMAP
0000000468AC700000
0000001FFFFF900000
0000006FFFFFA00000
000000BFFFFFA00000
000002FEFFFFB00000
000008F9FFFFC00000
00000EB6FFFFD00000
00006F45FFFFE00000
0000CC04FFFFF00000
0005F502FFFFF20000
000DD001FFFFF30000
00AFC100FFFFF40000
09FFF400EFFFF40570
0FEEB000FFFFF6AE40
2FD00004FFFFFFE300
0FF5003DFFFFFB2000
09FFEEFFFFFE600000
01CFFFFFFFD2000000
0007CEFDA500000000
ENDCHAR
STARTCHAR t
ENCODING 116
SWIDTH 267 0
DWIDTH 10 0
BBX 12 24 -1 0
BITMAP
000000246600
00008FFFF900
0000CFFFF600
0000FFFFF300
0003FFFFE000
0007FFFFB000
00DFFFFFFFA0
002EFFFF6210
002FFFFF1000
005FFFFD0000
008FFFFA0000
00CFFFF60000
00EFFFF30000
03FFFFF00000
06FFFFC00000
09FFFF900000
0CFFFF500000
1FFFFF200059
3FFFFF0000DA
4FFFFE0009F3
3FFFFFB8CFA0
1EFFFFFFFD10
08FFFFFFB100
007DFEA40000
ENDCHAR
STARTCHAR u
ENCODING 117
SWIDTH 505 0
DWIDTH 18 0
BBX 21 18 -1 0
BITMAP
000AFFFF8000BFFFF60000
000DFFFF5000EFFFF30000
001FFFFF1003FFFFF00000
004FFFFD0006FFFFC00000
008FFFFA0009FFFF800000
00BFFFF7000DFFFF500000
00EFFFF4001FFFFF200000
02FFFFF1004FFFFE000000
06FFFFC0007FFFFB000000
09FFFF9000AFFFF7000000
0CFFFF6000EFFFF4000000
0FFFFF3002FFFFF1000850
3FFFFF0008FFFFD0004F40
4FFFFF003FFFFFD001DC00
3FFFFFA8EEFFFFF98DF400
1FFFFFFFF4DFFFFFFF8000
08FFFFFF607FFFFFF80000
007DFD930007DFD9300000
ENDCHAR
STARTCHAR v
ENCODING 118
SWIDTH 414 0
DWIDTH 15 0
BBX 16 18 -1 0
BITMAP
000AFFFF8006EE60
000DFFFF501FFFF2
001FFFFF201FFFF5
004FFFFE000AEEF5
008FFFFA00000CF4
00BFFFF700000DF2
00EFFFF400002FF0
02FFFFF100006FC0
06FFFFD00000AF80
09FFFFA00001FF40
0CFFFF700007FD00
0FFFFF40001EF700
3FFFFF10008FE100
4FFFFD0004FF6000
4FFFFF216FFA0000
1FFFFFFFFFC10000
08FFFFFFFA100000
006CEED940000000
ENDCHAR
STARTCHAR w
ENCODING 119
SWIDTH 661 0
DWIDTH 24 0
BBX 25 18 -1 0
BITMAP
000AFFFF8000BFFFF6007ED500
000DFFFF5000EFFFF302FFFE10
001FFFFF2003FFFFF003FFFF30
004FFFFE0006FFFFC000BEEF30
008FFFFA0009FFFF900000DF30
00BFFFF7000CFFFF600000FF10
00EFFFF4000FFFFF300003FE00
02FFFFF1003FFFFE000007FA00
06FFFFD0006FFFFB00000CF700
09FFFFA000AFFFF800002FF200
0CFFFF7000DFFFF500008FC000
0FFFFF4001FFFFF20002EF6000
3FFFFF1006FFFFE0000AFD0000
4FFFFE000DFFFFC0005FF40000
3FFFFF42AFFFFFE217FF900000
1FFFFFFFFCFFFFFFFFFB000000
08FFFFFF90CFFFFFFF90000000
007DFEA40018DEED9300000000
ENDCHAR
STARTCHAR x
ENCODING 120
SWIDTH 522 0
DWIDTH 19 0
BBX 21 20 0 0
BITMAP
000000000000009ED20000
00000000000006FFFA0000
0000029DFD7006FFFE0000
00004EFFFFF601CFFF0000
0003FFFFFFFD0004FD0000
000DE41DFFFF300AF80000
007F4009FFFF604FE10000
00EA0006FFFF81DF400000
06F20003FFFFACF7000000
0CC00001FFFFFF90000000
2F600000EFFFFB00000000
6F200000CFFFF100000000
AD000003EFFFF200000000
B800002EFFFFF400001310
000001DFAFFFF600007E10
00001CF72FFFFA0002E800
0000BF900DFFFF514DE100
000AFB0007FFFFFFFF4000
009FC10000CFFFFFD40000
08FE2000001AEEC7100000
ENDCHAR
STARTCHAR y
ENCODING 121
SWIDTH 486 0
DWIDTH 18 0
BBX 20 27 -1 -9
BITMAP
000AFFFF8000CFFFF600
000DFFFF5000EFFFF300
001FFFFF1003FFFFF000
004FFFFD0006FFFFC000
008FFFFA000AFFFF8000
00BFFFF7000DFFFF5000
00EFFFF4001FFFFF2000
02FFFFF1004FFFFE0000
06FFFFC0008FFFFA0000
09FFFF9000BFFFF70000
0CFFFF6000EFFFF40000
0FFFFF3003FFFFF10058
3FFFFF0008FFFFC000DA
4FFFFF003FFFFF9006F3
3FFFFFA8EFFFFF602EA0
1FFFFFFFFFFFFF33DD10
08FFFFFF9FFFFFBFC200
007DFEA37FFFFFD70000
00000039EFFFF9000000
00002AFFFFFFF6000000
0003EF92FFFFF2000000
001DF504FFFFE0000000
004FA009FFFFA0000000
006FB03FFFFF30000000
004FFDEFFFFA00000000
000CFFFFFFB100000000
00017DFEB50000000000
ENDCHAR
STARTCHAR z
ENCODING 122
SWIDTH 428 0
DWIDTH 15 0
BBX 16 18 0 0
BITMAP
00019EFFFFFFFFF2
002DFFFFFFFFFF80
00AFF8334FFFFE10
00EFF8009FFFF700
00DFF503FFFFD000
0027400BFFFF5000
0000005FFFFB0000
000000DFFFF30000
000007FFFF900000
00002EFFFE100000
0000AFFFF7000000
0003FFFFD1000000
000CFFFF50012000
006FFFFC004EFA00
01EFFFF4009FFD00
08FFFFD4336FFA00
2FFFFFFFFFFFD200
BFFFFFFFFFD91000
ENDCHAR
STARTCHAR braceleft
ENCODING 123
SWIDTH 352 0
DWIDTH 13 0
BBX 14 36 1 -9
BITMAP
000000005ADFF5
00000009FFFFF3
0000006FFFD630
000000EFFE1000
000005FFF90000
000009FFF50000
00000CFFF20000
00000EFFF00000
00001FFFD00000
00003FFFB00000
00004FFFA00000
00005FFF800000
00006FFF700000
00007FFF500000
00009FFF300000
0000CFFD000000
0018FFF4000000
1FFFFB30000000
4FFFF800000000
134EFF70000000
000CFFB0000000
000DFFB0000000
001FFF90000000
005FFF60000000
009FFF20000000
00DFFD00000000
03FFF900000000
07FFF600000000
0CFFF300000000
1FFFF100000000
3FFFE000000000
5FFFE000000000
4FFFF200000000
1EFFFA00000000
05FFFFC1000000
0039DFE0000000
ENDCHAR
STARTCHAR bar
ENCODING 124
SWIDTH 532 0
DWIDTH 19 0
BBX 5 36 7 -9
BITMAP
2FFF40
2FFF40
2FFF40
2FFF40
2FFF40
2FFF40
2FFF40
2FFF40
2FFF40
2FFF40
2FFF40
2FFF40
2FFF40
2FFF40
2FFF40
2FFF40
2FFF40
2FFF40
2FFF40
2FFF40
2FFF40
2FFF40
2FFF40
2FFF40
2FFF40
2FFF40
2FFF40
2FFF40
2FFF40
2FFF40
2FFF40
2FFF40
2FFF40
2FFF40
2FFF40
2FFF40
ENDCHAR
STARTCHAR braceright
ENCODING 125
SWIDTH 352 0
DWIDTH 13 0
BBX 14 36 -3 -9
BITMAP
0000000DFDA300
0000001DFFFF60
00000000AFFFE1
000000002FFFF5
000000000DFFF6
000000000DFFF4
000000000EFFF1
000000001FFFC0
000000005FFF80
000000008FFF40
00000000CFFE00
00000001FFFA00
00000005FFF600
00000008FFF200
0000000AFFE000
0000000AFFD000
00000006FFF531
000000007EFFF5
00000002AFFFF2
0000004EFF9100
000000DFFD0000
000002FFF90000
000004FFF70000
000006FFF60000
000007FFF60000
000009FFF50000
00000AFFF30000
00000CFFF20000
00000EFFF00000
00001FFFD00000
00004FFFA00000
00008FFF600000
0001EFFE100000
036DFFF7000000
2FFFFFA0000000
4FFEB500000000
ENDCHAR
STARTCHAR asciitilde
ENCODING 126
SWIDTH 431 0
DWIDTH 16 0
BBX 16 4 1 20
BITMAP
0003ADEEC9520271
009FFFFFFFFFFF90
08A8AEFFFFFFF800
1200015ADFD93000
ENDCHAR
STARTCHAR uni00A0
ENCODING 160
SWIDTH 217 0
DWIDTH 8 0
BBX 1 1 0 0
BITMAP
00
ENDCHAR
STARTCHAR exclamdown
ENCODING 161
SWIDTH 219 0
DWIDTH 8 0
BBX 12 28 -3 -10
BITMAP
0000002BEB30
000000DFFFD1
000004FFFFF4
000004FFFFF5
000001DFFFE1
0000003BEC30
000000000000
000000000000
000000000000
000003FFE000
000007FFC000
00000BFF9000
00001FFF7000
00005FFF5000
00009FFF2000
0000DFFF0000
0003FFFD0000
0007FFFA0000
000BFFF80000
001FFFF60000
005FFFF30000
009FFFF10000
00DFFFE00000
02FFFFC00000
07FFFF900000
0BFFFF700000
1FFFEB300000
153100000000
ENDCHAR
STARTCHAR cent
ENCODING 162
SWIDTH 384 0
DWIDTH 14 0
BBX 16 27 0 -2
BITMAP
0000000002FB0000
0000000006F70000
0000000009F40000
000000000DF10000
00000028DFFDA400
000008FFFFFFFF60
0001CFFFEF57FFE0
001CFFF5BF23FFF1
009FFF70ED06FFD0
04FFFD03F909FF50
0BFFF607F6004200
2FFFF10AF2000000
6FFFC00EE0000000
9FFFA02FA0000000
AFFF906F60000000
AFFF909F30000000
9FFFC0DE00000000
6FFFF4FB00041000
1EFFFFF8028F4000
06FFFFFFFFFF2000
007FFFFFFFF80000
0003AFFEDA400000
00004F8000000000
00007F5000000000
0000BF1000000000
0000ED0000000000
0001750000000000
ENDCHAR
STARTCHAR sterling
ENCODING 163
SWIDTH 455 0
DWIDTH 16 0
BBX 19 27 0 0
BITMAP
000000000028CEEC7100
0000000008FFFFFFFC00
00000000AFFFE56FFF60
00000007FFFF400FFF80
0000001EFFFC003FFF60
0000006FFFF6008FFE10
000000BFFFF200188200
000000EFFFE000000000
000003FFFFA000000000
000006FFFF7000000000
000009FFFF3000000000
01333DFFFF3333300000
06FFFFFFFFFFFFD00000
0AFFFFFFFFFFFF900000
00006FFFF60000000000
0000AFFFF20000000000
0000DFFFE00000000000
0001FFFFB00000000000
0005FFFF700000000000
0008FFFF300000000000
000CFFFA000000000000
001FFFA1000000004500
007FFFFFED952027F900
01DFFFFFFFFFFFFFFA00
0AFFFFFFFFFFFFFFF700
6FFFFFFFFFFFFFFFC100
3852101368BEFEC60000
ENDCHAR
STARTCHAR currency
ENCODING 164
SWIDTH 500 0
DWIDTH 18 0
BBX 14 13 2 6
BITMAP
094000000003A1
4FE34BEFC63EF6
08FEFFFFFFFF90
00BFF9447EFD00
01EF400002EF30
06FB0000007F90
08F80000005FA0
07FA0000007F90
03FF200001DF50
00BFE6215DFD00
05FFFFFFFFFF60
4FF67EFFE95FF5
1B6000220004C1
ENDCHAR
STARTCHAR yen
ENCODING 165
SWIDTH 558 0
DWIDTH 20 0
BBX 18 27 3 0
BITMAP
1FFFFFD00000000DF7
0CFFFFF20000004FF1
08FFFFF5000000AF90
04FFFFF9000002FF30
01FFFFFC000008FB00
00CFFFFF10000EF500
008FFFFF50005FD000
004FFFFF8000BF7000
001FFFFFC002FE1000
000CFFFFF108F90000
0008FFFFF40EF20000
0004FFFFF85FA00000
0001FFFFFBCF400000
0000CFFFFFFC000000
00008FFFFFF6000000
00004FFFFFE1000000
08CCCFFFFFECCCC300
0EFFFFFFFFFFFFF100
0000AFFFFF20000000
0000DFFFFD00000000
9FFFFFFFFFFFFF5000
CFFFFFFFFFFFFF2000
2339FFFFF633320000
000BFFFFF100000000
000EFFFFC000000000
002FFFFF9000000000
006FFFFF6000000000
ENDCHAR
STARTCHAR brokenbar
ENCODING 166
SWIDTH 532 0
DWIDTH 19 0
BBX 5 36 7 -9
BITMAP
2FFF40
2FFF40
2FFF40
2FFF40
2FFF40
2FFF40
2FFF40
2FFF40
2FFF40
2FFF40
2FFF40
2FFF40
2FFF40
2FFF40
2FFF40
2FFF40
000000
000000
000000
2FFF40
2FFF40
2FFF40
2FFF40
2FFF40
2FFF40
2FFF40
2FFF40
2FFF40
2FFF40
2FFF40
2FFF40
2FFF40
2FFF40
2FFF40
2FFF40
2FFF40
ENDCHAR
STARTCHAR section
ENCODING 167
SWIDTH 542 0
DWIDTH 20 0
BBX 19 28 0 -1
BITMAP
000000000049CEFD9400
000000002CFFC536FF60
00000002EFFD10009FC0
0000000CFFF600009FD0
0000003FFFF20001DFA0
0000006FFFF20007FB20
0000006FFFF700000000
0000007FFFFF30000000
00002DFFFFFFE4000000
0002EFE2DFFFFF600000
0009FFE02DFFFFF90000
000DFFF501BFFFFF9000
000EFFFE3009FFFFF500
000BFFFFE4007FFFFD00
0004FFFFFE4009FFFF20
00007FFFFFF401EFFF30
000007FFFFFE309FFF20
0000005FFFFFD08FFE00
00000005FFFFF6AFF800
019DC4008FFFFCEFD100
0CFFFF401EFFFFFC2000
5FFF81000AFFFF400000
9FFD000008FFFE000000
AFFB000009FFFB000000
9FFC00000CFFF5000000
5FFF60007FFFA0000000
09FFFECEFFF900000000
0039CEFEC82000000000
ENDCHAR
STARTCHAR dieresis
ENCODING 168
SWIDTH 392 0
DWIDTH 14 0
BBX 11 4 2 20
BITMAP
4DE80009EC30
DFFF406FFFC0
DFFF406FFFC0
4DE8000AEC30
ENDCHAR
STARTCHAR copyright
ENCODING 169
SWIDTH 587 0
DWIDTH 21 0
BBX 19 18 1 3
BITMAP
0000016BEFEB71000000
00004EFFFDEFFE500000
0007FF9302128EF80000
004FD319EFFC42CF5000
01EE22DFFFFFF31DE200
07F60BFC4117FD03F900
0CE13FD10000AC10CE00
1FA06F90000010007F20
2F808F80000000005F40
2F806FA0000000005F30
1FA02FF3000051007F20
0CE10AFE5118FD00CE00
07F601CFFFFFF503F800
01EE2019EFFC401DE200
004FD300021002CF5000
0006FF9300028EF80000
00004EFFFDEFFE500000
0000016BEFEB71000000
ENDCHAR
STARTCHAR ordfeminine
ENCODING 170
SWIDTH 345 0
DWIDTH 12 0
BBX 11 10 1 15
BITMAP
0006CEECFF60
00AFD31EFF20
06FF402FFD00
0DFC006FF900
2FF800AFF500
5FF600EFF100
6FF917FFE100
5FFFFCEFFE10
0BFFB17FF600
001200011000
ENDCHAR
STARTCHAR guillemotleft
ENCODING 171
SWIDTH 589 0
DWIDTH 21 0
BBX 20 13 0 3
BITMAP
00000000000200000002
0000000003AE000006D7
00000003AFF80006DFD3
000003BFFA2016DFD600
0004BFFA2017EFD60000
04BFFA2017EFD6000000
1FFA20008FE600000000
2DFD60007FFB30000000
006EFE7102AFFB300000
00018FFE7103CFFB4000
000002AFFD0005DFF700
00000003BC000007E500
00000000020000001100
ENDCHAR
STARTCHAR logicalnot
ENCODING 172
SWIDTH 444 0
DWIDTH 16 0
BBX 15 9 0 2
BITMAP
0ADDDDDDDDDDDD30
0EFFFFFFFFFFFF10
3FFFFFFFFFFFFD00
0000000006FFFA00
0000000009FFF700
000000000CFFF400
000000001FFFF100
000000004FFFD000
000000007FFF9000
ENDCHAR
STARTCHAR uni00AD
ENCODING 173
SWIDTH 290 0
DWIDTH 10 0
BBX 9 3 0 8
BITMAP
0ADDDDDD60
0EFFFFFF40
3FFFFFFF10
ENDCHAR
STARTCHAR registered
ENCODING 174
SWIDTH 553 0
DWIDTH 20 0
BBX 18 18 1 3
BITMAP
000004ADFED9300000
0001BFFFEEFFF90000
002DFC510015CFC100
01DF7000000008FB00
09F709FFFEC7108F70
2FC009F3348FB00CE0
6F500AF0000AF106F4
AF100AF0014EC001F8
BE000AFFFFFB2000F9
BE000AF338F30000F9
AF100AF001EB0001F8
6F500AF0007F4006F4
2FC00AF0001EC00CE0
09F706900006918F70
01CF7000000008FB00
002DFC510015CFC100
0001AFFFEEFFF90000
0000049DFFD9300000
ENDCHAR
STARTCHAR macron
ENCODING 175
SWIDTH 446 0
DWIDTH 16 0
BBX 13 3 2 21
BITMAP
02333333333310
1FFFFFFFFFFF70
5FFFFFFFFFFF30
ENDCHAR
STARTCHAR degree
ENCODING 176
SWIDTH 314 0
DWIDTH 11 0
BBX 10 12 1 12
BITMAP
0004BEEA10
007FD35FA0
05FF301FE0
0DFA001FF1
4FF5002FF1
7FF2004FE0
9FF0007F90
AFE000BF40
9FF002FB00
5FF42CE200
09FFFB2000
0012100000
ENDCHAR
STARTCHAR plusminus
ENCODING 177
SWIDTH 479 0
DWIDTH 17 0
BBX 16 18 0 4
BITMAP
0000000018860000
000000004FF90000
000000007FF60000
00000000BFF20000
00000000EFE00000
004CCCCCFFECCCCB
008FFFFFFFFFFFFB
00BFFFFFFFFFFFF8
0000000DFF000000
0000001FFC000000
0000004FF9000000
0000008FF6000000
000000BFF2000000
0000004440000000
0000000000000000
08DDDDDDDDDDDC00
0DFFFFFFFFFFFB00
1FFFFFFFFFFFF800
ENDCHAR
STARTCHAR uni00B2
ENCODING 178
SWIDTH 328 0
DWIDTH 12 0
BBX 11 15 1 12
BITMAP
0002AEFD8100
003EB15FFD10
00BF500EFF50
00DF800EFF60
005DA11FFF30
0000007FFB00
000002EFD100
00001CFC2000
0000BFB10000
000AF9000000
008F80000000
05FA00000200
0DFEEC736C00
2FFFFFFFFA00
29436ADEA100
ENDCHAR
STARTCHAR uni00B3
ENCODING 179
SWIDTH 336 0
DWIDTH 12 0
BBX 11 16 1 11
BITMAP
00006CEEA200
000BF71AFE30
004FF104FF90
006FF404FFA0
001CE809FF60
0000005FF900
000029FC4000
000004EFA100
0035006FFD00
07FF701FFF50
1FFB100FFF70
3FF4001FFF40
1FF4006FFD00
09FB25EFE200
009FFFFA2000
000133100000
ENDCHAR
STARTCHAR acute
ENCODING 180
SWIDTH 316 0
DWIDTH 11 0
BBX 8 7 4 20
BITMAP
00048871
000DFF90
006FFC00
00DFE200
06FF4000
0DF70000
7FA00000
ENDCHAR
STARTCHAR uni00B5
ENCODING 181
SWIDTH 505 0
DWIDTH 18 0
BBX 23 24 -3 -6
BITMAP
00000AFFFF8000BFFFF60000
00000DFFFF5000EFFFF30000
00001FFFFF2003FFFFF00000
00004FFFFE0006FFFFC00000
00008FFFFA0009FFFF900000
0000BFFFF7000CFFFF600000
0000EFFFF4000FFFFF300000
0002FFFFF1003FFFFE000000
0005FFFFD0006FFFFB000000
0009FFFFA000AFFFF8000000
000CFFFF7000DFFFF5000000
000FFFFF4001FFFFF2000320
003FFFFF1006FFFFE0002F60
006FFFFE000DFFFFC0009E10
00AFFFFF42AFFFFFE217F600
00DFFFFFFFF9EFFFFFFFA000
01FFFFFFFF908FFFFFFA0000
04FFFFFEB40008DFEA400000
07FFFFA00000000000000000
0AFFFF700000000000000000
0EFFFF400000000000000000
2FFFFF100000000000000000
5FFFE9000000000000000000
696200000000000000000000
ENDCHAR
STARTCHAR paragraph
ENCODING 182
SWIDTH 542 0
DWIDTH 20 0
BBX 17 29 2 -2
BITMAP
0000028CEFEC820000
00007FFFFFFFFF7000
000AFFFFFFFFDFF600
008FFFFFFFFF2FFD00
03FFFFFFFFFE0DFF20
0BFFFFFFFFFA0EFF30
1FFFFFFFFFF71FFF30
4FFFFFFFFFF35FFF10
6FFFFFFFFFF08FFE00
6FFFFFFFFFC0CFFA00
4FFFFFFFFF80FFF700
1FFFFFFFFF53FFF400
09FFFFFFFF27FFF100
02EFFFFFFD0AFFC000
004EFFFFFFFFFF9000
0002AEFFFEBFFF6000
000002FFF44FFF2000
000005FFF17FFE0000
000008FFD0BFFB0000
00000BFF90EFF70000
00000EFF62FFF40000
00003FFF35FFF10000
00006FFF09FFC00000
00009FFC0CFF900000
0000CFF80FFF600000
0001FFF53FFF200000
0004FFF27FFE000000
0007FFE0AFFB000000
000AFFB0DFF8000000
ENDCHAR
STARTCHAR periodcentered
ENCODING 183
SWIDTH 434 0
DWIDTH 16 0
BBX 8 7 4 6
BITMAP
02BFE800
2EFFFF90
8FFFFFF2
AFFFFFF4
8FFFFFF2
2EFFFF90
03BFE800
ENDCHAR
STARTCHAR cedilla
ENCODING 184
SWIDTH 227 0
DWIDTH 8 0
BBX 9 9 0 -8
BITMAP
0006F30000
000CC00000
003F600000
008FADC700
00EFFFFF50
01303EFF70
55002EFF40
7FFDFFF800
05CEEB5000
ENDCHAR
STARTCHAR uni00B9
ENCODING 185
SWIDTH 229 0
DWIDTH 8 0
BBX 7 16 1 11
BITMAP
00000150
01259EA0
3FFFFF70
1EFFFF40
012EFF10
003FFD00
006FF900
009FF600
00DFF300
01FFF000
04FFC000
07FF9000
0AFF5000
0EFF2000
2FFE0000
3AA70000
ENDCHAR
STARTCHAR ordmasculine
ENCODING 186
SWIDTH 329 0
DWIDTH 12 0
BBX 10 11 1 15
BITMAP
0005CEE902
00AFD33D99
07FF409FE2
0EFC005F70
3FF8004F40
6FF6007F20
7FF500CC00
6FF915F500
3FFFFFA000
07FFF90000
0002100000
ENDCHAR
STARTCHAR guillemotright
ENCODING 187
SWIDTH 586 0
DWIDTH 21 0
BBX 20 13 0 3
BITMAP
00020000000200000000
002F8100002F81000000
002EFD50003EFD500000
0001AFFB2001AFFB2000
000004DFF70004DFF700
00000008FFD40008FFD4
000000002CFB00002CFB
00000004AFF80004AFF8
000017DFFB5017DFFB50
004AFFE8204AFFE82000
0DFFB5001DFFB5000000
4E8200004E8200000000
21000000200000000000
ENDCHAR
STARTCHAR onequarter
ENCODING 188
SWIDTH 749 0
DWIDTH 27 0
BBX 26 27 1 0
BITMAP
000001500000000006FF300000
01259EA0000000001DFA000000
3FFFFF70000000007FF2000000
1EFFFF4000000001EF80000000
012EFF1000000009FE10000000
003FFD000000002FF700000000
006FF900000000BFD000000000
009FF600000004FF5000000000
00DFF30000000CFC0000000000
01FFF00000005FF30000000000
04FFC0000000DFA00000000000
07FF90000007FF200000000000
0AFF5000001EF80004ED204896
0EFF2000009FE10003FF90CFF5
2FFE000002FF700003FFA0FFF2
3AA700000AFD000004FF73FFD0
000000004FF5000008FF17FFA0
00000000CFC000000DF80AFF60
00000005FF3000005FD10DFF30
0000000DFA000000CE202FFF00
0000007FF2000005FFFFFFFFF2
000001EF900000079999DFFC90
000009FE100000000000BFF600
00002FF7000000000000EFF200
0000AFD0000000000002FFE000
0004FF50000000000006FFB000
000CFC00000000000009FF8000
ENDCHAR
STARTCHAR onehalf
ENCODING 189
SWIDTH 745 0
DWIDTH 27 0
BBX 26 27 1 0
BITMAP
000001500000000006FF300000
01259EA0000000001DFA000000
3FFFFF70000000007FF2000000
1EFFFF4000000001EF80000000
012EFF1000000009FE10000000
003FFD000000002FF700000000
006FF900000000BFD000000000
009FF600000004FF5000000000
00DFF30000000CFC0000000000
01FFF00000005FF30000000000
04FFC0000000DFA00000000000
07FF90000007FF200000000000
0AFF5000001EF800002AEFD810
0EFF2000009FE10003EB15FFD1
2FFE000002FF70000BF500EFF6
3AA700000AFD00000DF900EFF6
000000004FF5000005DA11FFF3
00000000CFC00000000007FFA0
00000005FF30000000002EFC10
0000000DFA0000000001CFB100
0000007FF2000000000BFA0000
000001EF90000000009F700000
000009FE1000000008F6000000
00002FF7000000005F80000030
0000AFD000000000DFFFEEDEC0
0004FF5000000002FFFFFFFFA0
000CFC00000000029436ADEA10
ENDCHAR
STARTCHAR threequarters
ENCODING 190
SWIDTH 836 0
DWIDTH 30 0
BBX 29 27 1 0
BITMAP
00006CEEA200000000004FF5000000
000BF71AFE3000000000CFC0000000
004FF104FF9000000005FF40000000
006FF404FFA00000000DFA00000000
001CE809FF600000007FF200000000
0000005FF900000001EF9000000000
000029FC4000000009FE1000000000
000004EFA10000002FF70000000000
0035006FFD000000AFD00000000000
07FF701FFF500004FF500000000000
1FFB100FFF70000CFC000000000000
3FF4001FFF40005FF4000000000000
1FF4006FFD0000DFA0003ED4037970
09FB25EFE20007FF20001FFB0AFF70
009FFFFA20001EF900001FFC0DFF30
0001331000008FE100003FF92FFF00
000000000002FF7000006FF35FFC00
00000000000AFD000000BFA08FF800
00000000003FF5000003FE10CFF500
0000000000CFC000000AE300EFF200
0000000005FF4000004FFFFFFFFF40
000000000DFA00000069999CFFD910
000000007FF2000000000009FF8000
00000001EF9000000000000CFF4000
00000008FE1000000000001FFF1000
0000002FF70000000000004FFD0000
000000AFD00000000000007FFA0000
ENDCHAR
STARTCHAR questiondown
ENCODING 191
SWIDTH 439 0
DWIDTH 16 0
BBX 15 27 -1 -9
BITMAP
0000000002BEB300
000000000DFFFD10
000000004FFFFF40
000000004FFFFF50
000000000DFFFE10
0000000002BEC300
0000000000000000
0000000000000000
0000000000782000
0000000001FF3000
0000000004FF1000
000000000BFB0000
000000007FF40000
00000006FF900000
0000008FFB000000
00001BFFC1000000
0003DFFD20000000
004EFFE300000000
03EFFF6003BFC300
0CFFFD000AFFFD00
3FFFF90000CFFF30
6FFFF800007FFF30
6FFFF800007FFF00
4FFFFD0000CFF800
0CFFFFA44BFFC100
02DFFFFFFFFA1000
0016BEFEC8300000
ENDCHAR
STARTCHAR Agrave
ENCODING 192
SWIDTH 668 0
DWIDTH 24 0
BBX 25 40 0 -4
BITMAP
000000000000000005FFF50000
000000000000000001FFF80000
000000000000000000BFFA0000
0000000000000000007FFC0000
0000000000000000002FFE0000
0000000000000000000DFF1000
00000000000000000008FF4000
00000000000000000000000000
00000000000000000000000000
00000000000000000016BEED80
000000000000000005DFFFFFB0
00000000000000008FFFFFFF70
000000000000000AFF6DFFFF40
00000000000000AFF41FFFFF10
00000000000008FF604FFFFD00
0000000000005FFA008FFFFA00
000000000002EFE100BFFFF600
00000000000CFF6000EFFFF300
00000000008FFC0002FFFFF000
0000001223FFF40006FFFFC000
0006BEFFFFFFE63009FFFF9000
03DFFFFFFFFFFFFE9DFFFF5000
2EFFE732EFFC036AFFFFFF2000
8FFF5007FFF500004FFFFE0000
9FFF701EFFE000006FFFFB0000
3EFF509FFF800000AFFFF80000
013101FFFF200000DFFFF40000
000007FFFB000001FFFFF10000
00000DFFF6000004FFFFD00000
00005FFFF1000008FFFFA00000
0000AFFFB000000BFFFF700000
0001FFFF7000000EFFFF300000
0005FFFF3000002FFFFF000000
0009FFFE0000006FFFFC000000
000CFFFB0000009FFFF9000000
000EFFF9000000CFFFF6000000
000EFFF7000000000000000000
000CFFF6000000000000000000
0005FFF6000000000000000000
00005BE9000000000000000000
ENDCHAR
STARTCHAR Aacute
ENCODING 193
SWIDTH 668 0
DWIDTH 24 0
BBX 28 40 0 -4
BITMAP
0000000000000000000000018884
000000000000000000000008FFE2
00000000000000000000001EFF70
00000000000000000000007FFC00
0000000000000000000000EFF300
0000000000000000000006FF9000
000000000000000000000DFE1000
0000000000000000000028840000
0000000000000000000000000000
00000000000000000016BEED8000
000000000000000005DFFFFFB000
00000000000000008FFFFFFF7000
000000000000000AFF6DFFFF4000
00000000000000AFF41FFFFF1000
00000000000008FF604FFFFD0000
0000000000005FFA008FFFFA0000
000000000002EFE100BFFFF60000
00000000000CFF6000EFFFF30000
00000000008FFC0002FFFFF00000
0000001223FFF40006FFFFC00000
0006BEFFFFFFE63009FFFF900000
03DFFFFFFFFFFFFE9DFFFF500000
2EFFE732EFFC036AFFFFFF200000
8FFF5007FFF500004FFFFE000000
9FFF701EFFE000006FFFFB000000
3EFF509FFF800000AFFFF8000000
013101FFFF200000DFFFF4000000
000007FFFB000001FFFFF1000000
00000DFFF6000004FFFFD0000000
00005FFFF1000008FFFFA0000000
0000AFFFB000000BFFFF70000000
0001FFFF7000000EFFFF30000000
0005FFFF3000002FFFFF00000000
0009FFFE0000006FFFFC00000000
000CFFFB0000009FFFF900000000
000EFFF9000000CFFFF600000000
000EFFF700000000000000000000
000CFFF600000000000000000000
0005FFF600000000000000000000
00005BE900000000000000000000
ENDCHAR
STARTCHAR Acircumflex
ENCODING 194
SWIDTH 668 0
DWIDTH 24 0
BBX 28 40 0 -4
BITMAP
0000000000000000000000005300
000000000000000000000007FA00
00000000000000000000009FFE00
000000000000000000000AFFFF40
00000000000000000001BFFDDF90
0000000000000000001CFE603FD0
000000000000000002DE710006F3
0000000000000000067100000073
0000000000000000000000000000
00000000000000000016BEED8000
000000000000000005DFFFFFB000
00000000000000008FFFFFFF7000
000000000000000AFF6DFFFF4000
00000000000000AFF41FFFFF1000
00000000000008FF604FFFFD0000
0000000000005FFA008FFFFA0000
000000000002EFE100BFFFF60000
00000000000CFF6000EFFFF30000
00000000008FFC0002FFFFF00000
0000001223FFF40006FFFFC00000
0006BEFFFFFFE63009FFFF900000
03DFFFFFFFFFFFFE9DFFFF500000
2EFFE732EFFC036AFFFFFF200000
8FFF5007FFF500004FFFFE000000
9FFF701EFFE000006FFFFB000000
3EFF509FFF800000AFFFF8000000
013101FFFF200000DFFFF4000000
000007FFFB000001FFFFF1000000
00000DFFF6000004FFFFD0000000
00005FFFF1000008FFFFA0000000
0000AFFFB000000BFFFF70000000
0001FFFF7000000EFFFF30000000
0005FFFF3000002FFFFF00000000
0009FFFE0000006FFFFC00000000
000CFFFB0000009FFFF900000000
000EFFF9000000CFFFF600000000
000EFFF700000000000000000000
000CFFF600000000000000000000
0005FFF600000000000000000000
00005BE900000000000000000000
ENDCHAR
STARTCHAR Atilde
ENCODING 195
SWIDTH 668 0
DWIDTH 24 0
BBX 29 37 0 -4
BITMAP
000000000000000004ADEEB6100030
00000000000000009FFFFFFFFA8990
0000000000000008A8AEFFFFFFF900
000000000000001200015ADFD93000
000000000000000000000000000000
000000000000000000000000000000
00000000000000000016BEED800000
000000000000000005DFFFFFB00000
00000000000000008FFFFFFF700000
000000000000000AFF6DFFFF400000
00000000000000AFF41FFFFF100000
00000000000008FF604FFFFD000000
0000000000005FFA008FFFFA000000
000000000002EFE100BFFFF6000000
00000000000CFF6000EFFFF3000000
00000000008FFC0002FFFFF0000000
0000001223FFF40006FFFFC0000000
0006BEFFFFFFE63009FFFF90000000
03DFFFFFFFFFFFFE9DFFFF50000000
2EFFE732EFFC036AFFFFFF20000000
8FFF5007FFF500004FFFFE00000000
9FFF701EFFE000006FFFFB00000000
3EFF509FFF800000AFFFF800000000
013101FFFF200000DFFFF400000000
000007FFFB000001FFFFF100000000
00000DFFF6000004FFFFD000000000
00005FFFF1000008FFFFA000000000
0000AFFFB000000BFFFF7000000000
0001FFFF7000000EFFFF3000000000
0005FFFF3000002FFFFF0000000000
0009FFFE0000006FFFFC0000000000
000CFFFB0000009FFFF90000000000
000EFFF9000000CFFFF60000000000
000EFFF70000000000000000000000
000CFFF60000000000000000000000
0005FFF60000000000000000000000
00005BE90000000000000000000000
ENDCHAR
STARTCHAR Adieresis
ENCODING 196
SWIDTH 668 0
DWIDTH 24 0
BBX 28 37 0 -4
BITMAP
00000000000000001AEB1005EE60
00000000000000008FFF901FFFF2
00000000000000008FFF901FFFF2
00000000000000001BEB2006EE60
0000000000000000000000000000
0000000000000000000000000000
00000000000000000016BEED8000
000000000000000005DFFFFFB000
00000000000000008FFFFFFF7000
000000000000000AFF6DFFFF4000
00000000000000AFF41FFFFF1000
00000000000008FF604FFFFD0000
0000000000005FFA008FFFFA0000
000000000002EFE100BFFFF60000
00000000000CFF6000EFFFF30000
00000000008FFC0002FFFFF00000
0000001223FFF40006FFFFC00000
0006BEFFFFFFE63009FFFF900000
03DFFFFFFFFFFFFE9DFFFF500000
2EFFE732EFFC036AFFFFFF200000
8FFF5007FFF500004FFFFE000000
9FFF701EFFE000006FFFFB000000
3EFF509FFF800000AFFFF8000000
013101FFFF200000DFFFF4000000
000007FFFB000001FFFFF1000000
00000DFFF6000004FFFFD0000000
00005FFFF1000008FFFFA0000000
0000AFFFB000000BFFFF70000000
0001FFFF7000000EFFFF30000000
0005FFFF3000002FFFFF00000000
0009FFFE0000006FFFFC00000000
000CFFFB0000009FFFF900000000
000EFFF9000000CFFFF600000000
000EFFF700000000000000000000
000CFFF600000000000000000000
0005FFF600000000000000000000
00005BE900000000000000000000
ENDCHAR
STARTCHAR Aring
ENCODING 197
SWIDTH 668 0
DWIDTH 24 0
BBX 25 38 0 -4
BITMAP
000000000000000000008EE900
00000000000000000006E42E60
0000000000000000000C900AA0
0000000000000000000E800B90
0000000000000000000BC14F40
00000000000000000002BED600
00000000000000000000000000
00000000000000000016BEED80
000000000000000005DFFFFFB0
00000000000000008FFFFFFF70
000000000000000AFF6DFFFF40
00000000000000AFF41FFFFF10
00000000000008FF604FFFFD00
0000000000005FFA008FFFFA00
000000000002EFE100BFFFF600
00000000000CFF6000EFFFF300
00000000008FFC0002FFFFF000
0000001223FFF40006FFFFC000
0006BEFFFFFFE63009FFFF9000
03DFFFFFFFFFFFFE9DFFFF5000
2EFFE732EFFC036AFFFFFF2000
8FFF5007FFF500004FFFFE0000
9FFF701EFFE000006FFFFB0000
3EFF509FFF800000AFFFF80000
013101FFFF200000DFFFF40000
000007FFFB000001FFFFF10000
00000DFFF6000004FFFFD00000
00005FFFF1000008FFFFA00000
0000AFFFB000000BFFFF700000
0001FFFF7000000EFFFF300000
0005FFFF3000002FFFFF000000
0009FFFE0000006FFFFC000000
000CFFFB0000009FFFF9000000
000EFFF9000000CFFFF6000000
000EFFF7000000000000000000
000CFFF6000000000000000000
0005FFF6000000000000000000
00005BE9000000000000000000
ENDCHAR
STARTCHAR AE
ENCODING 198
SWIDTH 764 0
DWIDTH 28 0
BBX 33 31 0 -4
BITMAP
00000000000000000016CEED9631023870
000000000000000005EFFFFFFFFFFFFF40
00000000000000009FFEFFFFFFFFFFFC00
000000000000000AFE4EFFFF55ADEE9100
00000000000000AFE32FFFFF1000000000
00000000000009FF405FFFFD0000000000
0000000000006FF8008FFFFA0000000000
000000000003FFD000BFFFF60000000000
00000000001DFF4000EFFFF30000000000
00000000009FFA0003FFFFF00000000000
0000002224FFF20006FFFFC00000000000
0017BFFFFFFFE84109FFFF900000000000
04EFFFFFFFFFFFFFADFFFFFFFFFE000000
3FFFE621EFFB025AEFFFFFFFFFF9000000
9FFF5008FFF500004FFFFE999994000000
8FFF801EFFD000007FFFFA000000000000
2BEC309FFF700000AFFFF7000000000000
000001FFFF100000DFFFF4000000000000
000007FFFB000002FFFFF1000000000000
00000DFFF6000005FFFFC0000000000000
00005FFFF1000008FFFF90000000000000
0000BFFFB000000BFFFF60000000000000
0001FFFF7000000EFFFF20000000000000
0005FFFF3000003FFFFFFFFFFFFF000000
0009FFFE0000006FFFFFFFFFFFFC000000
000CFFFB0000009FFFFFFFFFFFFA000000
000EFFF9000000CFFFFFFFFFFFF7000000
000EFFF700000000000000000000000000
000CFFF600000000000000000000000000
0006FFF600000000000000000000000000
00006CE800000000000000000000000000
ENDCHAR
STARTCHAR Ccedilla
ENCODING 199
SWIDTH 497 0
DWIDTH 18 0
BBX 20 36 0 -9
BITMAP
00000000049DEFEB6000
00000003CFFFFFFFFC10
0000004EFFFFB439FFA0
000004FFFFF80000CFF1
00002EFFFFA00000AFF3
0000BFFFFE100000DFF3
0005FFFFF7000005FFF1
000CFFFFE100001EFF90
004FFFFF900000026400
00AFFFFF300000000000
01EFFFFE000000000000
04FFFFF9000000000000
08FFFFF6000000000000
0BFFFFF2000000000000
0EFFFFF0000000000000
1FFFFFD0000000000000
3FFFFFB0000000000000
4FFFFFA0000000000000
5FFFFFA0000000000000
4FFFFFB0000000000000
3FFFFFC0000000000240
1FFFFFF1000000001D80
0EFFFFF800000004DE10
09FFFFFF931126BFF500
03FFFFFFFFFFFFFF6000
007FFFFFFFFFFFD40000
0005DFFFFFFFD6000000
00000367FC6300000000
00000004F40000000000
00000009FACB40000000
0000000EFFFFE0000000
0000001305FFF0000000
0000000000FFC0000000
000009FA25FF40000000
000007DFFFC400000000
00000001210000000000
ENDCHAR
STARTCHAR Egrave
ENCODING 200
SWIDTH 459 0
DWIDTH 17 0
BBX 18 37 0 -1
BITMAP
000000000CFFE00000
0000000007FFF10000
0000000002FFF30000
0000000000DFF60000
00000000008FF80000
00000000004FFA0000
00000000000EFC0000
000000000000000000
000000000000000000
0000000005AEFEB500
00000001BFFFFFFF90
0000002DFFFA44CFF4
000000CFFF90003FF9
000006FFFE10001FFB
00000DFFF900004FF9
00002FFFF60000BFF5
00004FFFF50004FFB0
00003FFFF700003400
00001FFFFC00000000
00000AFFFF50000000
000001DFFFF6000000
0000029FFFFC500000
00009FFFFF60000000
001CFFFFF500000000
00AFFFFF7000000000
05FFFFFC0000000000
0DFFFFF50000000000
4FFFFFE00000000000
8FFFFFA00000000000
AFFFFF800000000010
BFFFFF9000000001C3
AFFFFFC00000001BA0
6FFFFFF7000016EC10
1EFFFFFFC99BEFC100
04FFFFFFFFFFF80000
004CFFFFFFE9200000
000036776300000000
ENDCHAR
STARTCHAR Eacute
ENCODING 201
SWIDTH 459 0
DWIDTH 17 0
BBX 19 37 0 -1
BITMAP
00000000000000078860
000000000000005FFF40
00000000000000DFF900
00000000000005FFD100
0000000000000DFF4000
0000000000006FF90000
000000000000DFD10000
00000000000000000000
00000000000000000000
0000000005AEFEB50000
00000001BFFFFFFF9000
0000002DFFFA44CFF400
000000CFFF90003FF900
000006FFFE10001FFB00
00000DFFF900004FF900
00002FFFF60000BFF500
00004FFFF50004FFB000
00003FFFF70000340000
00001FFFFC0000000000
00000AFFFF5000000000
000001DFFFF600000000
0000029FFFFC50000000
00009FFFFF6000000000
001CFFFFF50000000000
00AFFFFF700000000000
05FFFFFC000000000000
0DFFFFF5000000000000
4FFFFFE0000000000000
8FFFFFA0000000000000
AFFFFF80000000001000
BFFFFF9000000001C300
AFFFFFC00000001BA000
6FFFFFF7000016EC1000
1EFFFFFFC99BEFC10000
04FFFFFFFFFFF8000000
004CFFFFFFE920000000
00003677630000000000
ENDCHAR
STARTCHAR Ecircumflex
ENCODING 202
SWIDTH 459 0
DWIDTH 17 0
BBX 18 37 0 -1
BITMAP
000000000000003600
00000000000005EE00
0000000000007FFF50
000000000009FFFFA0
0000000001BFFB7FE0
000000002DFB4008F5
00000003EA300000BA
000000000000000000
000000000000000000
0000000005AEFEB500
00000001BFFFFFFF90
0000002DFFFA44CFF4
000000CFFF90003FF9
000006FFFE10001FFB
00000DFFF900004FF9
00002FFFF60000BFF5
00004FFFF50004FFB0
00003FFFF700003400
00001FFFFC00000000
00000AFFFF50000000
000001DFFFF6000000
0000029FFFFC500000
00009FFFFF60000000
001CFFFFF500000000
00AFFFFF7000000000
05FFFFFC0000000000
0DFFFFF50000000000
4FFFFFE00000000000
8FFFFFA00000000000
AFFFFF800000000010
BFFFFF9000000001C3
AFFFFFC00000001BA0
6FFFFFF7000016EC10
1EFFFFFFC99BEFC100
04FFFFFFFFFFF80000
004CFFFFFFE9200000
000036776300000000
ENDCHAR
STARTCHAR Edieresis
ENCODING 203
SWIDTH 459 0
DWIDTH 17 0
BBX 20 34 0 -1
BITMAP
0000000009EC3003DE80
000000005FFFC00DFFF5
000000005FFFD00DFFF5
0000000009ED3004DE90
00000000000000000000
00000000000000000000
0000000005AEFEB50000
00000001BFFFFFFF9000
0000002DFFFA44CFF400
000000CFFF90003FF900
000006FFFE10001FFB00
00000DFFF900004FF900
00002FFFF60000BFF500
00004FFFF50004FFB000
00003FFFF70000340000
00001FFFFC0000000000
00000AFFFF5000000000
000001DFFFF600000000
0000029FFFFC50000000
00009FFFFF6000000000
001CFFFFF50000000000
00AFFFFF700000000000
05FFFFFC000000000000
0DFFFFF5000000000000
4FFFFFE0000000000000
8FFFFFA0000000000000
AFFFFF80000000001000
BFFFFF9000000001C300
AFFFFFC00000001BA000
6FFFFFF7000016EC1000
1EFFFFFFC99BEFC10000
04FFFFFFFFFFF8000000
004CFFFFFFE920000000
00003677630000000000
ENDCHAR
STARTCHAR Igrave
ENCODING 204
SWIDTH 375 0
DWIDTH 14 0
BBX 15 36 0 0
BITMAP
00000002FFF90000
00000000CFFB0000
000000008FFD0000
000000003FFF1000
000000000DFF3000
0000000009FF5000
0000000004FF7000
0000000000000000
0000000000000000
0000000048BEFF30
0000006DFFFFFF00
00004DFFDFFFFC00
0007FFC39FFFF900
008FFB10CFFFF500
05FFD100FFFFF200
1EFF6003FFFFE000
7FFE1007FFFFB000
AFFB000AFFFF8000
BFF9000DFFFF4000
AFF9001FFFFF1000
4FFA004FFFFD0000
039A008FFFFA0000
000000BFFFF70000
000000EFFFF30000
000002FFFFF00000
000005FFFFC00000
000009FFFF900000
00000CFFFF600000
00000FFFFF200000
00003FFFFE000000
00007FFFFB000000
0000AFFFF8000000
0000DFFFF5000000
0001FFFFF1000000
0004FFFFD0000000
0008FFFFA0000000
ENDCHAR
STARTCHAR Iacute
ENCODING 205
SWIDTH 375 0
DWIDTH 14 0
BBX 18 36 0 0
BITMAP
000000000000028883
0000000000000AFFE1
0000000000002FFF60
0000000000009FFB00
000000000001EFF200
000000000008FF8000
00000000001EFD0000
000000000038830000
000000000000000000
0000000048BEFF3000
0000006DFFFFFF0000
00004DFFDFFFFC0000
0007FFC39FFFF90000
008FFB10CFFFF50000
05FFD100FFFFF20000
1EFF6003FFFFE00000
7FFE1007FFFFB00000
AFFB000AFFFF800000
BFF9000DFFFF400000
AFF9001FFFFF100000
4FFA004FFFFD000000
039A008FFFFA000000
000000BFFFF7000000
000000EFFFF3000000
000002FFFFF0000000
000005FFFFC0000000
000009FFFF90000000
00000CFFFF60000000
00000FFFFF20000000
00003FFFFE00000000
00007FFFFB00000000
0000AFFFF800000000
0000DFFFF500000000
0001FFFFF100000000
0004FFFFD000000000
0008FFFFA000000000
ENDCHAR
STARTCHAR Icircumflex
ENCODING 206
SWIDTH 375 0
DWIDTH 14 0
BBX 17 36 0 0
BITMAP
000000000000044000
0000000000005FC000
000000000007FFF200
00000000008FFFF700
0000000009FFECFB00
00000000AFE811DF10
0000001BF910003F50
000000572000000540
000000000000000000
0000000048BEFF3000
0000006DFFFFFF0000
00004DFFDFFFFC0000
0007FFC39FFFF90000
008FFB10CFFFF50000
05FFD100FFFFF20000
1EFF6003FFFFE00000
7FFE1007FFFFB00000
AFFB000AFFFF800000
BFF9000DFFFF400000
AFF9001FFFFF100000
4FFA004FFFFD000000
039A008FFFFA000000
000000BFFFF7000000
000000EFFFF3000000
000002FFFFF0000000
000005FFFFC0000000
000009FFFF90000000
00000CFFFF60000000
00000FFFFF20000000
00003FFFFE00000000
00007FFFFB00000000
0000AFFFF800000000
0000DFFFF500000000
0001FFFFF100000000
0004FFFFD000000000
0008FFFFA000000000
ENDCHAR
STARTCHAR Idieresis
ENCODING 207
SWIDTH 375 0
DWIDTH 14 0
BBX 18 33 0 0
BITMAP
00000007ED5002CEA1
0000002FFFE10AFFF7
0000002FFFF10AFFF7
00000007ED5002CEA1
000000000000000000
000000000000000000
0000000048BEFF3000
0000006DFFFFFF0000
00004DFFDFFFFC0000
0007FFC39FFFF90000
008FFB10CFFFF50000
05FFD100FFFFF20000
1EFF6003FFFFE00000
7FFE1007FFFFB00000
AFFB000AFFFF800000
BFF9000DFFFF400000
AFF9001FFFFF100000
4FFA004FFFFD000000
039A008FFFFA000000
000000BFFFF7000000
000000EFFFF3000000
000002FFFFF0000000
000005FFFFC0000000
000009FFFF90000000
00000CFFFF60000000
00000FFFFF20000000
00003FFFFE00000000
00007FFFFB00000000
0000AFFFF800000000
0000DFFFF500000000
0001FFFFF100000000
0004FFFFD000000000
0008FFFFA000000000
ENDCHAR
STARTCHAR Eth
ENCODING 208
SWIDTH 663 0
DWIDTH 24 0
BBX 24 28 0 -1
BITMAP
0000000038BEFEDC95000000
0000005CFFFFFFFFFFD60000
00002BFFFB743359EFFF9000
0004EFFA200000003EFFF700
005FFF60368AC70007FFFF20
03EFF700DFFFF50002FFFF80
0CFFB001FFFFF10000EFFFC0
4FFF3004FFFFD00000CFFFF1
9FFD0007FFFFA00000CFFFF2
BFFA000AFFFF700000CFFFF3
BFF9000DFFFF400000DFFFF3
8FF9002FFFFF100000DFFFF2
1DFA026FFFFD331000EFFFF1
00570DFFFFFFFF6002FFFFE0
00003FFFFFFFFF1004FFFFC0
000001FFFFF1000007FFFF90
000004FFFFD000000AFFFF60
000008FFFFA000000EFFFF10
00000BFFFF7000004FFFFC00
00000EFFFF300000AFFFF600
00003FFFFF000002FFFFE100
00006FFFFC00000AFFFF8000
00009FFFF800005FFFFE1000
0000DFFFF60005EFFFF50000
0001FFFFFFA8BFFFFF800000
0004FFFFEFFFFFFFF9000000
0008FFFFA3BFFFFE60000000
000000000003675100000000
ENDCHAR
STARTCHAR Ntilde
ENCODING 209
SWIDTH 686 0
DWIDTH 25 0
BBX 26 33 0 0
BITMAP
000000000000028CEEDA620033
0000000000006EFFFFFFFFEFC1
000000000005B89DFFFFFFFA10
0000000000030000269BA82000
00000000000000000000000000
00000000000000000000000000
00000016BDEFDA00000000BFFB
000019FFFFFFFF30000000EFF8
0004EFFEBFFFFF70000002FFF4
004FFF917FFFFFA0000005FFF1
02EFF800BFFFFFD0000008FFD0
0BFFC000EFFFFFF200000CFFA0
3FFF5002FFFFFFF500000EFF60
8FFF0006FFFFFFF900003FFF30
BFFC0009FFFFFFFC00006FFF00
BFFC000CFFDFFFFF10009FFC00
AFFD001FFF8DFFFF4000CFF800
5FFF004FFF5AFFFF7000FFF500
07EF407FFF16FFFFA003FFF200
000320BFFD02FFFFE006FFE000
000000EFF900EFFFF209FFA000
000002FFF600AFFFF60CFF7000
000006FFF3007FFFF90FFF4000
000009FFE0003FFFFC3FFF1000
00000CFFB0000EFFFF7FFC0000
00001FFF70000BFFFFDFF90000
00004FFF400008FFFFFFF60000
00007FFF000004FFFFFFF30000
0000AFFC000001FFFFFFE00000
0000EFF8000000CFFFFFB00000
0002FFF50000009FFFFF800000
0005FFF10000005FFFFF500000
0009FFD00000002FFFFF100000
ENDCHAR
STARTCHAR Ograve
ENCODING 210
SWIDTH 665 0
DWIDTH 24 0
BBX 24 36 0 0
BITMAP
00000000000EFFB000000000
00000000000AFFD000000000
000000000006FFF000000000
000000000001FFF300000000
000000000000BFF500000000
0000000000007FF700000000
0000000000002FF900000000
000000000000000000000000
000000000000000000000000
00000000026ACEFFDB820000
00000005BFFFFFFFFFFF8000
000004DFFFB743359FFFF900
00009FFFA201566104FFFF40
000BFFE4008EFFA100AFFFC0
00AFFE301CFFFC00006FFFF2
06FFF400BFFFF200004FFFF5
0DFFA007FFFF8000003FFFF8
3FFF402EFFFF1000003FFFF9
6FFF109FFFFA0000003FFFF9
5FFE01FFFFF30000005FFFF8
1EFD07FFFFD00000006FFFF7
04BE1CFFFF800000009FFFF5
00002FFFFF40000000CFFFF2
00006FFFFF00000001FFFFE0
00009FFFFC00000005FFFFA0
0000CFFFF90000000AFFFF50
0000EFFFF60000001EFFFE10
0001FFFFF50000006FFFF900
0001FFFFF4000000DFFFF200
0001FFFFF4000007FFFF9000
0000FFFFF500002EFFFD1000
0000CFFFF80001CFFFF30000
00008FFFFE203CFFFF500000
00001EFFFFFEFFFFE5000000
000004EFFFFFFFFB20000000
00000018CEFEC83000000000
ENDCHAR
STARTCHAR Oacute
ENCODING 211
SWIDTH 665 0
DWIDTH 24 0
BBX 24 36 0 0
BITMAP
000000000000000004888100
00000000000000001EFFA000
00000000000000007FFE1000
0000000000000001EFF50000
0000000000000007FFA00000
000000000000001EFE100000
000000000000007FF5000000
000000000000000000000000
000000000000000000000000
00000000026ACEFFDB820000
00000005BFFFFFFFFFFF8000
000004DFFFB743359FFFF900
00009FFFA201566104FFFF40
000BFFE4008EFFA100AFFFC0
00AFFE301CFFFC00006FFFF2
06FFF400BFFFF200004FFFF5
0DFFA007FFFF8000003FFFF8
3FFF402EFFFF1000003FFFF9
6FFF109FFFFA0000003FFFF9
5FFE01FFFFF30000005FFFF8
1EFD07FFFFD00000006FFFF7
04BE1CFFFF800000009FFFF5
00002FFFFF40000000CFFFF2
00006FFFFF00000001FFFFE0
00009FFFFC00000005FFFFA0
0000CFFFF90000000AFFFF50
0000EFFFF60000001EFFFE10
0001FFFFF50000006FFFF900
0001FFFFF4000000DFFFF200
0001FFFFF4000007FFFF9000
0000FFFFF500002EFFFD1000
0000CFFFF80001CFFFF30000
00008FFFFE203CFFFF500000
00001EFFFFFEFFFFE5000000
000004EFFFFFFFFB20000000
00000018CEFEC83000000000
ENDCHAR
STARTCHAR Ocircumflex
ENCODING 212
SWIDTH 665 0
DWIDTH 24 0
BBX 24 36 0 0
BITMAP
000000000000000006200000
0000000000000001BF800000
000000000000002CFFD00000
00000000000003DFFFF30000
0000000000005EFE8BF80000
000000000007FE7101ED0000
00000000009E7100003F3000
000000000000000000000000
000000000000000000000000
00000000026ACEFFDB820000
00000005BFFFFFFFFFFF8000
000004DFFFB743359FFFF900
00009FFFA201566104FFFF40
000BFFE4008EFFA100AFFFC0
00AFFE301CFFFC00006FFFF2
06FFF400BFFFF200004FFFF5
0DFFA007FFFF8000003FFFF8
3FFF402EFFFF1000003FFFF9
6FFF109FFFFA0000003FFFF9
5FFE01FFFFF30000005FFFF8
1EFD07FFFFD00000006FFFF7
04BE1CFFFF800000009FFFF5
00002FFFFF40000000CFFFF2
00006FFFFF00000001FFFFE0
00009FFFFC00000005FFFFA0
0000CFFFF90000000AFFFF50
0000EFFFF60000001EFFFE10
0001FFFFF50000006FFFF900
0001FFFFF4000000DFFFF200
0001FFFFF4000007FFFF9000
0000FFFFF500002EFFFD1000
0000CFFFF80001CFFFF30000
00008FFFFE203CFFFF500000
00001EFFFFFEFFFFE5000000
000004EFFFFFFFFB20000000
00000018CEFEC83000000000
ENDCHAR
STARTCHAR Otilde
ENCODING 213
SWIDTH 665 0
DWIDTH 24 0
BBX 25 33 0 0
BITMAP
00000000000039DEED96201620
000000000007FFFFFFFFFFFA00
00000000007A8AEFFFFFFF9000
0000000000300004ADFDA40000
00000000000000000000000000
00000000000000000000000000
00000000026ACEFFDB82000000
00000005BFFFFFFFFFFF800000
000004DFFFB743359FFFF90000
00009FFFA201566104FFFF4000
000BFFE4008EFFA100AFFFC000
00AFFE301CFFFC00006FFFF200
06FFF400BFFFF200004FFFF500
0DFFA007FFFF8000003FFFF800
3FFF402EFFFF1000003FFFF900
6FFF109FFFFA0000003FFFF900
5FFE01FFFFF30000005FFFF800
1EFD07FFFFD00000006FFFF700
04BE1CFFFF800000009FFFF500
00002FFFFF40000000CFFFF200
00006FFFFF00000001FFFFE000
00009FFFFC00000005FFFFA000
0000CFFFF90000000AFFFF5000
0000EFFFF60000001EFFFE1000
0001FFFFF50000006FFFF90000
0001FFFFF4000000DFFFF20000
0001FFFFF4000007FFFF900000
0000FFFFF500002EFFFD100000
0000CFFFF80001CFFFF3000000
00008FFFFE203CFFFF50000000
00001EFFFFFEFFFFE500000000
000004EFFFFFFFFB2000000000
00000018CEFEC8300000000000
ENDCHAR
STARTCHAR Odieresis
ENCODING 214
SWIDTH 665 0
DWIDTH 24 0
BBX 24 33 0 0
BITMAP
00000000001BEB2005DE6000
00000000008FFFA01FFFF200
00000000008FFFA01FFFF200
00000000001BEC2006EE6000
000000000000000000000000
000000000000000000000000
00000000026ACEFFDB820000
00000005BFFFFFFFFFFF8000
000004DFFFB743359FFFF900
00009FFFA201566104FFFF40
000BFFE4008EFFA100AFFFC0
00AFFE301CFFFC00006FFFF2
06FFF400BFFFF200004FFFF5
0DFFA007FFFF8000003FFFF8
3FFF402EFFFF1000003FFFF9
6FFF109FFFFA0000003FFFF9
5FFE01FFFFF30000005FFFF8
1EFD07FFFFD00000006FFFF7
04BE1CFFFF800000009FFFF5
00002FFFFF40000000CFFFF2
00006FFFFF00000001FFFFE0
00009FFFFC00000005FFFFA0
0000CFFFF90000000AFFFF50
0000EFFFF60000001EFFFE10
0001FFFFF50000006FFFF900
0001FFFFF4000000DFFFF200
0001FFFFF4000007FFFF9000
0000FFFFF500002EFFFD1000
0000CFFFF80001CFFFF30000
00008FFFFE203CFFFF500000
00001EFFFFFEFFFFE5000000
000004EFFFFFFFFB20000000
00000018CEFEC83000000000
ENDCHAR
STARTCHAR multiply
ENCODING 215
SWIDTH 414 0
DWIDTH 15 0
BBX 12 12 1 6
BITMAP
01B200000780
1CFD20007FF7
2EFFD207FFF9
02EFFD8FFF90
002EFFFFF900
0002EFFFA000
0007FFFFE200
007FFFFFFE30
07FFF93EFFE3
3FFF9003EFFB
06F900002EC1
003000000210
ENDCHAR
STARTCHAR Oslash
ENCODING 216
SWIDTH 658 0
DWIDTH 24 0
BBX 23 30 0 -3
BITMAP
0000000000000005F9000000
0000000000000007F6000000
00000000048BDEFFFA300000
00000029EFFFEDEFFFFA1000
000019FFE941001FEFFFC100
0004EFF9105BEE7F99FFF900
005FFF501BFFF49F63FFFF10
03EFF500BFFF90CF20FFFF60
0CFFA008FFFE10FE00EFFF90
3FFF303FFFF803FB00DFFFA0
6FFD00CFFFF206F800EFFFB0
6FFB04FFFFB00AF400FFFFB0
2EFB0AFFFF600DF102FFFFA0
03AA1FFFFF201FD005FFFF80
00005FFFFC004FA008FFFF60
00009FFFF9007F600CFFFF20
0000CFFFF500AF301FFFFE00
0000FFFFF200EF006FFFF900
0002FFFFF102FC00CFFFF400
0003FFFFF005F804FFFFD000
0004FFFFE008F50CFFFF6000
0003FFFFE00BF26FFFFC0000
0001FFFFF10EE3EFFFF30000
0000BFFFF73FDEFFFF600000
00004FFFFFCFFFFFF7000000
000007FFFFFFFFFE60000000
00000039DFFFFF9200000000
0000000001FE510000000000
0000000003FB000000000000
0000000006F8000000000000
ENDCHAR
STARTCHAR Ugrave
ENCODING 217
SWIDTH 716 0
DWIDTH 26 0
BBX 29 36 -1 0
BITMAP
0000000000000004FFF70000000000
0000000000000000EFF90000000000
0000000000000000AFFB0000000000
00000000000000005FFD0000000000
00000000000000001FFF1000000000
00000000000000000BFF3000000000
000000000000000007FF5000000000
000000000000000000000000000000
000000000000000000000000000000
00000000048BDEFC1000000EFFFF20
00000018DFFFFFFD0000003FFFFE00
000006EFFABFFFF90000006FFFFA00
0001BFFA20BFFFF50000009FFFF700
001CFF8001FFFFF1000000CFFFF400
00BFFA0004FFFFC0000001FFFFF100
05FFF20008FFFF70000004FFFFD000
0CFFA0000CFFFF30000007FFFF9000
1FFF60001FFFFE0000000AFFFF6000
2FFF40005FFFFA0000000DFFFF3000
1FFF30008FFFF60000001FFFFE0000
0BFF3000CFFFF20000005FFFFB0000
018D6001FFFFD00000008FFFF80000
00000005FFFF90000000CFFFF50000
00000008FFFF60000001FFFFF10000
0000000CFFFF20000004FFFFC00000
0000000FFFFD00000008FFFF800000
0000003FFFFA0000000CFFFF400000
0000005FFFF80000001FFFFE000000
0000007FFFF60000006FFFF9000000
0000008FFFF5000000CFFFF3000000
0000009FFFF6000003FFFFB0000000
0000008FFFF900000CFFFF30000000
0000004FFFFE5114CFFFF700000000
0000000DFFFFFFFFFFFF9000000000
00000002DFFFFFFFFFE60000000000
0000000016BDEFEDA6100000000000
ENDCHAR
STARTCHAR Uacute
ENCODING 218
SWIDTH 716 0
DWIDTH 26 0
BBX 29 36 -1 0
BITMAP
000000000000000000006887000000
00000000000000000003FFF7000000
0000000000000000000AFFB0000000
0000000000000000003FFE20000000
000000000000000000AFF600000000
000000000000000003FFB000000000
00000000000000000AFE2000000000
000000000000000000000000000000
000000000000000000000000000000
00000000048BDEFC1000000EFFFF20
00000018DFFFFFFD0000003FFFFE00
000006EFFABFFFF90000006FFFFA00
0001BFFA20BFFFF50000009FFFF700
001CFF8001FFFFF1000000CFFFF400
00BFFA0004FFFFC0000001FFFFF100
05FFF20008FFFF70000004FFFFD000
0CFFA0000CFFFF30000007FFFF9000
1FFF60001FFFFE0000000AFFFF6000
2FFF40005FFFFA0000000DFFFF3000
1FFF30008FFFF60000001FFFFE0000
0BFF3000CFFFF20000005FFFFB0000
018D6001FFFFD00000008FFFF80000
00000005FFFF90000000CFFFF50000
00000008FFFF60000001FFFFF10000
0000000CFFFF20000004FFFFC00000
0000000FFFFD00000008FFFF800000
0000003FFFFA0000000CFFFF400000
0000005FFFF80000001FFFFE000000
0000007FFFF60000006FFFF9000000
0000008FFFF5000000CFFFF3000000
0000009FFFF6000003FFFFB0000000
0000008FFFF900000CFFFF30000000
0000004FFFFE5114CFFFF700000000
0000000DFFFFFFFFFFFF9000000000
00000002DFFFFFFFFFE60000000000
0000000016BDEFEDA6100000000000
ENDCHAR
STARTCHAR Ucircumflex
ENCODING 219
SWIDTH 716 0
DWIDTH 26 0
BBX 29 36 -1 0
BITMAP
000000000000000000000630000000
00000000000000000000AF90000000
0000000000000000001BFFE0000000
000000000000000002DFFFF4000000
00000000000000004EFE9BF9000000
0000000000000006FE8101DE000000
000000000000008E8100002E400000
000000000000000000000000000000
000000000000000000000000000000
00000000048BDEFC1000000EFFFF20
00000018DFFFFFFD0000003FFFFE00
000006EFFABFFFF90000006FFFFA00
0001BFFA20BFFFF50000009FFFF700
001CFF8001FFFFF1000000CFFFF400
00BFFA0004FFFFC0000001FFFFF100
05FFF20008FFFF70000004FFFFD000
0CFFA0000CFFFF30000007FFFF9000
1FFF60001FFFFE0000000AFFFF6000
2FFF40005FFFFA0000000DFFFF3000
1FFF30008FFFF60000001FFFFE0000
0BFF3000CFFFF20000005FFFFB0000
018D6001FFFFD00000008FFFF80000
00000005FFFF90000000CFFFF50000
00000008FFFF60000001FFFFF10000
0000000CFFFF20000004FFFFC00000
0000000FFFFD00000008FFFF800000
0000003FFFFA0000000CFFFF400000
0000005FFFF80000001FFFFE000000
0000007FFFF60000006FFFF9000000
0000008FFFF5000000CFFFF3000000
0000009FFFF6000003FFFFB0000000
0000008FFFF900000CFFFF30000000
0000004FFFFE5114CFFFF700000000
0000000DFFFFFFFFFFFF9000000000
00000002DFFFFFFFFFE60000000000
0000000016BDEFEDA6100000000000
ENDCHAR
STARTCHAR Udieresis
ENCODING 220
SWIDTH 716 0
DWIDTH 26 0
BBX 29 34 -1 0
BITMAP
0000000000000008ED4003CE900000
000000000000004FFFD00CFFF50000
000000000000004FFFD00CFFF60000
0000000000000009ED4003DE900000
000000000000000000000000000000
000000000000000000000000000000
000000000000000000000000000000
00000000048BDEFC1000000EFFFF20
00000018DFFFFFFD0000003FFFFE00
000006EFFABFFFF90000006FFFFA00
0001BFFA20BFFFF50000009FFFF700
001CFF8001FFFFF1000000CFFFF400
00BFFA0004FFFFC0000001FFFFF100
05FFF20008FFFF70000004FFFFD000
0CFFA0000CFFFF30000007FFFF9000
1FFF60001FFFFE0000000AFFFF6000
2FFF40005FFFFA0000000DFFFF3000
1FFF30008FFFF60000001FFFFE0000
0BFF3000CFFFF20000005FFFFB0000
018D6001FFFFD00000008FFFF80000
00000005FFFF90000000CFFFF50000
00000008FFFF60000001FFFFF10000
0000000CFFFF20000004FFFFC00000
0000000FFFFD00000008FFFF800000
0000003FFFFA0000000CFFFF400000
0000005FFFF80000001FFFFE000000
0000007FFFF60000006FFFF9000000
0000008FFFF5000000CFFFF3000000
0000009FFFF6000003FFFFB0000000
0000008FFFF900000CFFFF30000000
0000004FFFFE5114CFFFF700000000
0000000DFFFFFFFFFFFF9000000000
00000002DFFFFFFFFFE60000000000
0000000016BDEFEDA6100000000000
ENDCHAR
STARTCHAR Yacute
ENCODING 221
SWIDTH 620 0
DWIDTH 22 0
BBX 25 36 0 0
BITMAP
00000000000000000000188850
000000000000000000007FFF20
00000000000000000001EFF800
00000000000000000006FFD000
0000000000000000000DFF4000
0000000000000000005FFA0000
000000000000000000CFE10000
00000000000000000188400000
00000000000000000000000000
0000000048BEFF600000007FD0
0000006DFFFFFFA0000000DF70
00004DFFAFFFFFD0000004FE10
0007FFC30CFFFFF200000AF900
008FFB1008FFFFF600002FF200
05FFE10004FFFFF900008FA000
1EFF600001FFFFFD0000EF4000
7FFE100000CFFFFF1005FC0000
AFFB0000008FFFFF500BF60000
BFF90000004FFFFF902FE00000
AFF90000001FFFFFC08F700000
4FFA0000000BFFFFF2EF100000
039A00000007FFFFFAF9000000
000000000004FFFFFFF3000000
000000000000EFFFFFB0000000
000000000000BFFFFF40000000
000000000000BFFFFF00000000
000000000000EFFFFC00000000
000000000002FFFFF900000000
000000000006FFFFF500000000
000000000009FFFFF200000000
00000000000CFFFFE000000000
00000000001FFFFFB000000000
00000000004FFFFF8000000000
00000000007FFFFF4000000000
0000000000AFFFFF1000000000
0000000000DFFFFD0000000000
ENDCHAR
STARTCHAR Thorn
ENCODING 222
SWIDTH 583 0
DWIDTH 21 0
BBX 22 27 0 0
BITMAP
000000000579BD30000000
000000002FFFFF00000000
000000006FFFFC00000000
000000009FFFF900000000
00000000CFFFFFEC930000
0000004BFFFFFFFFFF9000
00002BFFFFFFF46CFFFA00
0004EFFCFFFFD000BFFF60
005FFE48FFFFA0002FFFD0
03EFF50BFFFF60000CFFF2
0CFF900EFFFF30000AFFF4
5FFF203FFFFF00000AFFF5
9FFD006FFFFC00000CFFF3
BFFA00AFFFF900001EFFF1
BFF900DFFFF500005FFFA0
7FF901FFFFF20000BFFF40
1BFB04FFFFE00004FFFA00
003508FFFFB0001DFFD100
00000BFFFF8001CFFD2000
00000EFFFF416DFF910000
00003FFFFFFFFD93000000
00006FFFFD321000000000
00009FFFF9000000000000
0000DFFFF6000000000000
0001FFFFF2000000000000
0004FFFFE0000000000000
0008FFFFA0000000000000
ENDCHAR
STARTCHAR germandbls
ENCODING 223
SWIDTH 480 0
DWIDTH 17 0
BBX 19 34 -3 -9
BITMAP
00000000005ADFDA4000
000000001AFFFFFFF600
00000000BFFFB39FFE00
00000008FFFE101FFF10
0000002FFFFA001FFF00
0000008FFFF5003FFC00
000000EFFFF1007FF700
000004FFFFC000BFF100
000008FFFF9002FF8000
00000CFFFF5008FE1000
00001FFFFF201EF40000
00004FFFFE008FD00000
00007FFFFB01EFFB1000
0000BFFFF7002EFFB000
0000EFFFF40007FFF600
0002FFFFF10001FFFE10
0005FFFFC00000CFFF50
0009FFFF900000AFFF90
000CFFFF600000AFFFB0
000FFFFF300000BFFFA0
003FFFFE000001EFFF70
007FFFFB000007FFFF20
00AFFFF81B537FFFF700
00DFFFF52FFFFFFF7000
01FFFFF107DFEC820000
05FFFFD0000000000000
08FFFFA0000000000000
0BFFFF60000000000000
0EFFFF30000000000000
3FFFFF00000000000000
6FFFFC00000000000000
9FFFF800000000000000
CFFC9200000000000000
74100000000000000000
ENDCHAR
STARTCHAR agrave
ENCODING 224
SWIDTH 526 0
DWIDTH 19 0
BBX 22 27 -1 0
BITMAP
000000001FFFA000000000
000000000CFFC000000000
0000000007FFE000000000
0000000002FFF100000000
0000000000DFF300000000
00000000008FF600000000
00000000004FF800000000
0000000000000000000000
0000000000000000000000
00000039DFEA2FFFFF3000
000009FFFFFFCFFFFE0000
0000AFFFFA45EFFFFB0000
0008FFFF9000AFFFF80000
004FFFFE1000CFFFF50000
00CFFFF60001FFFFF20000
04FFFFE10003FFFFE00000
09FFFFA00007FFFFB00000
0EFFFF60000AFFFF700000
2FFFFF20000DFFFF400000
5FFFFF00001FFFFF100000
6FFFFE00004FFFFD000152
7FFFFD00009FFFFA0006F2
6FFFFE0002EFFFF9000DA0
3FFFFF714DFFFFFD22AF20
0DFFFFFFFF6FFFFFFFF600
03EFFFFFE40BFFFFFE6000
002AEFD810019EFD820000
ENDCHAR
STARTCHAR aacute
ENCODING 225
SWIDTH 526 0
DWIDTH 19 0
BBX 22 27 -1 0
BITMAP
0000000000002FFF800000
0000000000009FFD100000
000000000002FFF5000000
000000000008FFA0000000
00000000001EFE20000000
00000000008FF600000000
0000000001DEB000000000
0000000000000000000000
0000000000000000000000
00000039DFEA2FFFFF3000
000009FFFFFFCFFFFE0000
0000AFFFFA45EFFFFB0000
0008FFFF9000AFFFF80000
004FFFFE1000CFFFF50000
00CFFFF60001FFFFF20000
04FFFFE10003FFFFE00000
09FFFFA00007FFFFB00000
0EFFFF60000AFFFF700000
2FFFFF20000DFFFF400000
5FFFFF00001FFFFF100000
6FFFFE00004FFFFD000152
7FFFFD00009FFFFA0006F2
6FFFFE0002EFFFF9000DA0
3FFFFF714DFFFFFD22AF20
0DFFFFFFFF6FFFFFFFF600
03EFFFFFE40BFFFFFE6000
002AEFD810019EFD820000
ENDCHAR
STARTCHAR acircumflex
ENCODING 226
SWIDTH 526 0
DWIDTH 19 0
BBX 22 27 -1 0
BITMAP
00000000000005F2000000
0000000000006FF7000000
000000000007FFFC000000
00000000009FFFFF100000
000000000AFFB4CF600000
00000001BFB4002EB00000
0000001BC4000005E10000
0000000000000000000000
0000000000000000000000
00000039DFEA2FFFFF3000
000009FFFFFFCFFFFE0000
0000AFFFFA45EFFFFB0000
0008FFFF9000AFFFF80000
004FFFFE1000CFFFF50000
00CFFFF60001FFFFF20000
04FFFFE10003FFFFE00000
09FFFFA00007FFFFB00000
0EFFFF60000AFFFF700000
2FFFFF20000DFFFF400000
5FFFFF00001FFFFF100000
6FFFFE00004FFFFD000152
7FFFFD00009FFFFA0006F2
6FFFFE0002EFFFF9000DA0
3FFFFF714DFFFFFD22AF20
0DFFFFFFFF6FFFFFFFF600
03EFFFFFE40BFFFFFE6000
002AEFD810019EFD820000
ENDCHAR
STARTCHAR atilde
ENCODING 227
SWIDTH 526 0
DWIDTH 19 0
BBX 22 25 -1 0
BITMAP
0000000004675200000000
00000005DFFFFFB5204600
0000007FFFFFFFFFFFC100
000003C88AEFFFFFE80000
0000010000025775100000
0000000000000000000000
0000000000000000000000
00000039DFEA2FFFFF3000
000009FFFFFFCFFFFE0000
0000AFFFFA45EFFFFB0000
0008FFFF9000AFFFF80000
004FFFFE1000CFFFF50000
00CFFFF60001FFFFF20000
04FFFFE10003FFFFE00000
09FFFFA00007FFFFB00000
0EFFFF60000AFFFF700000
2FFFFF20000DFFFF400000
5FFFFF00001FFFFF100000
6FFFFE00004FFFFD000152
7FFFFD00009FFFFA0006F2
6FFFFE0002EFFFF9000DA0
3FFFFF714DFFFFFD22AF20
0DFFFFFFFF6FFFFFFFF600
03EFFFFFE40BFFFFFE6000
002AEFD810019EFD820000
ENDCHAR
STARTCHAR adieresis
ENCODING 228
SWIDTH 526 0
DWIDTH 19 0
BBX 22 25 -1 0
BITMAP
00000000AEC2004DE80000
00000006FFFB00EFFF4000
00000006FFFB00EFFF4000
00000000AEC3005DE80000
0000000000000000000000
0000000000000000000000
0000000000000000000000
00000039DFEA2FFFFF3000
000009FFFFFFCFFFFE0000
0000AFFFFA45EFFFFB0000
0008FFFF9000AFFFF80000
004FFFFE1000CFFFF50000
00CFFFF60001FFFFF20000
04FFFFE10003FFFFE00000
09FFFFA00007FFFFB00000
0EFFFF60000AFFFF700000
2FFFFF20000DFFFF400000
5FFFFF00001FFFFF100000
6FFFFE00004FFFFD000152
7FFFFD00009FFFFA0006F2
6FFFFE0002EFFFF9000DA0
3FFFFF714DFFFFFD22AF20
0DFFFFFFFF6FFFFFFFF600
03EFFFFFE40BFFFFFE6000
002AEFD810019EFD820000
ENDCHAR
STARTCHAR aring
ENCODING 229
SWIDTH 526 0
DWIDTH 19 0
BBX 22 25 -1 0
BITMAP
00000000004CEC30000000
0000000003F618D0000000
0000000008E004F0000000
0000000006F21AC0000000
00000000009EEA20000000
0000000000000000000000
0000000000000000000000
00000039DFEA2FFFFF3000
000009FFFFFFCFFFFE0000
0000AFFFFA45EFFFFB0000
0008FFFF9000AFFFF80000
004FFFFE1000CFFFF50000
00CFFFF60001FFFFF20000
04FFFFE10003FFFFE00000
09FFFFA00007FFFFB00000
0EFFFF60000AFFFF700000
2FFFFF20000DFFFF400000
5FFFFF00001FFFFF100000
6FFFFE00004FFFFD000152
7FFFFD00009FFFFA0006F2
6FFFFE0002EFFFF9000DA0
3FFFFF714DFFFFFD22AF20
0DFFFFFFFF6FFFFFFFF600
03EFFFFFE40BFFFFFE6000
002AEFD810019EFD820000
ENDCHAR
STARTCHAR ae
ENCODING 230
SWIDTH 650 0
DWIDTH 23 0
BBX 26 18 -1 0
BITMAP
0000003ADFFDA40039DFEC5000
000019FFFFFFFF98FFFFFFF300
0001CFB534AFFFFFFFD55FF900
00008500000EFFFFFE200FFB00
00000000000BFFFFF7002FFA00
00000000000CFFFFE1007FF700
00000000000EFFFF8002EFE100
00000002225FFFFF302DFF6000
00028DFFFFFFFFFE48EFF80000
008FFFFFFFFFFFFFFFFE500000
07FFFFF831CFFFFFEB71000000
0EFFFF5001FFFFF70000000011
3FFFFD0004FFFFF700000004E3
4FFFFD000AFFFFF90000006F60
3FFFFF517FFFFFFE30015BF800
0EFFFFFFFE7FFFFFFEEFFF7000
06FFFFFFE40AFFFFFFFFC30000
004BDFD920005BDFEC94000000
ENDCHAR
STARTCHAR ccedilla
ENCODING 231
SWIDTH 384 0
DWIDTH 14 0
BBX 16 26 -1 -8
BITMAP
00000028CEFD9100
000008FFFFFFFA00
0000AFFFF83DFF10
0008FFFF9008FF30
003FFFFE100AFE10
00CFFFF7000AE600
03FFFFF100000000
09FFFFA000000000
0DFFFF6000000000
2FFFFF3000000000
4FFFFF0000000000
6FFFFE0000000026
7FFFFD00000003E6
6FFFFF1000006EA0
3FFFFFA2025BFC10
0CFFFFFFFFFFC100
03EFFFFFFFF80000
0018CEFFF9200000
0000001E90000000
0000005F30000000
000000AFBED60000
000001EFFFFE0000
000001204FFD0000
00006A614FF60000
00007DFFFC500000
0000001210000000
ENDCHAR
STARTCHAR egrave
ENCODING 232
SWIDTH 384 0
DWIDTH 14 0
BBX 16 27 -1 0
BITMAP
0000002FFF800000
0000000DFFA00000
00000008FFD00000
00000004FFF00000
00000000EFF20000
00000000AFF40000
000000005FF70000
0000000000000000
0000000000000000
00000028CEED8100
000008FFFFFFFA00
0000AFFFF83CFF10
0008FFFF8009FF30
004FFFFD000BFF20
00CFFFF6001FFD00
04FFFFE000AFF700
09FFFF9008FFC000
0DFFFF76CFFD1000
2FFFFFFFFF910000
4FFFFFFD93000000
6FFFFE0000000013
7FFFFD00000002D8
6FFFFF0000004DC0
3FFFFF91014AFC10
0CFFFFFFFFFFB100
03EFFFFFFFE70000
0018CEFEB6100000
ENDCHAR
STARTCHAR eacute
ENCODING 233
SWIDTH 384 0
DWIDTH 14 0
BBX 16 27 -1 0
BITMAP
000000000000EFFB
000000000006FFF3
00000000000DFF80
00000000005FFD10
0000000000CFF500
0000000004FFB000
000000000BFE2000
0000000001110000
0000000000000000
00000028CEED8100
000008FFFFFFFA00
0000AFFFF83CFF10
0008FFFF8009FF30
004FFFFD000BFF20
00CFFFF6001FFD00
04FFFFE000AFF700
09FFFF9008FFC000
0DFFFF76CFFD1000
2FFFFFFFFF910000
4FFFFFFD93000000
6FFFFE0000000013
7FFFFD00000002D8
6FFFFF0000004DC0
3FFFFF91014AFC10
0CFFFFFFFFFFB100
03EFFFFFFFE70000
0018CEFEB6100000
ENDCHAR
STARTCHAR ecircumflex
ENCODING 234
SWIDTH 384 0
DWIDTH 14 0
BBX 16 27 -1 0
BITMAP
000000000003E500
00000000004EF900
0000000005FFFE00
000000006FFFFF40
00000007FFD6BF80
0000008FE7001ED0
000009E7100004F2
0000010000000010
0000000000000000
00000028CEED8100
000008FFFFFFFA00
0000AFFFF83CFF10
0008FFFF8009FF30
004FFFFD000BFF20
00CFFFF6001FFD00
04FFFFE000AFF700
09FFFF9008FFC000
0DFFFF76CFFD1000
2FFFFFFFFF910000
4FFFFFFD93000000
6FFFFE0000000013
7FFFFD00000002D8
6FFFFF0000004DC0
3FFFFF91014AFC10
0CFFFFFFFFFFB100
03EFFFFFFFE70000
0018CEFEB6100000
ENDCHAR
STARTCHAR edieresis
ENCODING 235
SWIDTH 384 0
DWIDTH 14 0
BBX 17 25 -1 0
BITMAP
000001BEB1006ED500
000009FFF802FFFF10
000009FFF802FFFF10
000002BEB1007EE500
000000000000000000
000000000000000000
000000000000000000
00000028CEED810000
000008FFFFFFFA0000
0000AFFFF83CFF1000
0008FFFF8009FF3000
004FFFFD000BFF2000
00CFFFF6001FFD0000
04FFFFE000AFF70000
09FFFF9008FFC00000
0DFFFF76CFFD100000
2FFFFFFFFF91000000
4FFFFFFD9300000000
6FFFFE000000001300
7FFFFD00000002D800
6FFFFF0000004DC000
3FFFFF91014AFC1000
0CFFFFFFFFFFB10000
03EFFFFFFFE7000000
0018CEFEB610000000
ENDCHAR
STARTCHAR igrave
ENCODING 236
SWIDTH 267 0
DWIDTH 10 0
BBX 12 27 -1 0
BITMAP
000DFFD00000
0008FFF00000
0003FFF30000
0000EFF50000
00009FF70000
00005FF90000
00001FFC0000
000000000000
000000000000
000AFFFF8000
000DFFFF5000
001FFFFF1000
004FFFFD0000
008FFFFA0000
00BFFFF70000
00EFFFF40000
02FFFFF10000
06FFFFC00000
09FFFF900000
0CFFFF600000
0FFFFF300048
3FFFFF0000DA
4FFFFE0009F4
3FFFFFA8CFA0
1FFFFFFFFD10
08FFFFFFB100
007DFEA40000
ENDCHAR
STARTCHAR iacute
ENCODING 237
SWIDTH 267 0
DWIDTH 10 0
BBX 12 27 -1 0
BITMAP
00000001EFFB
00000007FFE2
0000000EFF70
0000006FFC00
000000DFF300
000006FF8000
00000ACB1000
000000000000
000000000000
000AFFFF8000
000DFFFF5000
001FFFFF1000
004FFFFD0000
008FFFFA0000
00BFFFF70000
00EFFFF40000
02FFFFF10000
06FFFFC00000
09FFFF900000
0CFFFF600000
0FFFFF300048
3FFFFF0000DA
4FFFFE0009F4
3FFFFFA8CFA0
1FFFFFFFFD10
08FFFFFFB100
007DFEA40000
ENDCHAR
STARTCHAR icircumflex
ENCODING 238
SWIDTH 267 0
DWIDTH 10 0
BBX 12 27 -1 0
BITMAP
00000001C900
0000002DFD00
000003EFFF30
00004EFFFF80
0006FFC55FD0
007FD50008F2
06C6000000A5
000000000000
000000000000
000AFFFF8000
000DFFFF5000
001FFFFF1000
004FFFFD0000
008FFFFA0000
00BFFFF70000
00EFFFF40000
02FFFFF10000
06FFFFC00000
09FFFF900000
0CFFFF600000
0FFFFF300048
3FFFFF0000DA
4FFFFE0009F4
3FFFFFA8CFA0
1FFFFFFFFD10
08FFFFFFB100
007DFEA40000
ENDCHAR
STARTCHAR idieresis
ENCODING 239
SWIDTH 267 0
DWIDTH 10 0
BBX 13 25 -1 0
BITMAP
008ED4007ED500
04FFFD02FFFE10
04FFFD02FFFF10
009ED4007ED500
00000000000000
00000000000000
00000000000000
000AFFFF800000
000DFFFF500000
001FFFFF100000
004FFFFD000000
008FFFFA000000
00BFFFF7000000
00EFFFF4000000
02FFFFF1000000
06FFFFC0000000
09FFFF90000000
0CFFFF60000000
0FFFFF30004800
3FFFFF0000DA00
4FFFFE0009F400
3FFFFFA8CFA000
1FFFFFFFFD1000
08FFFFFFB10000
007DFEA4000000
ENDCHAR
STARTCHAR eth
ENCODING 240
SWIDTH 526 0
DWIDTH 19 0
BBX 22 27 -1 0
BITMAP
0000000000003820000000
00000000001CFFD2000000
000000000008FFFB37BF30
000000000001DFFFFFFF60
00000000038CFFFFFA5100
00000000BFFFEFFFF40000
000000008B730FFFF80000
0000000000000EFFFB0000
0000000000000EFFFD0000
00000039DFEA2FFFFE0000
000009FFFFFFCFFFFD0000
0000AFFFFA45EFFFFC0000
0008FFFF9000AFFFF90000
004FFFFE1000CFFFF60000
00CFFFF60001FFFFF30000
04FFFFE10004FFFFF00000
09FFFFA00007FFFFC00000
0EFFFF60000AFFFF800000
2FFFFF20000DFFFF500000
5FFFFF00001FFFFF200000
6FFFFE00005FFFFE000031
7FFFFD00009FFFFB0005F3
6FFFFE0002EFFFF9000CB0
3FFFFF714DFFFFFC12AF30
0DFFFFFFFF8FFFFFFFF700
03EFFFFFE60CFFFFFF7000
002AEFD920019EFD930000
ENDCHAR
STARTCHAR ntilde
ENCODING 241
SWIDTH 505 0
DWIDTH 18 0
BBX 22 24 -2 0
BITMAP
000000017CEFDA73114400
0000004EFFFFFFFFFFD100
000003C89DFFFFFFFC2000
000003000038CEEB600000
0000000000000000000000
0000000000000000000000
0000AFFFF83ADFD8100000
0000DFFFFBFFFFFFB00000
0001FFFFFFFFFFFFF30000
0004FFFFFC22EFFFF60000
0008FFFFE200AFFFF60000
000BFFFF9000AFFFF40000
000EFFFF4000DFFFF20000
002FFFFF1001FFFFE00000
005FFFFC0004FFFFB00000
009FFFF90007FFFF700000
00CFFFF6000BFFFF400000
00FFFFF3000EFFFF100032
03FFFFE0001FFFFC0002F6
06FFFFB0003FFFFB000AE1
0AFFFF80003FFFFE218F70
0DFFFF50000EFFFFFFFC00
1FFFFF200007FFFFFFC100
4FFFFE0000006CFEC60000
ENDCHAR
STARTCHAR ograve
ENCODING 242
SWIDTH 433 0
DWIDTH 16 0
BBX 21 27 -1 0
BITMAP
00000006FFF40000000000
00000002FFF70000000000
00000000CFF90000000000
000000008FFB0000000000
000000003FFD0000000000
000000000DFF1000000000
0000000009FF3000000000
0000000000000000000000
0000000000000000000000
00000039DEFC7000000000
000019FFFFFFF900000000
0001CFFFF73BFF30000000
000AFFFF6005FF80000020
006FFFFC0009FFA0002AD0
01EFFFF4003FFFC46BFB20
07FFFFD0004FFFFFFB4000
0CFFFF70000AFFC4100000
1FFFFF300008FF70000000
5FFFFE00000BFF40000000
8FFFFC00001EFF10000000
9FFFFA00005FFB00000000
BFFFFA0000CFF600000000
AFFFFB0006FFD000000000
7FFFFF416FFF4000000000
1EFFFFFFFFF70000000000
05FFFFFFFE600000000000
0029DFFC82000000000000
ENDCHAR
STARTCHAR oacute
ENCODING 243
SWIDTH 439 0
DWIDTH 16 0
BBX 22 27 -1 0
BITMAP
000000000000DFFC000000
000000000005FFF4000000
00000000000CFF90000000
00000000004FFE10000000
0000000000BFF600000000
0000000003FFB000000000
000000000AFF3000000000
0000000001110000000000
0000000000000000000000
00000028CEFD8100000000
000007FFFFFFFC00000000
00009FFFF938FF60000000
0007FFFF9001FFB0000020
003FFFFE1006FFD00018E1
00CFFFF7000FFFE46AED30
03FFFFF1001FFFFFFC6000
09FFFFB00007FFE5200000
0DFFFF600004FFA0000000
2FFFFF300007FF80000000
5FFFFF00000CFF50000000
6FFFFE00002FFE00000000
7FFFFD00009FF900000000
6FFFFE0003FFF200000000
3FFFFF714EFF7000000000
0CFFFFFFFFFA0000000000
03EFFFFFFF800000000000
0018CEFD93000000000000
ENDCHAR
STARTCHAR ocircumflex
ENCODING 244
SWIDTH 433 0
DWIDTH 16 0
BBX 21 27 -1 0
BITMAP
000000000007E000000000
00000000008FF400000000
0000000009FFF900000000
00000000AFFFFD00000000
0000001BFFB5EF30000000
000001CFC4005F70000000
00002DC4000009C0000000
0000110000000010000000
0000000000000000000000
00000039DEFC7000000000
000019FFFFFFF900000000
0001CFFFF73BFF30000000
000AFFFF6005FF80000020
006FFFFC0009FFA0002AD0
01EFFFF4003FFFC46BFB20
07FFFFD0004FFFFFFB4000
0CFFFF70000AFFC4100000
1FFFFF300008FF70000000
5FFFFE00000BFF40000000
8FFFFC00001EFF10000000
9FFFFA00005FFB00000000
BFFFFA0000CFF600000000
AFFFFB0006FFD000000000
7FFFFF416FFF4000000000
1EFFFFFFFFF70000000000
05FFFFFFFE600000000000
0029DFFC82000000000000
ENDCHAR
STARTCHAR otilde
ENCODING 245
SWIDTH 433 0
DWIDTH 16 0
BBX 21 24 -1 0
BITMAP
000017BEFEB84103600000
0004DFFFFFFFFFFE300000
002B98ADFFFFFFA1000000
0010000025775100000000
0000000000000000000000
0000000000000000000000
00000039DEFC7000000000
000019FFFFFFF900000000
0001CFFFF73BFF30000000
000AFFFF6005FF80000020
006FFFFC0009FFA0002AD0
01EFFFF4003FFFC46BFB20
07FFFFD0004FFFFFFB4000
0CFFFF70000AFFC4100000
1FFFFF300008FF70000000
5FFFFE00000BFF40000000
8FFFFC00001EFF10000000
9FFFFA00005FFB00000000
BFFFFA0000CFF600000000
AFFFFB0006FFD000000000
7FFFFF416FFF4000000000
1EFFFFFFFFF70000000000
05FFFFFFFE600000000000
0029DFFC82000000000000
ENDCHAR
STARTCHAR odieresis
ENCODING 246
SWIDTH 433 0
DWIDTH 16 0
BBX 21 25 -1 0
BITMAP
000006ED5002BEB1000000
00002FFFF109FFF8000000
00002FFFF109FFF8000000
000007EE6002CEB1000000
0000000000000000000000
0000000000000000000000
0000000000000000000000
00000039DEFC7000000000
000019FFFFFFF900000000
0001CFFFF73BFF30000000
000AFFFF6005FF80000020
006FFFFC0009FFA0002AD0
01EFFFF4003FFFC46BFB20
07FFFFD0004FFFFFFB4000
0CFFFF70000AFFC4100000
1FFFFF300008FF70000000
5FFFFE00000BFF40000000
8FFFFC00001EFF10000000
9FFFFA00005FFB00000000
BFFFFA0000CFF600000000
AFFFFB0006FFD000000000
7FFFFF416FFF4000000000
1EFFFFFFFFF70000000000
05FFFFFFFE600000000000
0029DFFC82000000000000
ENDCHAR
STARTCHAR divide
ENCODING 247
SWIDTH 415 0
DWIDTH 15 0
BBX 14 18 1 3
BITMAP
0000005DE91000
000003FFFFA000
000008FFFFF000
000008FFFFF000
000003FFFFA000
0000005DEA1000
00000000000000
1DDDDDDDDDDDD7
4FFFFFFFFFFFF5
7FFFFFFFFFFFF2
00000000000000
00000000000000
00007DE8000000
0005FFFF700000
000AFFFFD00000
000AFFFFD00000
0005FFFF800000
00007DE8000000
ENDCHAR
STARTCHAR oslash
ENCODING 248
SWIDTH 428 0
DWIDTH 15 0
BBX 20 20 -3 -2
BITMAP
0000000017BEFD8007FA
00000006EFFFFFFB3FB0
0000008FFFFA49FFED10
000008FFFFA001FFE200
00004FFFFE1000EFE000
0000DFFFF70009FFF000
0005FFFFF1007FFFF000
000BFFFFA005FDFFE000
001FFFFF604FD6FFC000
004FFFFF23EE38FF9000
006FFFFF2DF40DFF5000
007FFFFECF504FFE0000
007FFFFFF700CFF80000
005FFFFF9007FFE10000
002FFFFF717FFF500000
000CFFFFFFFFF7000000
0007FFFFFFFE50000000
005FC9DFEC7100000000
04FD1000000000000000
3EE20000000000000000
ENDCHAR
STARTCHAR ugrave
ENCODING 249
SWIDTH 505 0
DWIDTH 18 0
BBX 21 27 -1 0
BITMAP
00000003FFF80000000000
00000000DFFA0000000000
000000009FFC0000000000
000000004FFE0000000000
000000000EFF2000000000
000000000AFF4000000000
0000000006FF6000000000
0000000000000000000000
0000000000000000000000
000AFFFF8000BFFFF60000
000DFFFF5000EFFFF30000
001FFFFF1003FFFFF00000
004FFFFD0006FFFFC00000
008FFFFA0009FFFF800000
00BFFFF7000DFFFF500000
00EFFFF4001FFFFF200000
02FFFFF1004FFFFE000000
06FFFFC0007FFFFB000000
09FFFF9000AFFFF7000000
0CFFFF6000EFFFF4000000
0FFFFF3002FFFFF1000850
3FFFFF0008FFFFD0004F40
4FFFFF003FFFFFD001DC00
3FFFFFA8EEFFFFF98DF400
1FFFFFFFF4DFFFFFFF8000
08FFFFFF607FFFFFF80000
007DFD930007DFD9300000
ENDCHAR
STARTCHAR uacute
ENCODING 250
SWIDTH 505 0
DWIDTH 18 0
BBX 21 27 -1 0
BITMAP
0000000000005FFF500000
000000000000DFFA000000
000000000005FFE2000000
00000000000CFF60000000
00000000004FFC00000000
0000000000BFF200000000
0000000002CC7000000000
0000000000000000000000
0000000000000000000000
000AFFFF8000BFFFF60000
000DFFFF5000EFFFF30000
001FFFFF1003FFFFF00000
004FFFFD0006FFFFC00000
008FFFFA0009FFFF800000
00BFFFF7000DFFFF500000
00EFFFF4001FFFFF200000
02FFFFF1004FFFFE000000
06FFFFC0007FFFFB000000
09FFFF9000AFFFF7000000
0CFFFF6000EFFFF4000000
0FFFFF3002FFFFF1000850
3FFFFF0008FFFFD0004F40
4FFFFF003FFFFFD001DC00
3FFFFFA8EEFFFFF98DF400
1FFFFFFFF4DFFFFFFF8000
08FFFFFF607FFFFFF80000
007DFD930007DFD9300000
ENDCHAR
STARTCHAR ucircumflex
ENCODING 251
SWIDTH 505 0
DWIDTH 18 0
BBX 21 27 -1 0
BITMAP
0000000000006F10000000
000000000008FF60000000
00000000009FFFB0000000
000000001BFFFFF1000000
00000001CFF92CF5000000
0000002DF92002EA000000
000001B92000005B000000
0000000000000000000000
0000000000000000000000
000AFFFF8000BFFFF60000
000DFFFF5000EFFFF30000
001FFFFF1003FFFFF00000
004FFFFD0006FFFFC00000
008FFFFA0009FFFF800000
00BFFFF7000DFFFF500000
00EFFFF4001FFFFF200000
02FFFFF1004FFFFE000000
06FFFFC0007FFFFB000000
09FFFF9000AFFFF7000000
0CFFFF6000EFFFF4000000
0FFFFF3002FFFFF1000850
3FFFFF0008FFFFD0004F40
4FFFFF003FFFFFD001DC00
3FFFFFA8EEFFFFF98DF400
1FFFFFFFF4DFFFFFFF8000
08FFFFFF607FFFFFF80000
007DFD930007DFD9300000
ENDCHAR
STARTCHAR udieresis
ENCODING 252
SWIDTH 505 0
DWIDTH 18 0
BBX 21 25 -1 0
BITMAP
0000005DE7001AEB200000
000000EFFF208FFFA00000
000000FFFF208FFFA00000
0000005DE7001BEC200000
0000000000000000000000
0000000000000000000000
0000000000000000000000
000AFFFF8000BFFFF60000
000DFFFF5000EFFFF30000
001FFFFF1003FFFFF00000
004FFFFD0006FFFFC00000
008FFFFA0009FFFF800000
00BFFFF7000DFFFF500000
00EFFFF4001FFFFF200000
02FFFFF1004FFFFE000000
06FFFFC0007FFFFB000000
09FFFF9000AFFFF7000000
0CFFFF6000EFFFF4000000
0FFFFF3002FFFFF1000850
3FFFFF0008FFFFD0004F40
4FFFFF003FFFFFD001DC00
3FFFFFA8EEFFFFF98DF400
1FFFFFFFF4DFFFFFFF8000
08FFFFFF607FFFFFF80000
007DFD930007DFD9300000
ENDCHAR
STARTCHAR yacute
ENCODING 253
SWIDTH 505 0
DWIDTH 18 0
BBX 20 36 -1 -9
BITMAP
0000000000006FFF5000
000000000000DFFA0000
000000000005FFE10000
00000000000DFF600000
00000000005FFB000000
0000000000CFE2000000
0000000003CC60000000
00000000000000000000
00000000000000000000
000AFFFF8000CFFFF600
000DFFFF5000EFFFF300
001FFFFF1003FFFFF000
004FFFFD0006FFFFC000
008FFFFA000AFFFF8000
00BFFFF7000DFFFF5000
00EFFFF4001FFFFF2000
02FFFFF1004FFFFE0000
06FFFFC0008FFFFA0000
09FFFF9000BFFFF70000
0CFFFF6000EFFFF40000
0FFFFF3003FFFFF10058
3FFFFF0008FFFFC000DA
4FFFFF003FFFFF9006F3
3FFFFFA8EFFFFF602EA0
1FFFFFFFFFFFFF33DD10
08FFFFFF9FFFFFBFC200
007DFEA37FFFFFD70000
00000039EFFFF9000000
00002AFFFFFFF6000000
0003EF92FFFFF2000000
001DF504FFFFE0000000
004FA009FFFFA0000000
006FB03FFFFF30000000
004FFDEFFFFA00000000
000CFFFFFFB100000000
00017DFEB50000000000
ENDCHAR
STARTCHAR thorn
ENCODING 254
SWIDTH 473 0
DWIDTH 17 0
BBX 20 36 -4 -9
BITMAP
00000000135795000000
00000000DFFFF4000000
00000001FFFFF1000000
00000004FFFFC0000000
00000008FFFF90000000
0000000BFFFF50000000
0000000EFFFF20000000
0000003FFFFD00000000
0000006FFFFA00000000
0000009FFFF65BEFE910
000000CFFFFDFFFFFFD0
000001FFFFFD54CFFFF6
000004FFFFE2004FFFFB
000007FFFF90001FFFFD
00000AFFFF60000FFFFE
00000EFFFF30001FFFFE
00002FFFFF00002FFFFD
00005FFFFC00004FFFFB
00008FFFF900008FFFF9
0000CFFFF50000CFFFF5
0000FFFFF20002FFFFE1
0003FFFFE00009FFFF90
0006FFFFB0003FFFFE20
000AFFFF8001CFFFF600
000DFFFFC45CFFFF9000
001FFFFFFFFFFFF70000
004FFFFD4CEFD9200000
008FFFFA000000000000
00BFFFF7000000000000
00EFFFF3000000000000
02FFFFF0000000000000
06FFFFC0000000000000
09FFFF90000000000000
0CFFFF50000000000000
1FFFB810000000000000
27300000000000000000
ENDCHAR
STARTCHAR ydieresis
ENCODING 255
SWIDTH 505 0
DWIDTH 18 0
BBX 20 34 -1 -9
BITMAP
000001AEC2005DE70000
000007FFFA00EFFF3000
000007FFFA00EFFF3000
000001AEC2005DE70000
00000000000000000000
00000000000000000000
00000000000000000000
000AFFFF8000CFFFF600
000DFFFF5000EFFFF300
001FFFFF1003FFFFF000
004FFFFD0006FFFFC000
008FFFFA000AFFFF8000
00BFFFF7000DFFFF5000
00EFFFF4001FFFFF2000
02FFFFF1004FFFFE0000
06FFFFC0008FFFFA0000
09FFFF9000BFFFF70000
0CFFFF6000EFFFF40000
0FFFFF3003FFFFF10058
3FFFFF0008FFFFC000DA
4FFFFF003FFFFF9006F3
3FFFFFA8EFFFFF602EA0
1FFFFFFFFFFFFF33DD10
08FFFFFF9FFFFFBFC200
007DFEA37FFFFFD70000
00000039EFFFF9000000
00002AFFFFFFF6000000
0003EF92FFFFF2000000
001DF504FFFFE0000000
004FA009FFFFA0000000
006FB03FFFFF30000000
004FFDEFFFFA00000000
000CFFFFFFB100000000
00017DFEB50000000000
ENDCHAR
STARTCHAR Amacron
ENCODING 256
SWIDTH 668 0
DWIDTH 24 0
BBX 28 37 0 -4
BITMAP
0000000000000000133333333333
00000000000000008FFFFFFFFFFE
0000000000000000CFFFFFFFFFFB
0000000000000000000000000000
0000000000000000000000000000
0000000000000000000000000000
00000000000000000016BEED8000
000000000000000005DFFFFFB000
00000000000000008FFFFFFF7000
000000000000000AFF6DFFFF4000
00000000000000AFF41FFFFF1000
00000000000008FF604FFFFD0000
0000000000005FFA008FFFFA0000
000000000002EFE100BFFFF60000
00000000000CFF6000EFFFF30000
00000000008FFC0002FFFFF00000
0000001223FFF40006FFFFC00000
0006BEFFFFFFE63009FFFF900000
03DFFFFFFFFFFFFE9DFFFF500000
2EFFE732EFFC036AFFFFFF200000
8FFF5007FFF500004FFFFE000000
9FFF701EFFE000006FFFFB000000
3EFF509FFF800000AFFFF8000000
013101FFFF200000DFFFF4000000
000007FFFB000001FFFFF1000000
00000DFFF6000004FFFFD0000000
00005FFFF1000008FFFFA0000000
0000AFFFB000000BFFFF70000000
0001FFFF7000000EFFFF30000000
0005FFFF3000002FFFFF00000000
0009FFFE0000006FFFFC00000000
000CFFFB0000009FFFF900000000
000EFFF9000000CFFFF600000000
000EFFF700000000000000000000
000CFFF600000000000000000000
0005FFF600000000000000000000
00005BE900000000000000000000
ENDCHAR
STARTCHAR amacron
ENCODING 257
SWIDTH 526 0
DWIDTH 19 0
BBX 22 24 -1 0
BITMAP
0000000AFFFFFFFFFFD000
0000000EFFFFFFFFFF9000
0000000333333333331000
0000000000000000000000
0000000000000000000000
0000000000000000000000
00000039DFEA2FFFFF3000
000009FFFFFFCFFFFE0000
0000AFFFFA45EFFFFB0000
0008FFFF9000AFFFF80000
004FFFFE1000CFFFF50000
00CFFFF60001FFFFF20000
04FFFFE10003FFFFE00000
09FFFFA00007FFFFB00000
0EFFFF60000AFFFF700000
2FFFFF20000DFFFF400000
5FFFFF00001FFFFF100000
6FFFFE00004FFFFD000152
7FFFFD00009FFFFA0006F2
6FFFFE0002EFFFF9000DA0
3FFFFF714DFFFFFD22AF20
0DFFFFFFFF6FFFFFFFF600
03EFFFFFE40BFFFFFE6000
002AEFD810019EFD820000
ENDCHAR
STARTCHAR Abreve
ENCODING 258
SWIDTH 668 0
DWIDTH 24 0
BBX 30 38 0 -4
BITMAP
000000000000000038870000004885
00000000000000005FFF100001DFF5
00000000000000001EFFB3015DFFA0
000000000000000005FFFFFFFFE700
00000000000000000039DFFDB71000
000000000000000000000000000000
000000000000000000000000000000
00000000000000000016BEED800000
000000000000000005DFFFFFB00000
00000000000000008FFFFFFF700000
000000000000000AFF6DFFFF400000
00000000000000AFF41FFFFF100000
00000000000008FF604FFFFD000000
0000000000005FFA008FFFFA000000
000000000002EFE100BFFFF6000000
00000000000CFF6000EFFFF3000000
00000000008FFC0002FFFFF0000000
0000001223FFF40006FFFFC0000000
0006BEFFFFFFE63009FFFF90000000
03DFFFFFFFFFFFFE9DFFFF50000000
2EFFE732EFFC036AFFFFFF20000000
8FFF5007FFF500004FFFFE00000000
9FFF701EFFE000006FFFFB00000000
3EFF509FFF800000AFFFF800000000
013101FFFF200000DFFFF400000000
000007FFFB000001FFFFF100000000
00000DFFF6000004FFFFD000000000
00005FFFF1000008FFFFA000000000
0000AFFFB000000BFFFF7000000000
0001FFFF7000000EFFFF3000000000
0005FFFF3000002FFFFF0000000000
0009FFFE0000006FFFFC0000000000
000CFFFB0000009FFFF90000000000
000EFFF9000000CFFFF60000000000
000EFFF70000000000000000000000
000CFFF60000000000000000000000
0005FFF60000000000000000000000
00005BE90000000000000000000000
ENDCHAR
STARTCHAR abreve
ENCODING 259
SWIDTH 526 0
DWIDTH 19 0
BBX 22 26 -1 0
BITMAP
0000008FFB000000CFF500
0000006FFE100005FFE100
0000001EFFB3128FFE4000
00000005FFFFFFFFC30000
0000000039DEED94000000
0000000000000000000000
0000000000000000000000
0000000000000000000000
00000039DFEA2FFFFF3000
000009FFFFFFCFFFFE0000
0000AFFFFA45EFFFFB0000
0008FFFF9000AFFFF80000
004FFFFE1000CFFFF50000
00CFFFF60001FFFFF20000
04FFFFE10003FFFFE00000
09FFFFA00007FFFFB00000
0EFFFF60000AFFFF700000
2FFFFF20000DFFFF400000
5FFFFF00001FFFFF100000
6FFFFE00004FFFFD000152
7FFFFD00009FFFFA0006F2
6FFFFE0002EFFFF9000DA0
3FFFFF714DFFFFFD22AF20
0DFFFFFFFF6FFFFFFFF600
03EFFFFFE40BFFFFFE6000
002AEFD810019EFD820000
ENDCHAR
STARTCHAR Aogonek
ENCODING 260
SWIDTH 668 0
DWIDTH 24 0
BBX 25 34 0 -7
BITMAP
00000000000000000016BEED80
000000000000000005DFFFFFB0
00000000000000008FFFFFFF70
000000000000000AFF6DFFFF40
00000000000000AFF41FFFFF10
00000000000008FF604FFFFD00
0000000000005FFA008FFFFA00
000000000002EFE100BFFFF600
00000000000CFF6000EFFFF300
00000000008FFC0002FFFFF000
0000001223FFF40006FFFFC000
0006BEFFFFFFE63009FFFF9000
03DFFFFFFFFFFFFE9DFFFF5000
2EFFE732EFFC036AFFFFFF2000
8FFF5007FFF500004FFFFE0000
9FFF701EFFE000006FFFFB0000
3EFF508FFF800000AFFFF80000
013101EFFF200000DFFFF40000
000007FFFC000001FFFFF10000
00000DFFF7000004FFFFD00000
00004FFFF2000008FFFFA00000
0000AFFFC000000BFFFF700000
0001EFFF7000000EFFFF300000
0005FFFF3000002FFFFF000000
0009FFFE0000006FFFFC000000
000CFFFC0000009FFFF9000000
000EFFF9000000CFFFF6000000
000EFFF70000002DF500000000
000CFFF6000001DF7000000000
0007FFF6000008FF1000000000
00007DF900000DFF1002000000
0000001100000EFF948B000000
0000000000000AFFFFD2000000
00000000000001AEE910000000
ENDCHAR
STARTCHAR aogonek
ENCODING 261
SWIDTH 526 0
DWIDTH 19 0
BBX 22 25 -1 -7
BITMAP
00000039DFEA2FFFFF3000
000009FFFFFFCFFFFE0000
0000AFFFFA45EFFFFB0000
0008FFFF9000AFFFF80000
004FFFFE1000CFFFF50000
00CFFFF60001FFFFF20000
04FFFFE10003FFFFE00000
09FFFFA00007FFFFB00000
0EFFFF60000AFFFF700000
2FFFFF20000DFFFF400000
5FFFFF00001FFFFF100000
6FFFFE00004FFFFD000152
7FFFFD00009FFFFA0006F2
6FFFFE0002EFFFF9000DA0
3FFFFF714DFFFFFD22AF20
0DFFFFFFFF6FFFFFFFF600
03EFFFFFE40CFFFFFF7000
002AEFD81001AEFFD40000
0000000000001BFA000000
000000000000AFD0000000
000000000003FF70000000
000000000008FF70001000
000000000008FFD35C2000
000000000003FFFFF60000
0000000000006DEB400000
ENDCHAR
STARTCHAR Cacute
ENCODING 262
SWIDTH 497 0
DWIDTH 18 0
BBX 20 37 0 -1
BITMAP
00000000000000058870
000000000000002FFF80
000000000000009FFC00
00000000000002FFF300
00000000000009FF8000
0000000000002FFC0000
0000000000009FF30000
00000000000000000000
00000000000000000000
00000000049DEFEB5000
00000003CFFFFFFFFB10
0000004EFFFFB439FFA0
000004FFFFF80000DFF1
00002EFFFFB00000AFF3
0000BFFFFE200000DFF3
0005FFFFF8000004FFF1
000DFFFFE100001DFFA0
005FFFFFA00000048710
00AFFFFF400000000000
01FFFFFE000000000000
04FFFFFA000000000000
08FFFFF7000000000000
0BFFFFF3000000000000
0EFFFFF1000000000000
1FFFFFD0000000000000
3FFFFFC0000000000000
4FFFFFB0000000000000
4FFFFFA0000000000000
4FFFFFA0000000000000
3FFFFFB0000000000000
1FFFFFE0000000000890
0DFFFFF5000000008F20
08FFFFFD2000004CF700
02EFFFFFFA88ADFF7000
005FFFFFFFFFFFD40000
0003BFFFFFFFC6000000
00000156765100000000
ENDCHAR
STARTCHAR cacute
ENCODING 263
SWIDTH 384 0
DWIDTH 14 0
BBX 17 27 -1 0
BITMAP
0000000000003FFF80
000000000000AFFD10
000000000002FFF500
000000000008FFA000
00000000001EFE2000
00000000007FF70000
0000000001EFC00000
000000000011100000
000000000000000000
00000028CEFD910000
000008FFFFFFFA0000
0000AFFFF83DFF1000
0008FFFF9008FF3000
003FFFFE100AFE1000
00CFFFF7000AE60000
03FFFFF10000000000
09FFFFA00000000000
0DFFFF600000000000
2FFFFF300000000000
4FFFFF000000000000
6FFFFE000000002500
7FFFFD00000003E600
6FFFFF1000005EA000
3FFFFF92014BFB1000
0CFFFFFFFFFFA10000
03EFFFFFFFE6000000
0018CEFDB610000000
ENDCHAR
STARTCHAR Ccircumflex
ENCODING 264
SWIDTH 497 0
DWIDTH 18 0
BBX 20 37 0 -1
BITMAP
00000000000000360000
00000000000005EE0000
0000000000007FFF5000
000000000009FFFFA000
0000000001BFFB7FE000
000000002DFB4008F500
00000003EA300000BA00
00000000000000000000
00000000000000000000
00000000049DEFEB5000
00000003CFFFFFFFFB10
0000004EFFFFB439FFA0
000004FFFFF80000DFF1
00002EFFFFB00000AFF3
0000BFFFFE200000DFF3
0005FFFFF8000004FFF1
000DFFFFE100001DFFA0
005FFFFFA00000048710
00AFFFFF400000000000
01FFFFFE000000000000
04FFFFFA000000000000
08FFFFF7000000000000
0BFFFFF3000000000000
0EFFFFF1000000000000
1FFFFFD0000000000000
3FFFFFC0000000000000
4FFFFFB0000000000000
4FFFFFA0000000000000
4FFFFFA0000000000000
3FFFFFB0000000000000
1FFFFFE0000000000890
0DFFFFF5000000008F20
08FFFFFD2000004CF700
02EFFFFFFA88ADFF7000
005FFFFFFFFFFFD40000
0003BFFFFFFFC6000000
00000156765100000000
ENDCHAR
STARTCHAR ccircumflex
ENCODING 265
SWIDTH 384 0
DWIDTH 14 0
BBX 16 27 -1 0
BITMAP
000000000002D600
00000000003EFA00
0000000004EFFE10
000000005FFFFF50
00000006FFE7AF90
0000007FE7101DE0
000008E8100003F3
0000011000000010
0000000000000000
00000028CEFD9100
000008FFFFFFFA00
0000AFFFF83DFF10
0008FFFF9008FF30
003FFFFE100AFE10
00CFFFF7000AE600
03FFFFF100000000
09FFFFA000000000
0DFFFF6000000000
2FFFFF3000000000
4FFFFF0000000000
6FFFFE0000000025
7FFFFD00000003E6
6FFFFF1000005EA0
3FFFFF92014BFB10
0CFFFFFFFFFFA100
03EFFFFFFFE60000
0018CEFDB6100000
ENDCHAR
STARTCHAR Cdotaccent
ENCODING 266
SWIDTH 497 0
DWIDTH 18 0
BBX 20 36 0 -1
BITMAP
000000000000007DE800
00000000000006FFFF70
0000000000000BFFFFC0
0000000000000BFFFFC0
00000000000006FFFF70
000000000000007EE800
00000000000000000000
00000000000000000000
00000000049DEFEB5000
00000003CFFFFFFFFB10
0000004EFFFFB439FFA0
000004FFFFF80000DFF1
00002EFFFFB00000AFF3
0000BFFFFE200000DFF3
0005FFFFF8000004FFF1
000DFFFFE100001DFFA0
005FFFFFA00000048710
00AFFFFF400000000000
01FFFFFE000000000000
04FFFFFA000000000000
08FFFFF7000000000000
0BFFFFF3000000000000
0EFFFFF1000000000000
1FFFFFD0000000000000
3FFFFFC0000000000000
4FFFFFB0000000000000
4FFFFFA0000000000000
4FFFFFA0000000000000
3FFFFFB0000000000000
1FFFFFE0000000000890
0DFFFFF5000000008F20
08FFFFFD2000004CF700
02EFFFFFFA88ADFF7000
005FFFFFFFFFFFD40000
0003BFFFFFFFC6000000
00000156765100000000
ENDCHAR
STARTCHAR cdotaccent
ENCODING 267
SWIDTH 384 0
DWIDTH 14 0
BBX 16 27 -1 0
BITMAP
0000000001AEC400
000000000BFFFE20
000000001FFFFF70
000000001FFFFF70
000000000BFFFE20
0000000002AEC400
0000000000000000
0000000000000000
0000000000000000
00000028CEFD9100
000008FFFFFFFA00
0000AFFFF83DFF10
0008FFFF9008FF30
003FFFFE100AFE10
00CFFFF7000AE600
03FFFFF100000000
09FFFFA000000000
0DFFFF6000000000
2FFFFF3000000000
4FFFFF0000000000
6FFFFE0000000025
7FFFFD00000003E6
6FFFFF1000005EA0
3FFFFF92014BFB10
0CFFFFFFFFFFA100
03EFFFFFFFE60000
0018CEFDB6100000
ENDCHAR
STARTCHAR Ccaron
ENCODING 268
SWIDTH 497 0
DWIDTH 18 0
BBX 21 37 0 -1
BITMAP
0000000000360000001760
00000000002F700018EC10
00000000000CF418EFA100
000000000007FEFFF80000
000000000002FFFF600000
000000000000CFE4000000
0000000000007D20000000
0000000000000000000000
0000000000000000000000
00000000049DEFEB500000
00000003CFFFFFFFFB1000
0000004EFFFFB439FFA000
000004FFFFF80000DFF100
00002EFFFFB00000AFF300
0000BFFFFE200000DFF300
0005FFFFF8000004FFF100
000DFFFFE100001DFFA000
005FFFFFA0000004871000
00AFFFFF40000000000000
01FFFFFE00000000000000
04FFFFFA00000000000000
08FFFFF700000000000000
0BFFFFF300000000000000
0EFFFFF100000000000000
1FFFFFD000000000000000
3FFFFFC000000000000000
4FFFFFB000000000000000
4FFFFFA000000000000000
4FFFFFA000000000000000
3FFFFFB000000000000000
1FFFFFE000000000089000
0DFFFFF5000000008F2000
08FFFFFD2000004CF70000
02EFFFFFFA88ADFF700000
005FFFFFFFFFFFD4000000
0003BFFFFFFFC600000000
0000015676510000000000
ENDCHAR
STARTCHAR ccaron
ENCODING 269
SWIDTH 384 0
DWIDTH 14 0
BBX 19 27 -1 0
BITMAP
00000000C8000003BD30
000000007F4002AFD200
000000003FE39FFC1000
000000000DFFFFC10000
0000000009FFFB100000
0000000004FFA0000000
0000000000E900000000
00000000001000000000
00000000000000000000
00000028CEFD91000000
000008FFFFFFFA000000
0000AFFFF83DFF100000
0008FFFF9008FF300000
003FFFFE100AFE100000
00CFFFF7000AE6000000
03FFFFF1000000000000
09FFFFA0000000000000
0DFFFF60000000000000
2FFFFF30000000000000
4FFFFF00000000000000
6FFFFE00000000250000
7FFFFD00000003E60000
6FFFFF1000005EA00000
3FFFFF92014BFB100000
0CFFFFFFFFFFA1000000
03EFFFFFFFE600000000
0018CEFDB61000000000
ENDCHAR
STARTCHAR Dcaron
ENCODING 270
SWIDTH 663 0
DWIDTH 24 0
BBX 24 37 0 -1
BITMAP
000000000017100000057100
00000000000EA00005DE4000
000000000009F604CFE30000
000000000005FECFFD200000
000000000001EFFFD2000000
000000000000AFFC10000000
0000000000006FB100000000
000000000000170000000000
000000000000000000000000
0000000037BDEFEDA6100000
0000006CFFFFFFFFFFD50000
00004DFFFB74336BFFFF7000
0007FFFA200000007FFFF400
008FFF5058ACE7000AFFFD00
05FFF600EFFFF40004FFFF50
0EFFA002FFFFF10000FFFFA0
6FFF3005FFFFC00000CFFFE0
AFFD0009FFFF900000CFFFF1
BFFA000CFFFF600000CFFFF2
AFF9000FFFFF300000DFFFF3
6FF9003FFFFE000000EFFFF2
08EC007FFFFB000000FFFFF2
000200AFFFF8000002FFFFF0
000000DFFFF5000005FFFFD0
000001FFFFF1000007FFFFA0
000005FFFFD000000AFFFF60
000008FFFFA000000EFFFF20
00000BFFFF6000004FFFFC00
00000EFFFF300000AFFFF600
00003FFFFF000002FFFFE100
00006FFFFC00000AFFFF8000
00009FFFF800005FFFFD1000
0000DFFFF60004EFFFF50000
0001FFFFFFA8BFFFFF800000
0004FFFFEFFFFFFFF9000000
0008FFFFA3BFFFFE60000000
000000000003675100000000
ENDCHAR
STARTCHAR dcaron
ENCODING 271
SWIDTH 525 0
DWIDTH 19 0
BBX 26 27 -1 0
BITMAP
0000000000000000000003CEA0
000000000000000000000BFFF6
000000000000001357980AFFF7
00000000000000AFFFF802EFF4
00000000000000DFFFF5007FD0
00000000000001FFFFF100BF40
00000000000005FFFFD007F600
00000000000008FFFFA0023000
0000000000000BFFFF70000000
00000039DFEA2EFFFF30000000
000009FFFFFFCFFFFF10000000
0000AFFFFA45EFFFFC00000000
0008FFFF9000AFFFF900000000
004FFFFE1000DFFFF600000000
00CFFFF60001FFFFF200000000
04FFFFE10004FFFFE000000000
09FFFFA00007FFFFB000000000
0EFFFF60000AFFFF8000000000
2FFFFF20000EFFFF5000000000
5FFFFF00002FFFFF1000000000
6FFFFE00005FFFFD0000310000
7FFFFD00009FFFFA0005F20000
6FFFFE0002EFFFF8000DA00000
3FFFFF714DFFFFFB12AF200000
0DFFFFFFFF9FFFFFFFF6000000
03EFFFFFE50CFFFFFF60000000
002AEFD92002AEFD9200000000
ENDCHAR
STARTCHAR Dcroat
ENCODING 272
SWIDTH 663 0
DWIDTH 24 0
BBX 24 28 0 -1
BITMAP
0000000038BEFEDC95000000
0000005CFFFFFFFFFFD60000
00002BFFFB743359EFFF9000
0004EFFA200000003EFFF700
005FFF60368AC70007FFFF20
03EFF700DFFFF50002FFFF80
0CFFB001FFFFF10000EFFFC0
4FFF3004FFFFD00000CFFFF1
9FFD0007FFFFA00000CFFFF2
BFFA000AFFFF700000CFFFF3
BFF9000DFFFF400000DFFFF3
8FF9002FFFFF100000DFFFF2
1DFA026FFFFD331000EFFFF1
00570DFFFFFFFF6002FFFFE0
00003FFFFFFFFF1004FFFFC0
000001FFFFF1000007FFFF90
000004FFFFD000000AFFFF60
000008FFFFA000000EFFFF10
00000BFFFF7000004FFFFC00
00000EFFFF300000AFFFF600
00003FFFFF000002FFFFE100
00006FFFFC00000AFFFF8000
00009FFFF800005FFFFE1000
0000DFFFF60005EFFFF50000
0001FFFFFFA8BFFFFF800000
0004FFFFEFFFFFFFF9000000
0008FFFFA3BFFFFE60000000
000000000003675100000000
ENDCHAR
STARTCHAR dcroat
ENCODING 273
SWIDTH 525 0
DWIDTH 19 0
BBX 22 26 -1 0
BITMAP
0000000000000000001200
000000000000005ACEFA00
00000000000000BFFFF600
00000000000000EFFFF300
00000000004FFFFFFFFFFD
00000000007FFFFFFFFFF9
0000000000233AFFFFA331
0000000000000BFFFF7000
00000039DFEA2EFFFF3000
000009FFFFFFCFFFFF0000
0000AFFFFA45EFFFFC0000
0008FFFF9000AFFFF90000
004FFFFE1000DFFFF50000
00CFFFF60001FFFFF20000
04FFFFE10004FFFFE00000
09FFFFA00007FFFFB00000
0EFFFF60000AFFFF800000
2FFFFF20000EFFFF400000
5FFFFF00002FFFFF100000
6FFFFE00005FFFFD000031
7FFFFD00009FFFFA0005F2
6FFFFE0002EFFFF8000DA0
3FFFFF714DFFFFFB12AF20
0DFFFFFFFF9FFFFFFFF600
03EFFFFFE50CFFFFFF6000
002AEFD92002AEFD920000
ENDCHAR
STARTCHAR Emacron
ENCODING 274
SWIDTH 459 0
DWIDTH 17 0
BBX 20 34 0 -1
BITMAP
00000000133333333333
000000008FFFFFFFFFFE
00000000CFFFFFFFFFFB
00000000000000000000
00000000000000000000
00000000000000000000
0000000005AEFEB50000
00000001BFFFFFFF9000
0000002DFFFA44CFF400
000000CFFF90003FF900
000006FFFE10001FFB00
00000DFFF900004FF900
00002FFFF60000BFF500
00004FFFF50004FFB000
00003FFFF70000340000
00001FFFFC0000000000
00000AFFFF5000000000
000001DFFFF600000000
0000029FFFFC50000000
00009FFFFF6000000000
001CFFFFF50000000000
00AFFFFF700000000000
05FFFFFC000000000000
0DFFFFF5000000000000
4FFFFFE0000000000000
8FFFFFA0000000000000
AFFFFF80000000001000
BFFFFF9000000001C300
AFFFFFC00000001BA000
6FFFFFF7000016EC1000
1EFFFFFFC99BEFC10000
04FFFFFFFFFFF8000000
004CFFFFFFE920000000
00003677630000000000
ENDCHAR
STARTCHAR emacron
ENCODING 275
SWIDTH 384 0
DWIDTH 14 0
BBX 16 24 -1 0
BITMAP
0000AFFFFFFFFFFD
0000EFFFFFFFFFF9
0000333333333331
0000000000000000
0000000000000000
0000000000000000
00000028CEED8100
000008FFFFFFFA00
0000AFFFF83CFF10
0008FFFF8009FF30
004FFFFD000BFF20
00CFFFF6001FFD00
04FFFFE000AFF700
09FFFF9008FFC000
0DFFFF76CFFD1000
2FFFFFFFFF910000
4FFFFFFD93000000
6FFFFE0000000013
7FFFFD00000002D8
6FFFFF0000004DC0
3FFFFF91014AFC10
0CFFFFFFFFFFB100
03EFFFFFFFE70000
0018CEFEB6100000
ENDCHAR
STARTCHAR Ebreve
ENCODING 276
SWIDTH 459 0
DWIDTH 17 0
BBX 21 35 0 -1
BITMAP
00000000FFF5000003FFE0
00000000DFF800000BFF80
000000007FFF6114CFFB00
000000000BFFFFFFFF9000
00000000006BEFEC820000
0000000000000000000000
0000000000000000000000
0000000005AEFEB5000000
00000001BFFFFFFF900000
0000002DFFFA44CFF40000
000000CFFF90003FF90000
000006FFFE10001FFB0000
00000DFFF900004FF90000
00002FFFF60000BFF50000
00004FFFF50004FFB00000
00003FFFF7000034000000
00001FFFFC000000000000
00000AFFFF500000000000
000001DFFFF60000000000
0000029FFFFC5000000000
00009FFFFF600000000000
001CFFFFF5000000000000
00AFFFFF70000000000000
05FFFFFC00000000000000
0DFFFFF500000000000000
4FFFFFE000000000000000
8FFFFFA000000000000000
AFFFFF8000000000100000
BFFFFF9000000001C30000
AFFFFFC00000001BA00000
6FFFFFF7000016EC100000
1EFFFFFFC99BEFC1000000
04FFFFFFFFFFF800000000
004CFFFFFFE92000000000
0000367763000000000000
ENDCHAR
STARTCHAR ebreve
ENCODING 277
SWIDTH 384 0
DWIDTH 14 0
BBX 17 26 -1 0
BITMAP
0005FFE0000009FF80
0003FFF200003EFF30
0000DFFC4127EFF600
00003EFFFFFFFD5000
0000028CEEDA600000
000000000000000000
000000000000000000
000000000000000000
00000028CEED810000
000008FFFFFFFA0000
0000AFFFF83CFF1000
0008FFFF8009FF3000
004FFFFD000BFF2000
00CFFFF6001FFD0000
04FFFFE000AFF70000
09FFFF9008FFC00000
0DFFFF76CFFD100000
2FFFFFFFFF91000000
4FFFFFFD9300000000
6FFFFE000000001300
7FFFFD00000002D800
6FFFFF0000004DC000
3FFFFF91014AFC1000
0CFFFFFFFFFFB10000
03EFFFFFFFE7000000
0018CEFEB610000000
ENDCHAR
STARTCHAR Edotaccent
ENCODING 278
SWIDTH 459 0
DWIDTH 17 0
BBX 18 36 0 -1
BITMAP
0000000000003CEB20
000000000001EFFFD0
000000000005FFFFF3
000000000005FFFFF3
000000000001EFFFD0
0000000000003CEB20
000000000000000000
000000000000000000
0000000005AEFEB500
00000001BFFFFFFF90
0000002DFFFA44CFF4
000000CFFF90003FF9
000006FFFE10001FFB
00000DFFF900004FF9
00002FFFF60000BFF5
00004FFFF50004FFB0
00003FFFF700003400
00001FFFFC00000000
00000AFFFF50000000
000001DFFFF6000000
0000029FFFFC500000
00009FFFFF60000000
001CFFFFF500000000
00AFFFFF7000000000
05FFFFFC0000000000
0DFFFFF50000000000
4FFFFFE00000000000
8FFFFFA00000000000
AFFFFF800000000010
BFFFFF9000000001C3
AFFFFFC00000001BA0
6FFFFFF7000016EC10
1EFFFFFFC99BEFC100
04FFFFFFFFFFF80000
004CFFFFFFE9200000
000036776300000000
ENDCHAR
STARTCHAR edotaccent
ENCODING 279
SWIDTH 384 0
DWIDTH 14 0
BBX 16 27 -1 0
BITMAP
0000000002BEB200
000000001DFFFD10
000000004FFFFF40
000000004FFFFF50
000000001DFFFE10
0000000003BEC300
0000000000000000
0000000000000000
0000000000000000
00000028CEED8100
000008FFFFFFFA00
0000AFFFF83CFF10
0008FFFF8009FF30
004FFFFD000BFF20
00CFFFF6001FFD00
04FFFFE000AFF700
09FFFF9008FFC000
0DFFFF76CFFD1000
2FFFFFFFFF910000
4FFFFFFD93000000
6FFFFE0000000013
7FFFFD00000002D8
6FFFFF0000004DC0
3FFFFF91014AFC10
0CFFFFFFFFFFB100
03EFFFFFFFE70000
0018CEFEB6100000
ENDCHAR
STARTCHAR Eogonek
ENCODING 280
SWIDTH 459 0
DWIDTH 17 0
BBX 18 34 0 -7
BITMAP
000000039CEFEB7100
000001AFFFFFFFFE50
00001DFFFFA535DFF4
0000BFFFF600004FFB
0003FFFFA000001FFE
0007FFFF5000003FFE
0009FFFF3000009FFC
0008FFFF500004FFF5
0005FFFFA000005740
0000DFFFF400000000
00003FFFFE40000000
000004DFFFF8100000
000004AFFFFD600000
0003CFFFFF70000000
005FFFFFE300000000
03FFFFFE3000000000
0BFFFFF70000000000
2FFFFFF10000000000
7FFFFFC00000000000
8FFFFFB00000000000
8FFFFFD00000000041
6FFFFFF400000003E2
2FFFFFFD2000003EA0
0AFFFFFFE7335AFD10
01DFFFFFFFFFFFD200
002CFFFFFFFFFB1000
00005ADEEDEFA00000
0000000004EB000000
000000002EF3000000
00000000AFF0000000
00000000EFF0001000
00000000FFF828A000
00000000AFFFFC1000
000000001AEE810000
ENDCHAR
STARTCHAR eogonek
ENCODING 281
SWIDTH 384 0
DWIDTH 14 0
BBX 16 25 -1 -7
BITMAP
00000028CEED8100
000008FFFFFFFA00
0000AFFFF83CFF10
0008FFFF8009FF30
004FFFFD000BFF20
00CFFFF6001FFD00
04FFFFE000AFF700
09FFFF9008FFC000
0DFFFF76CFFD1000
2FFFFFFFFF910000
4FFFFFFD93000000
6FFFFE0000000013
7FFFFD00000001C9
6FFFFE0000003DD1
3FFFFF700028FE20
0CFFFFFEDEFFD300
03EFFFFFFFFB2000
0018CEFEFF800000
0000001DF5000000
000000CF90000000
000005FF50000000
00000AFF40010000
00000AFFB25D0000
000005FFFFE40000
0000007DEB200000
ENDCHAR
STARTCHAR Ecaron
ENCODING 282
SWIDTH 459 0
DWIDTH 17 0
BBX 22 37 0 -1
BITMAP
0000000000171000000671
00000000000DA00006DE30
000000000009F706DFD200
000000000004FFEFFB1000
000000000000EFFF900000
0000000000009FF7000000
0000000000004E50000000
0000000000000000000000
0000000000000000000000
0000000005AEFEB5000000
00000001BFFFFFFF900000
0000002DFFFA44CFF40000
000000CFFF90003FF90000
000006FFFE10001FFB0000
00000DFFF900004FF90000
00002FFFF60000BFF50000
00004FFFF50004FFB00000
00003FFFF7000034000000
00001FFFFC000000000000
00000AFFFF500000000000
000001DFFFF60000000000
0000029FFFFC5000000000
00009FFFFF600000000000
001CFFFFF5000000000000
00AFFFFF70000000000000
05FFFFFC00000000000000
0DFFFFF500000000000000
4FFFFFE000000000000000
8FFFFFA000000000000000
AFFFFF8000000000100000
BFFFFF9000000001C30000
AFFFFFC00000001BA00000
6FFFFFF7000016EC100000
1EFFFFFFC99BEFC1000000
04FFFFFFFFFFF800000000
004CFFFFFFE92000000000
0000367763000000000000
ENDCHAR
STARTCHAR ecaron
ENCODING 283
SWIDTH 384 0
DWIDTH 14 0
BBX 19 27 -1 0
BITMAP
00000000D7000004CD20
000000009F3003BFC100
000000004FD29FFB1000
000000000EFFFFA00000
000000000AFFF9000000
0000000006FF80000000
0000000001F700000000
00000000001000000000
00000000000000000000
00000028CEED81000000
000008FFFFFFFA000000
0000AFFFF83CFF100000
0008FFFF8009FF300000
004FFFFD000AFF100000
00CFFFF6001EFC000000
04FFFFE0008FF5000000
09FFFFA006FF90000000
0DFFFF64AFF900000000
2FFFFFFFFD5000000000
4FFFFF97300000000000
6FFFFD00000000360000
7FFFFD00000003E60000
6FFFFF1000006E900000
3FFFFF92014BFB000000
0CFFFFFFFFFFA0000000
03EFFFFFFFE600000000
0018CEFDB61000000000
ENDCHAR
STARTCHAR Gcircumflex
ENCODING 284
SWIDTH 578 0
DWIDTH 21 0
BBX 21 42 0 -7
BITMAP
0000000000000002D80000
000000000000004EFD0000
00000000000007FFFF3000
000000000001AFFEDF9000
00000000002CFD602EE000
0000000003EC500003F400
0000000003200000002100
0000000000000000000000
00000000048CEFEDA40000
00000005DFFFFFFFFFA000
000001AFFFFFA535DFF900
00002DFFFFE400004FFF20
0001DFFFFE2000001FFF60
000BFFFFF30000002FFF60
005FFFFF800000008FFF40
00DFFFFE10000003EFFE00
05FFFFF700000001AEC300
0AFFFFF200000000000000
0EFFFFC000000000000000
2FFFFF8000000000000000
3FFFFF6000000005777400
4FFFFF400000000DFFF700
4FFFFF400000003FFFF300
3FFFFF400000008FFFE000
1FFFFF60000001EFFFB000
0DFFFF90000009FFFF8000
08FFFFE100006FFFFF4000
01EFFFFC3029FFFFFF1000
007FFFFFFFFFCEFFFD0000
0007FFFFFFFB3FFFF90000
00003ADFEB505FFFF60000
0000000000009FFFF20000
000001453000DFFFE00000
00007EFFFA01FFFFA00000
0007FFFFFF45FFFF500000
002FFFD99E59FFFE100000
006FFD10011DFFF9000000
007FF900004FFFF2000000
005FFB0000CFFF80000000
001EFF934BFFFC00000000
0003EFFFFFFFB100000000
000018CEFDA40000000000
ENDCHAR
STARTCHAR gcircumflex
ENCODING 285
SWIDTH 507 0
DWIDTH 18 0
BBX 21 36 -1 -9
BITMAP
00000000000005F2000000
0000000000006FF7000000
000000000007FFFC000000
00000000009FFFFF100000
000000000AFFB4CF600000
00000001BFB4002EB00000
0000001BC4000005E10000
0000000000000000000000
0000000000000000000000
00000039DFEA2FFFFF3000
000009FFFFFFCFFFFE0000
0000AFFFFA45EFFFFB0000
0008FFFF9000AFFFF80000
004FFFFE1000DFFFF50000
00CFFFF60001FFFFF20000
04FFFFE10004FFFFD00000
09FFFFA00007FFFFA00000
0EFFFF60000AFFFF700000
2FFFFF20000DFFFF400000
5FFFFF00002FFFFF100000
6FFFFE00005FFFFC000220
7FFFFD00009FFFF9001E80
6FFFFE0002EFFFF6007F20
3FFFFF714DFFFFF302E900
0DFFFFFFFFFFFFE03DD100
03EFFFFFFCFFFFD9FD2000
002AEFD92AFFFFFE810000
000000027EFFFF81000000
0000019FFFFFFF20000000
00004EFA7FFFFE00000000
0002EF607FFFFB00000000
0008F900BFFFF600000000
0009F502FFFFE100000000
0008FB4BFFFF7000000000
0002EFFFFFF80000000000
000029DFDA300000000000
ENDCHAR
STARTCHAR Gbreve
ENCODING 286
SWIDTH 578 0
DWIDTH 21 0
BBX 24 41 0 -7
BITMAP
000000000078830000007881
0000000000CFF8000007FFC0
00000000008FFE61139FFE30
00000000001CFFFFFFFFC200
0000000000007CEFEC940000
000000000000000000000000
000000000000000000000000
00000000048CEFEDA4000000
00000005DFFFFFFFFFB10000
000001AFFFFFA535DFFA0000
00002DFFFFE400003FFF3000
0001DFFFFE2000001FFF6000
000BFFFFF30000003FFF6000
005FFFFF80000000AFFF3000
00DFFFFE10000004FFFB0000
05FFFFF70000000059600000
0AFFFFF20000000000000000
0EFFFFC00000000000000000
2FFFFF800000000000000000
3FFFFF6000000007BBB60000
4FFFFF400000000EFFF60000
4FFFFF400000004FFFF20000
3FFFFF400000009FFFE00000
1FFFFF60000001FFFFB00000
0DFFFF9000000AFFFF700000
08FFFFE100006FFFFF400000
01EFFFFC3029FFFFFF100000
007FFFFFFFFFCEFFFC000000
0007FFFFFFFB3FFFF9000000
00003ADFEB505FFFF5000000
0000000000009FFFF2000000
000001453000DFFFD0000000
00007EFFFA01FFFF90000000
0007FFFFFF45FFFF50000000
002FFFD99E59FFFE10000000
006FFD10011DFFF900000000
007FF900004FFFF200000000
005FFB0000CFFF8000000000
001EFF934BFFFC0000000000
0003EFFFFFFFA10000000000
000018CEFDA4000000000000
ENDCHAR
STARTCHAR gbreve
ENCODING 287
SWIDTH 507 0
DWIDTH 18 0
BBX 21 35 -1 -9
BITMAP
0000004885000000588300
0000007FFD000002EFF200
0000002FFF92027EFF7000
00000007FFFFFFFFE50000
000000004ADFEDA6000000
0000000000000000000000
0000000000000000000000
0000000000000000000000
00000039DFEA2FFFFF3000
000009FFFFFFCFFFFE0000
0000AFFFFA45EFFFFB0000
0008FFFF9000AFFFF80000
004FFFFE1000DFFFF50000
00CFFFF60001FFFFF20000
04FFFFE10004FFFFD00000
09FFFFA00007FFFFA00000
0EFFFF60000AFFFF700000
2FFFFF20000DFFFF400000
5FFFFF00002FFFFF100000
6FFFFE00005FFFFC000220
7FFFFD00009FFFF9001E80
6FFFFE0002EFFFF6007F20
3FFFFF714DFFFFF302E900
0DFFFFFFFFFFFFE03DD100
03EFFFFFFCFFFFD9FD2000
002AEFD92AFFFFFE810000
000000027EFFFF81000000
0000019FFFFFFF20000000
00004EFA7FFFFE00000000
0002EF607FFFFB00000000
0008F900BFFFF600000000
0009F502FFFFE100000000
0008FB4BFFFF7000000000
0002EFFFFFF80000000000
000029DFDA300000000000
ENDCHAR
STARTCHAR Gdotaccent
ENCODING 288
SWIDTH 578 0
DWIDTH 21 0
BBX 21 42 0 -7
BITMAP
00000000000008ED700000
0000000000007FFFF60000
000000000000CFFFFB0000
000000000000CFFFFC0000
0000000000007FFFF60000
00000000000008EE700000
0000000000000000000000
0000000000000000000000
00000000048CEFEDA40000
00000005DFFFFFFFFFB100
000001AFFFFFA535DFFA00
00002DFFFFE400003FFF30
0001DFFFFE2000001FFF60
000BFFFFF30000003FFF60
005FFFFF80000000AFFF30
00DFFFFE10000004FFFB00
05FFFFF700000000596000
0AFFFFF200000000000000
0EFFFFC000000000000000
2FFFFF8000000000000000
3FFFFF6000000007BBB600
4FFFFF400000000EFFF600
4FFFFF400000004FFFF200
3FFFFF400000009FFFE000
1FFFFF60000001FFFFB000
0DFFFF9000000AFFFF7000
08FFFFE100006FFFFF4000
01EFFFFC3029FFFFFF1000
007FFFFFFFFFCEFFFC0000
0007FFFFFFFB3FFFF90000
00003ADFEB505FFFF50000
0000000000009FFFF20000
000001453000DFFFD00000
00007EFFFA01FFFF900000
0007FFFFFF45FFFF500000
002FFFD99E59FFFE100000
006FFD10011DFFF9000000
007FF900004FFFF2000000
005FFB0000CFFF80000000
001EFF934BFFFC00000000
0003EFFFFFFFA100000000
000018CEFDA40000000000
ENDCHAR
STARTCHAR gdotaccent
ENCODING 289
SWIDTH 507 0
DWIDTH 18 0
BBX 21 36 -1 -9
BITMAP
000000000005DE91000000
00000000003FFFFA000000
00000000008FFFFF100000
00000000008FFFFF100000
00000000003FFFFA000000
000000000005DEA1000000
0000000000000000000000
0000000000000000000000
0000000000000000000000
00000039DFEA2FFFFF3000
000009FFFFFFCFFFFE0000
0000AFFFFA45EFFFFB0000
0008FFFF9000AFFFF80000
004FFFFE1000DFFFF50000
00CFFFF60001FFFFF20000
04FFFFE10004FFFFD00000
09FFFFA00007FFFFA00000
0EFFFF60000AFFFF700000
2FFFFF20000DFFFF400000
5FFFFF00002FFFFF100000
6FFFFE00005FFFFC000220
7FFFFD00009FFFF9001E80
6FFFFE0002EFFFF6007F20
3FFFFF714DFFFFF302E900
0DFFFFFFFFFFFFE03DD100
03EFFFFFFCFFFFD9FD2000
002AEFD92AFFFFFE810000
000000027EFFFF81000000
0000019FFFFFFF20000000
00004EFA7FFFFE00000000
0002EF607FFFFB00000000
0008F900BFFFF600000000
0009F502FFFFE100000000
0008FB4BFFFF7000000000
0002EFFFFFF80000000000
000029DFDA300000000000
ENDCHAR
STARTCHAR Gcommaaccent
ENCODING 290
SWIDTH 578 0
DWIDTH 21 0
BBX 20 36 0 -9
BITMAP
00000000038CEFD93000
00000002AFFFFFFFF600
0000004EFFFF836FFF40
000005FFFFE4000AFFB0
00004FFFFF500008FFE0
0001EFFFF900000AFFE0
000AFFFFE100002FFFB0
004FFFFF800000BFFF30
00CFFFFF200000167300
03FFFFFB000000000000
09FFFFF6000000000000
0EFFFFF1000000000000
3FFFFFC0000000000000
6FFFFF90000000000000
8FFFFF700000001FFFF3
AFFFFF500000004FFFE0
BFFFFF400000008FFFB0
CFFFFF30000000DFFF80
BFFFFF30000003FFFF40
AFFFFF40000009FFFF10
8FFFFF6000002FFFFC00
5FFFFF900000AFFFF900
1EFFFFE10006FFFFF500
09FFFFFA106FFFFFF200
01DFFFFFEEFEEFFFE000
002DFFFFFFD3FFFFA000
00017CEED813FFFF7000
00000000000000000000
00000000000000000000
00000003DE8000000000
0000000BFFF100000000
00000007FFF100000000
00000000BFB000000000
00000000AF3000000000
00000006F50000000000
00000002300000000000
ENDCHAR
STARTCHAR gcommaaccent
ENCODING 291
SWIDTH 507 0
DWIDTH 18 0
BBX 21 36 -1 -9
BITMAP
0000000000003C20000000
000000000002EA00000000
00000000000CF300000000
00000000004FFA00000000
00000000007FFF50000000
00000000004FFF30000000
0000000000047300000000
0000000000000000000000
0000000000000000000000
00000039DFEA2FFFFF3000
000009FFFFFFCFFFFE0000
0000AFFFFA45EFFFFB0000
0008FFFF9000AFFFF80000
004FFFFE1000DFFFF50000
00CFFFF60001FFFFF20000
04FFFFE10004FFFFD00000
09FFFFA00007FFFFA00000
0EFFFF60000AFFFF700000
2FFFFF20000DFFFF400000
5FFFFF00002FFFFF100000
6FFFFE00005FFFFC000220
7FFFFD00009FFFF9001E80
6FFFFE0002EFFFF6007F20
3FFFFF714DFFFFF302E900
0DFFFFFFFFFFFFE03DD100
03EFFFFFFCFFFFD9FD2000
002AEFD92AFFFFFE810000
000000027EFFFF81000000
0000019FFFFFFF20000000
00004EFA7FFFFE00000000
0002EF607FFFFB00000000
0008F900BFFFF600000000
0009F502FFFFE100000000
0008FB4BFFFF7000000000
0002EFFFFFF80000000000
000029DFDA300000000000
ENDCHAR
STARTCHAR Hcircumflex
ENCODING 292
SWIDTH 665 0
DWIDTH 24 0
BBX 25 36 0 0
BITMAP
00000000000000000004400000
0000000000000000005FC00000
000000000000000006FFF20000
00000000000000008FFFF70000
0000000000000009FFECFB0000
00000000000000AFE811DF1000
0000000000001BF910003F6000
00000000000057200000055000
00000000000000000000000000
0000000027BDFF600005FFFFD0
0000004BFFFFFF300008FFFFA0
00002BFFEFFFFF00000BFFFF70
0004EFE76FFFFC00000EFFFF40
004FFE309FFFF900002FFFFF10
02EFF500CFFFF600005FFFFC00
0BFFA000FFFFF200008FFFF900
3FFF4003FFFFE00000CFFFF600
7FFF0006FFFFB00000EFFFF300
8FFD000AFFFF800003FFFFE000
7FFC000DFFFF500006FFFFB000
2FFD001FFFFFFFFFFFFFFF8000
03BD104FFFFFFFFFFFFFFF5000
0000008FFFFD9999AFFFFF2000
000000BFFFF700004FFFFE0000
000000EFFFF400007FFFFB0000
000002FFFFF10000AFFFF70000
000005FFFFC00000DFFFF40000
000009FFFF900001FFFFF10000
00000CFFFF600005FFFFD00000
00000FFFFF300008FFFFA00000
00003FFFFE00000BFFFF600000
00007FFFFB00000EFFFF300000
0000AFFFF800003FFFFF000000
0000DFFFF500006FFFFC000000
0001FFFFF200009FFFF9000000
0004FFFFD00000CFFFF6000000
ENDCHAR
STARTCHAR hcircumflex
ENCODING 293
SWIDTH 505 0
DWIDTH 18 0
BBX 22 33 -2 0
BITMAP
0000000000044000000000
00000000007FC000000000
0000000009FFF200000000
00000001BFFFF700000000
0000002DFFA9FC00000000
000003EFA200AF20000000
00005E9200001D70000000
0000000000000000000000
000001579BD10000000000
000004FFFFD00000000000
000008FFFFA00000000000
00000BFFFF600000000000
00000EFFFF300000000000
00002FFFFE000000000000
00006FFFFB000000000000
00009FFFF829DFD8100000
0000CFFFFAFFFFFFB00000
0001FFFFFFFFFFFFF30000
0004FFFFFC22EFFFF60000
0007FFFFE200AFFFF60000
000AFFFF9000AFFFF40000
000DFFFF4000DFFFF20000
002FFFFF1001FFFFE00000
005FFFFC0004FFFFB00000
008FFFF90007FFFF700000
00BFFFF6000BFFFF400000
00EFFFF3000EFFFF100032
03FFFFE0001FFFFC0002F6
06FFFFB0003FFFFB000AE1
09FFFF80003FFFFE218F70
0DFFFF50000EFFFFFFFC00
1FFFFF200007FFFFFFC100
4FFFFE0000006CFEC60000
ENDCHAR
STARTCHAR Hbar
ENCODING 294
SWIDTH 665 0
DWIDTH 24 0
BBX 27 27 0 0
BITMAP
0000000037BDFF600005FFFFD000
0000005CFFFFFF400008FFFFA000
00003CFFEFFFFF10000BFFFF7000
0005EFE65FFFFC00000EFFFF4000
006FFE308FFFF900002FFFFF1000
03FFF300BFFFF600005FFFFD0000
0CFF9000EFFFF300008FFFFA0000
4FFF30CFFFFFFFFFFFFFFFFFFF90
7FFE00BDFFFFECCCCCFFFFFCCC40
8FFD0009FFFF800002FFFFF10000
6FFC000CFFFF500006FFFFD00000
1CFD001FFFFFFFFFFFFFFF900000
0058104FFFFFFFFFFFFFFF600000
0000007FFFFA33334FFFFF300000
000000AFFFF600005FFFFE000000
000000EFFFF300008FFFFB000000
000002FFFFE00000BFFFF8000000
000005FFFFB00000EFFFF5000000
000008FFFF800002FFFFF2000000
00000CFFFF500005FFFFD0000000
00000FFFFF200009FFFFA0000000
00003FFFFE00000CFFFF70000000
00006FFFFB00000FFFFF40000000
0000AFFFF800003FFFFF10000000
0000DFFFF400006FFFFC00000000
0001FFFFF100009FFFF900000000
0004FFFFD00000CFFFF600000000
ENDCHAR
STARTCHAR hbar
ENCODING 295
SWIDTH 505 0
DWIDTH 18 0
BBX 22 26 -2 0
BITMAP
0000000000210000000000
0000029BDFF10000000000
000005FFFFC00000000000
000009FFFF900000000000
004FFFFFFFFFFD00000000
007FFFFFFFFFFA00000000
00235FFFFF333100000000
00006FFFFC000000000000
00009FFFF829DFD8100000
0000CFFFFAFFFFFFB00000
0001FFFFFFFFFFFFF30000
0004FFFFFC22EFFFF60000
0007FFFFE200AFFFF60000
000AFFFF9000AFFFF40000
000DFFFF4000DFFFF20000
001FFFFF1001FFFFE00000
005FFFFC0004FFFFB00000
008FFFF90007FFFF700000
00BFFFF6000BFFFF400000
00EFFFF3000EFFFF100032
03FFFFE0001FFFFC0002F6
06FFFFB0003FFFFB000AE1
09FFFF80003FFFFE218F70
0DFFFF50000EFFFFFFFC00
1FFFFF200007FFFFFFC100
4FFFFE0000006CFEC60000
ENDCHAR
STARTCHAR Itilde
ENCODING 296
SWIDTH 375 0
DWIDTH 14 0
BBX 20 33 0 0
BITMAP
00000004ADEEB6100021
0000009FFFFFFFFB8990
000008A8AEFFFFFFF900
00001200015ADFD93000
00000000000000000000
00000000000000000000
0000000048BEFF300000
0000006DFFFFFF000000
00004DFFDFFFFC000000
0007FFC39FFFF9000000
008FFB10CFFFF5000000
05FFD100FFFFF2000000
1EFF6003FFFFE0000000
7FFE1007FFFFB0000000
AFFB000AFFFF80000000
BFF9000DFFFF40000000
AFF9001FFFFF10000000
4FFA004FFFFD00000000
039A008FFFFA00000000
000000BFFFF700000000
000000EFFFF300000000
000002FFFFF000000000
000005FFFFC000000000
000009FFFF9000000000
00000CFFFF6000000000
00000FFFFF2000000000
00003FFFFE0000000000
00007FFFFB0000000000
0000AFFFF80000000000
0000DFFFF50000000000
0001FFFFF10000000000
0004FFFFD00000000000
0008FFFFA00000000000
ENDCHAR
STARTCHAR itilde
ENCODING 297
SWIDTH 267 0
DWIDTH 10 0
BBX 12 25 -1 0
BITMAP
000047610000
001BFFFE8226
00BFFFFFFFE2
04A8BFFFFE40
010001575100
000000000000
000000000000
000AFFFF8000
000DFFFF5000
001FFFFF1000
004FFFFD0000
008FFFFA0000
00BFFFF70000
00EFFFF40000
02FFFFF10000
06FFFFC00000
09FFFF900000
0CFFFF600000
0FFFFF300048
3FFFFF0000DA
4FFFFE0009F4
3FFFFFA8CFA0
1FFFFFFFFD10
08FFFFFFB100
007DFEA40000
ENDCHAR
STARTCHAR Imacron
ENCODING 298
SWIDTH 375 0
DWIDTH 14 0
BBX 18 33 0 0
BITMAP
000000233333333331
000001FFFFFFFFFFF7
000005FFFFFFFFFFF3
000000000000000000
000000000000000000
000000000000000000
0000000048BEFF3000
0000006DFFFFFF0000
00004DFFDFFFFC0000
0007FFC39FFFF90000
008FFB10CFFFF50000
05FFD100FFFFF20000
1EFF6003FFFFE00000
7FFE1007FFFFB00000
AFFB000AFFFF800000
BFF9000DFFFF400000
AFF9001FFFFF100000
4FFA004FFFFD000000
039A008FFFFA000000
000000BFFFF7000000
000000EFFFF3000000
000002FFFFF0000000
000005FFFFC0000000
000009FFFF90000000
00000CFFFF60000000
00000FFFFF20000000
00003FFFFE00000000
00007FFFFB00000000
0000AFFFF800000000
0000DFFFF500000000
0001FFFFF100000000
0004FFFFD000000000
0008FFFFA000000000
ENDCHAR
STARTCHAR imacron
ENCODING 299
SWIDTH 267 0
DWIDTH 10 0
BBX 12 24 -1 0
BITMAP
00CFFFFFFFF9
01FFFFFFFFF6
013333333331
000000000000
000000000000
000000000000
000AFFFF8000
000DFFFF5000
001FFFFF1000
004FFFFD0000
008FFFFA0000
00BFFFF70000
00EFFFF40000
02FFFFF10000
06FFFFC00000
09FFFF900000
0CFFFF600000
0FFFFF300048
3FFFFF0000DA
4FFFFE0009F4
3FFFFFA8CFA0
1FFFFFFFFD10
08FFFFFFB100
007DFEA40000
ENDCHAR
STARTCHAR Ibreve
ENCODING 300
SWIDTH 375 0
DWIDTH 14 0
BBX 20 34 0 0
BITMAP
00000068840000007882
000000AFFA000004FFE0
0000005FFF71028FFF40
0000000AFFFFFFFFD300
000000005BEFED950000
00000000000000000000
00000000000000000000
0000000048BEFF300000
0000006DFFFFFF000000
00004DFFDFFFFC000000
0007FFC39FFFF9000000
008FFB10CFFFF5000000
05FFD100FFFFF2000000
1EFF6003FFFFE0000000
7FFE1007FFFFB0000000
AFFB000AFFFF80000000
BFF9000DFFFF40000000
AFF9001FFFFF10000000
4FFA004FFFFD00000000
039A008FFFFA00000000
000000BFFFF700000000
000000EFFFF300000000
000002FFFFF000000000
000005FFFFC000000000
000009FFFF9000000000
00000CFFFF6000000000
00000FFFFF2000000000
00003FFFFE0000000000
00007FFFFB0000000000
0000AFFFF80000000000
0000DFFFF50000000000
0001FFFFF10000000000
0004FFFFD00000000000
0008FFFFA00000000000
ENDCHAR
STARTCHAR ibreve
ENCODING 301
SWIDTH 267 0
DWIDTH 10 0
BBX 13 26 -1 0
BITMAP
00BFD00000CFB0
00AFF10004FF60
005FFB216EFC00
000CFFFFFFB100
00018DEEB50000
00000000000000
00000000000000
00000000000000
000AFFFF800000
000DFFFF500000
001FFFFF100000
004FFFFD000000
008FFFFA000000
00BFFFF7000000
00EFFFF4000000
02FFFFF1000000
06FFFFC0000000
09FFFF90000000
0CFFFF60000000
0FFFFF30004800
3FFFFF0000DA00
4FFFFE0009F400
3FFFFFA8CFA000
1FFFFFFFFD1000
08FFFFFFB10000
007DFEA4000000
ENDCHAR
STARTCHAR Iogonek
ENCODING 302
SWIDTH 375 0
DWIDTH 14 0
BBX 15 44 0 -8
BITMAP
000000AFFF000000
0000006FFF200000
0000001FFF500000
0000000CFF700000
00000007FF900000
00000003FFB00000
00000000DFE00000
0000000000000000
0000000000000000
0000000048BEFF30
0000006DFFFFFF00
00004DFFDFFFFC00
0007FFC29FFFF900
008FFB10CFFFF500
05FFD100FFFFF200
1EFF6003FFFFE000
7FFE1007FFFFB000
AFFB000AFFFF8000
BFF9000DFFFF4000
AFF9001FFFFF1000
4FFA004FFFFD0000
039A008FFFFA0000
000000BFFFF70000
000000EFFFF30000
000002FFFFF00000
000005FFFFC00000
000009FFFF900000
00000CFFFF600000
00000FFFFF200000
00003FFFFE000000
00007FFFFB000000
0000AFFFF8000000
0000DFFFF5000000
0001FFFFF1000000
0004FFFFD0000000
0008FFFFA0000000
0001BE3000000000
001CF60000000000
007FF20000000000
00CFF30001000000
00CFFB216E200000
007FFFFFF7000000
0007EFFC40000000
0000021000000000
ENDCHAR
STARTCHAR iogonek
ENCODING 303
SWIDTH 267 0
DWIDTH 10 0
BBX 13 33 -2 -8
BITMAP
0000007DE70000
000006FFFF7000
00000BFFFFC000
00000BFFFFC000
000006FFFF7000
0000007EE80000
00000000000000
0000AFFFF80000
0000DFFFF50000
0001FFFFF10000
0004FFFFD00000
0008FFFFA00000
000BFFFF700000
000EFFFF400000
002FFFFF100000
006FFFFC000000
009FFFF9000000
00CFFFF6000000
00FFFFF3000480
03FFFFF0000DA0
04FFFFE0009F40
03FFFFFA8CFA00
01FFFFFFFFD100
008FFFFFFB1000
000CFFEA400000
00BF5000000000
0AFB0000000000
3FF70000000000
7FF80001100000
7FFE414C700000
2EFFFFFC100000
04DFFE70000000
00012000000000
ENDCHAR
STARTCHAR Idotaccent
ENCODING 304
SWIDTH 375 0
DWIDTH 14 0
BBX 16 35 0 0
BITMAP
000000000019ED60
00000000008FFFF4
0000000000DFFFFA
0000000000EFFFFA
00000000009FFFF5
000000000019ED60
0000000000000000
0000000000000000
0000000048BEFF30
0000006DFFFFFF00
00004DFFDFFFFC00
0007FFC39FFFF900
008FFB10CFFFF500
05FFD100FFFFF200
1EFF6003FFFFE000
7FFE1007FFFFB000
AFFB000AFFFF8000
BFF9000DFFFF4000
AFF9001FFFFF1000
4FFA004FFFFD0000
039A008FFFFA0000
000000BFFFF70000
000000EFFFF30000
000002FFFFF00000
000005FFFFC00000
000009FFFF900000
00000CFFFF600000
00000FFFFF200000
00003FFFFE000000
00007FFFFB000000
0000AFFFF8000000
0000DFFFF5000000
0001FFFFF1000000
0004FFFFD0000000
0008FFFFA0000000
ENDCHAR
STARTCHAR dotlessi
ENCODING 305
SWIDTH 267 0
DWIDTH 10 0
BBX 12 18 -1 0
BITMAP
000AFFFF8000
000DFFFF5000
001FFFFF1000
004FFFFD0000
008FFFFA0000
00BFFFF70000
00EFFFF40000
02FFFFF10000
06FFFFC00000
09FFFF900000
0CFFFF600000
0FFFFF300048
3FFFFF0000DA
4FFFFE0009F4
3FFFFFA8CFA0
1FFFFFFFFD10
08FFFFFFB100
007DFEA40000
ENDCHAR
STARTCHAR IJ
ENCODING 306
SWIDTH 663 0
DWIDTH 24 0
BBX 25 35 0 -8
BITMAP
0000000048BEFE300000369D20
0000006DFFFFFF00003EFFFE00
00004DFFDFFFFC00007FFFFB00
0007FFC29FFFF90000AFFFF700
008FFB10CFFFF50000EFFFF400
05FFD100FFFFF20002FFFFF100
1EFF6003FFFFE00005FFFFD000
7FFE1007FFFFB00009FFFFA000
AFFB000AFFFF80000CFFFF6000
BFF9000DFFFF40001FFFFF3000
AFF9001FFFFF10004FFFFF0000
4FFA004FFFFD00007FFFFC0000
039A008FFFFA0000BFFFF90000
000000BFFFF70000EFFFF50000
000000EFFFF30002FFFFF20000
000002FFFFF00006FFFFE00000
000005FFFFC00009FFFFB00000
000009FFFF90000CFFFF800000
00000CFFFF50001FFFFF400000
00000FFFFF20004FFFFF100000
00003FFFFE00007FFFFD000000
00007FFFFB0000BFFFFA000000
0000AFFFF80000EFFFF7000000
0000DFFFF40002FFFFF3000000
0001FFFFF20006FFFFF0000000
0004FFFFFE7009FFFFC0000000
0008FFFFFFF40CFFFF80000000
00009FFFB8D51FFFFF40000000
0000DFF800014FFFFD00000000
0000EFF200009FFFF600000000
0000DFF30002EFFFC000000000
00008FFC313CFFFE2000000000
00001CFFFFFFFFD30000000000
0000018DFFFFC7100000000000
00000000122100000000000000
ENDCHAR
STARTCHAR ij
ENCODING 307
SWIDTH 507 0
DWIDTH 18 0
BBX 21 34 -1 -9
BITMAP
000007DE7000004CEA1000
00006FFFF70002EFFFB000
0000BFFFFC0006FFFFF200
0000BFFFFC0006FFFFF200
00006FFFF70002EFFFC000
000007EE8000004CEA2000
0000000000000000000000
000AFFFF80000FFFFF3000
000DFFFF50003FFFFE0000
001FFFFF10007FFFFB0000
004FFFFD0000AFFFF80000
008FFFFA0000DFFFF50000
00BFFFF70001FFFFF10000
00EFFFF40004FFFFD00000
02FFFFF10007FFFFA00000
06FFFFC0000BFFFF700000
09FFFF90000EFFFF300000
0CFFFF60002FFFFF000000
0FFFFF30005FFFFC000760
3FFFFF00008FFFF9002F60
4FFFFE0000CFFFF6009E10
3FFFFFA740EFFFF204F700
1FFFFFFF33FFFFE06FB000
08FFFFFA06FFFFEDF91000
007DFD7009FFFFFC500000
000000039EFFFF60000000
000002BFFFFFFF20000000
00004EE75FFFFE00000000
0002EE208FFFFA00000000
0007F700DFFFF600000000
000AF706FFFFE100000000
0008FFCFFFFF6000000000
0002EFFFFFF80000000000
000029DFDA300000000000
ENDCHAR
STARTCHAR Jcircumflex
ENCODING 308
SWIDTH 536 0
DWIDTH 19 0
BBX 23 43 0 -7
BITMAP
000000000000000000017000
0000000000000000002DF300
000000000000000002DFF700
00000000000000003EFFFC00
0000000000000004EFFBFF20
000000000000005FFB309F60
00000000000006FB40000CB0
000000000000274000000270
000000000000000000000000
0000000000000016ADEFB000
0000000000002AFFFFFF7000
000000000018FFDEFFFF4000
0000000002CFF81FFFFF1000
000000002DFF504FFFFD0000
00000000CFF8008FFFF90000
00000007FFD000BFFFF60000
0000000EFF8000EFFFF30000
0000003FFF4003FFFFF00000
0000004FFF2006FFFFC00000
0000002FFF100AFFFF800000
0000000BFF200DFFFF500000
000000017B501FFFFF200000
0000000000005FFFFE000000
0000000000008FFFFB000000
000000000000CFFFF7000000
000000000000FFFFF4000000
000000000003FFFFF1000000
000000000007FFFFD0000000
00000000000AFFFF90000000
00000000000EFFFF60000000
00000000002FFFFF30000000
00000000005FFFFF00000000
00000000009FFFFC00000000
0002553000CFFFF800000000
009FFFFD21FFFFF500000000
08FFFFFF74FFFFF100000000
1FFFE98C78FFFFB000000000
5FFE20001CFFFF6000000000
5FFA00002FFFFD0000000000
3FFC00008FFFF50000000000
0DFFA438FFFF800000000000
03EFFFFFFFE7000000000000
0029DFEDB710000000000000
ENDCHAR
STARTCHAR jcircumflex
ENCODING 309
SWIDTH 240 0
DWIDTH 9 0
BBX 19 36 -8 -9
BITMAP
000000000000005F3000
00000000000006FF8000
0000000000008FFFC000
00000000000AFFFFF200
0000000001BFFA2BF700
000000001CFA2001DC00
00000001AA3000003C10
00000000000000000000
00000000000000000000
00000000009FFFF90000
0000000000DFFFF50000
0000000001FFFFF20000
0000000004FFFFE00000
0000000007FFFFB00000
000000000AFFFF800000
000000000EFFFF500000
000000002FFFFF200000
000000005FFFFE000000
000000008FFFFB000000
00000000BFFFF8000000
00000000EFFFF4001200
00000003FFFFF1009E00
00000006FFFFD001E800
00000009FFFFA007E100
0000000CFFFF704F6000
0000001FFFFF47E70000
0000004FFFFFEC300000
000017DFFFFD30000000
0007EFFFFFF800000000
01CFFDEFFFF500000000
0AFE60EFFFF200000000
2FF303FFFFC000000000
4FC009FFFF6000000000
2FE47FFFFC0000000000
0AFFFFFFD20000000000
006CEEC6000000000000
ENDCHAR
STARTCHAR Kcommaaccent
ENCODING 310
SWIDTH 601 0
DWIDTH 22 0
BBX 24 36 0 -9
BITMAP
0000000048BEFE300004FFF7
0000006DFFFFFF10001DFFA0
00003CFFEFFFFC0000AFFC00
0006FFD48FFFF90006FFD100
006FFD10CFFFF6002EFE3000
04FFE200FFFFF300CFF50000
0DFF7003FFFFE008FF700000
6FFF1006FFFFC04FFA000000
AFFC000AFFFF81DFC0000000
BFFA000DFFFF5AFD10000000
AFF9001FFFFF8FE300000000
6FF9004FFFFFEF5000000000
07EC007FFFFFFFFFDA200000
000100BFFFFC9BFFFFE10000
000000EFFFF4009FFFF70000
000002FFFFF1004FFFF90000
000005FFFFD0004FFFF90000
000009FFFF90006FFFF70000
00000CFFFF60009FFFF30000
00000FFFFF3000DFFFE00000
00003FFFFE0002FFFFB00000
00006FFFFB0006FFFF700000
0000AFFFF8000AFFFF300000
0000DFFFF5000DFFFF000000
0001FFFFF2000FFFFD000000
0004FFFFD0001FFFFE100000
0008FFFFA0000AFFFF900000
000000000000005775200000
000000000000000000000000
0000000006EE400000000000
000000000EFFC00000000000
000000000AFFC00000000000
0000000001DF700000000000
0000000000DD100000000000
0000000009D2000000000000
000000000410000000000000
ENDCHAR
STARTCHAR kcommaaccent
ENCODING 311
SWIDTH 518 0
DWIDTH 19 0
BBX 22 34 -2 -9
BITMAP
00000179BDF10000000000
000005FFFFD00000000000
000008FFFFA00000000000
00000BFFFF600000000000
00000EFFFF300000000000
00003FFFFF000000000000
00006FFFFC000000000000
00009FFFF900004EFE5000
0000CFFFF50007FFB20000
0001FFFFF201AFF7000000
0004FFFFE02CFD30000000
0007FFFFB4EF9100000000
000AFFFFDFFFEFC3000000
000EFFFFFFFFFFFE200000
002FFFFFFFFFFFFFA00000
005FFFFFA20AFFFFD00000
008FFFFA0006FFFFE00000
00BFFFF60007FFFFC00000
00EFFFF30009FFFF900013
03FFFFF0000CFFFF6000AD
06FFFFC0000EFFFF4003F6
09FFFF80000EFFFF813DD0
0DFFFF50000CFFFFFFFF30
1FFFFF200004FFFFFFE500
4FFFFE0000004BEFE92000
0000000000000000000000
0000000000000000000000
00000007EE400000000000
0000000FFFC00000000000
0000000BFFB00000000000
00000001EF700000000000
00000001EC000000000000
0000000AD2000000000000
0000000410000000000000
ENDCHAR
STARTCHAR kgreenlandic
ENCODING 312
SWIDTH 518 0
DWIDTH 19 0
BBX 22 18 -2 0
BITMAP
0000AFFFF800004EFE5000
0000DFFFF50007FFB20000
0001FFFFF201AFF7000000
0004FFFFE02CFD30000000
0008FFFFB4EF9100000000
000BFFFFDFFFEFC3000000
000EFFFFFFFFFFFE200000
002FFFFFFFFFFFFFA00000
005FFFFFA20AFFFFD00000
009FFFFA0006FFFFE00000
00CFFFF60007FFFFC00000
00FFFFF30009FFFF900013
03FFFFF0000CFFFF6000AD
06FFFFC0000EFFFF4003F6
0AFFFF80000EFFFF813DD0
0DFFFF50000CFFFFFFFF30
1FFFFF200004FFFFFFE500
4FFFFE0000004BEFE92000
ENDCHAR
STARTCHAR Lacute
ENCODING 313
SWIDTH 379 0
DWIDTH 14 0
BBX 24 44 0 -9
BITMAP
00000000000001EFFA000000
00000000000008FFE1000000
0000000000001EFF50000000
0000000000008FFA00000000
000000000001EFE100000000
000000000008FF5000000000
000000000007860000000000
000000000000000000000000
0000000048BEFF3000000000
0000006DFFFFFF0000000000
00004DFFDFFFFC0000000000
0007FFC39FFFF80000000000
008FFB10CFFFF50000000000
05FFD101FFFFF20000000000
1EFF6003FFFFE00000000000
7FFE1007FFFFB00000000000
AFFB000AFFFF700000000000
BFF9000DFFFF400000000000
AFF9001FFFFF100000000000
4FFA005FFFFD000000000000
039A008FFFF9000000000000
000000BFFFF6000000000000
000000EFFFF3000000000000
000003FFFFF0000000000000
000006FFFFC0000000000000
000009FFFF80000000000000
00000CFFFF50000000000000
00001FFFFF20000000000000
00004FFFFE00000000000000
00007FFFFB00000000000000
0000AFFFF700000000000000
0000DFFFF400000000000000
0002FFFFF100000000000000
0005FFFFD000000000000000
0008FFFFFB60000000000000
00058AEFFFFD500000000000
00000005CFFFFB3000000000
0000000007FFFFFA20000000
00000000003DFFFFFA521136
000000000001BFFFFFFFFFFA
00000000000008FFFFFFFFF7
000000000000005EFFFFFFF2
0000000000000002BFFFFF80
000000000000000005BEE800
ENDCHAR
STARTCHAR lacute
ENCODING 314
SWIDTH 267 0
DWIDTH 10 0
BBX 14 34 -1 0
BITMAP
00000000018885
0000000007FFF3
000000000EFF80
000000006FFD10
00000000DFF400
00000005FFA000
0000000CFE1000
00000018840000
00000000000000
00000135681000
00004FFFFE0000
00007FFFFB0000
0000AFFFF70000
0000EFFFF40000
0002FFFFF10000
0005FFFFC00000
0009FFFF900000
000CFFFF600000
000FFFFF200000
003FFFFE000000
007FFFFB000000
00AFFFF8000000
00DFFFF4000000
02FFFFF1000000
05FFFFD0000000
08FFFF90000000
0CFFFF60000000
0FFFFF30004700
2FFFFF0000CB00
4FFFFE0009F400
3FFFFFB8CFA000
1FFFFFFFFD1000
08FFFFFFB10000
007DFEA4000000
ENDCHAR
STARTCHAR Lcommaaccent
ENCODING 315
SWIDTH 379 0
DWIDTH 14 0
BBX 24 36 0 -9
BITMAP
0000000048BEFF3000000000
0000006DFFFFFF0000000000
00004DFFDFFFFC0000000000
0007FFC39FFFF80000000000
008FFB10CFFFF50000000000
05FFD101FFFFF20000000000
1EFF6003FFFFE00000000000
7FFE1007FFFFB00000000000
AFFB000AFFFF700000000000
BFF9000DFFFF400000000000
AFF9001FFFFF100000000000
4FFA005FFFFD000000000000
039A008FFFF9000000000000
000000BFFFF6000000000000
000000EFFFF3000000000000
000003FFFFF0000000000000
000006FFFFC0000000000000
000009FFFF80000000000000
00000CFFFF50000000000000
00001FFFFF20000000000000
00004FFFFE00000000000000
00007FFFFB00000000000000
0000AFFFF700000000000000
0000DFFFF400000000000000
0002FFFFF100000000000000
0005FFFFD000000000000000
0008FFFFFB60000000000000
00058AEFFFFD500000000000
00000005CFFFFB3000000000
0005CA2007FFFFFA20000000
001FFF90003DFFFFFA521136
001EFFB00001BFFFFFFFFFFA
0005FF70000008FFFFFFFFF7
0000EE100000005EFFFFFFF2
0007F40000000002BFFFFF80
000B40000000000005BEE800
ENDCHAR
STARTCHAR lcommaaccent
ENCODING 316
SWIDTH 267 0
DWIDTH 10 0
BBX 12 34 -1 -9
BITMAP
00001579BD10
00005FFFFD00
00008FFFFA00
0000BFFFF700
0000EFFFF300
0003FFFFF000
0006FFFFC000
0009FFFF9000
000CFFFF5000
001FFFFF2000
004FFFFE0000
007FFFFA0000
00BFFFF70000
00EFFFF40000
02FFFFF10000
05FFFFC00000
09FFFF900000
0CFFFF600000
0FFFFF300047
3FFFFF0000CB
4FFFFE0009F4
3FFFFFB8CFA0
1FFFFFFFFD10
08FFFFFFB100
007DFEA40000
000000000000
000000000000
06EE50000000
0EFFD0000000
0AFFC0000000
01DF80000000
00DD10000000
09E300000000
042000000000
ENDCHAR
STARTCHAR Lcaron
ENCODING 317
SWIDTH 379 0
DWIDTH 14 0
BBX 24 44 0 -9
BITMAP
00000000009B000003AE4000
00000000004F8003AFD30000
00000000000EF7BFFC100000
000000000009FFFFA0000000
000000000004FFF800000000
000000000000EF6000000000
000000000000530000000000
000000000000000000000000
0000000048BEFF3000000000
0000006DFFFFFF0000000000
00004DFFDFFFFC0000000000
0007FFC39FFFF80000000000
008FFB10CFFFF50000000000
05FFD101FFFFF20000000000
1EFF6003FFFFE00000000000
7FFE1007FFFFB00000000000
AFFB000AFFFF700000000000
BFF9000DFFFF400000000000
AFF9001FFFFF100000000000
4FFA005FFFFD000000000000
039A008FFFF9000000000000
000000BFFFF6000000000000
000000EFFFF3000000000000
000003FFFFF0000000000000
000006FFFFC0000000000000
000009FFFF80000000000000
00000CFFFF50000000000000
00001FFFFF20000000000000
00004FFFFE00000000000000
00007FFFFB00000000000000
0000AFFFF700000000000000
0000DFFFF400000000000000
0002FFFFF100000000000000
0005FFFFD000000000000000
0008FFFFFB60000000000000
00058AEFFFFD500000000000
00000005CFFFFB3000000000
0000000007FFFFFA20000000
00000000003DFFFFFA521136
000000000001BFFFFFFFFFFA
00000000000008FFFFFFFFF7
000000000000005EFFFFFFF2
0000000000000002BFFFFF80
000000000000000005BEE800
ENDCHAR
STARTCHAR lcaron
ENCODING 318
SWIDTH 267 0
DWIDTH 10 0
BBX 16 27 -1 0
BITMAP
000000000003CEA0
00000000000CFFF5
00000135681BFFF7
00004FFFFE03EFF4
00007FFFFB008FD0
0000AFFFF700BF40
0000EFFFF407F700
0002FFFFF1045000
0005FFFFD0000000
0009FFFF90000000
000CFFFF60000000
000FFFFF30000000
003FFFFE00000000
007FFFFB00000000
00AFFFF800000000
00DFFFF400000000
02FFFFF100000000
05FFFFD000000000
08FFFFA000000000
0CFFFF6000000000
0FFFFF3000470000
2FFFFF0000CB0000
4FFFFE0008F40000
3FFFFFA7BFA00000
1FFFFFFFFD100000
08FFFFFFB1000000
007DFEA400000000
ENDCHAR
STARTCHAR Ldot
ENCODING 319
SWIDTH 605 0
DWIDTH 22 0
BBX 24 36 0 -9
BITMAP
0000000048BEFF3000000000
0000006DFFFFFF0000000000
00003CFFEFFFFC0000000000
0006FFD49FFFF80000000000
007FFC10CFFFF50000000000
04FFE200FFFFF20000000000
1DFF7003FFFFE00000000000
6FFF1007FFFFB00000000000
AFFC000AFFFF700000000000
BFFA000DFFFF400000000000
AFF9001FFFFF100000000000
5FF9004FFFFD000000000000
06DC008FFFFA000000000000
000000BFFFF6000000000000
000000EFFFF3000000000000
000002FFFFF00004CEA10000
000006FFFFC0002FFFFB0000
000009FFFF90007FFFFF1000
00000CFFFF50007FFFFF2000
00001FFFFF20002FFFFB0000
00004FFFFE000004DEA10000
00007FFFFB00000000000000
0000AFFFF800000000000000
0000DFFFF400000000000000
0002FFFFF100000000000000
0005FFFFD000000000000000
0008FFFFFA40000000000000
00058AEFFFFC400000000000
00000005CFFFFA2000000000
0000000007FFFFF920000000
00000000003DFFFFFA521136
000000000001BFFFFFFFFFFA
00000000000008FFFFFFFFF7
000000000000005EFFFFFFF2
0000000000000002BFFFFF80
000000000000000005BEE800
ENDCHAR
STARTCHAR ldot
ENCODING 320
SWIDTH 353 0
DWIDTH 13 0
BBX 14 26 -1 0
BITMAP
00000013571000
00003EFFFE0000
00006FFFFB0000
0000AFFFF80000
0000DFFFF50000
0001FFFFF10000
0004FFFFD00000
0007FFFFA00000
000BFFFF700000
000EFFFF300000
002FFFFF000000
005FFFFC03DE70
008FFFF90DFFF3
00CFFFF51FFFF6
00FFFFF20DFFF3
03FFFFE004DE70
06FFFFB0000000
09FFFF70000000
0DFFFF40000000
1FFFFF10000000
3FFFFE00000000
4FFFFF41100000
3FFFFFFF600000
1EFFFFFF200000
08FFFFF8000000
007DFD70000000
ENDCHAR
STARTCHAR Lslash
ENCODING 321
SWIDTH 392 0
DWIDTH 14 0
BBX 24 36 0 -9
BITMAP
0000000048BEFE3000000000
0000006DFFFFFF0000000000
00004DFFDFFFFC0000000000
0007FFC39FFFF90000000000
008FFB10CFFFF60000000000
05FFD100FFFFF30000000000
1EFF6003FFFFE00000000000
7FFE1006FFFFB00550000000
AFFB000AFFFF82BF60000000
BFF9000DFFFFCFFC20000000
AFF9001FFFFFFE6000000000
4FFA004FFFFF910000000000
039A007FFFFA000000000000
000000BFFFF7000000000000
00002BFFFFF4000000000000
0005EFFFFFF1000000000000
0008C8FFFFC0000000000000
000308FFFF90000000000000
00000CFFFF60000000000000
00000FFFFF20000000000000
00003FFFFE00000000000000
00007FFFFB00000000000000
0000AFFFF700000000000000
0000DFFFF400000000000000
0001FFFFF100000000000000
0005FFFFD000000000000000
0008FFFFFB60000000000000
00058AEFFFFD500000000000
00000005CFFFFB3000000000
0000000007FFFFF920000000
00000000003DFFFFFA521136
000000000001BFFFFFFFFFFA
00000000000008FFFFFFFFF7
000000000000005EFFFFFFF2
0000000000000002BFFFFF80
000000000000000005BEE800
ENDCHAR
STARTCHAR lslash
ENCODING 322
SWIDTH 286 0
DWIDTH 10 0
BBX 14 25 -2 0
BITMAP
000001579BD100
000005FFFFD000
000008FFFFA000
00000BFFFF7000
00000EFFFF3000
00003FFFFF0000
00006FFFFC0068
00009FFFF93CF8
0000CFFFFDFFA2
0001FFFFFFC300
0004FFFFE60000
0007FFFFA00000
002CFFFF700000
07EFFFFF400000
3FEFFFFF100000
386FFFFC000000
009FFFF9000000
00CFFFF6000000
00FFFFF3000470
03FFFFF0000CB0
04FFFFE0009F40
03FFFFFB8CFA00
01FFFFFFFFD100
008FFFFFFB1000
0007DFEA400000
ENDCHAR
STARTCHAR Nacute
ENCODING 323
SWIDTH 702 0
DWIDTH 25 0
BBX 26 36 0 0
BITMAP
00000000000000000000078860
000000000000000000005FFF40
00000000000000000000CFFA00
00000000000000000004FFE100
0000000000000000000BFF6000
0000000000000000003FFC0000
000000000000000000AFF30000
00000000000000000078500000
00000000000000000000000000
00000016BDEFDA00000000BFFB
000019FFFFFFFF30000000EFF8
0004EFFEBFFFFF70000002FFF4
004FFF917FFFFFA0000005FFF1
02EFF800BFFFFFD0000008FFD0
0BFFC000EFFFFFF200000CFFA0
3FFF5002FFFFFFF500000EFF60
8FFF0006FFFFFFF900003FFF30
BFFC0009FFFFFFFC00006FFF00
BFFC000CFFDFFFFF10009FFC00
AFFD001FFF8DFFFF4000CFF800
5FFF004FFF5AFFFF7000FFF500
07EF407FFF16FFFFA003FFF200
000320BFFD02FFFFE006FFE000
000000EFF900EFFFF209FFA000
000002FFF600AFFFF60CFF7000
000006FFF3007FFFF90FFF4000
000009FFE0003FFFFC3FFF1000
00000CFFB0000EFFFF7FFC0000
00001FFF70000BFFFFDFF90000
00004FFF400008FFFFFFF60000
00007FFF000004FFFFFFF30000
0000AFFC000001FFFFFFE00000
0000EFF8000000CFFFFFB00000
0002FFF50000009FFFFF800000
0005FFF10000005FFFFF500000
0009FFD00000002FFFFF100000
ENDCHAR
STARTCHAR nacute
ENCODING 324
SWIDTH 505 0
DWIDTH 18 0
BBX 22 27 -2 0
BITMAP
000000000000007FFF4000
00000000000000EFF90000
00000000000006FFE10000
0000000000000DFF500000
0000000000006FFA000000
000000000000DFE2000000
000000000004CC60000000
0000000000000000000000
0000000000000000000000
0000AFFFF83ADFD8100000
0000DFFFFBFFFFFFB00000
0001FFFFFFFFFFFFF30000
0004FFFFFC22EFFFF60000
0008FFFFE200AFFFF60000
000BFFFF9000AFFFF40000
000EFFFF4000DFFFF20000
002FFFFF1001FFFFE00000
005FFFFC0004FFFFB00000
009FFFF90007FFFF700000
00CFFFF6000BFFFF400000
00FFFFF3000EFFFF100032
03FFFFE0001FFFFC0002F6
06FFFFB0003FFFFB000AE1
0AFFFF80003FFFFE218F70
0DFFFF50000EFFFFFFFC00
1FFFFF200007FFFFFFC100
4FFFFE0000006CFEC60000
ENDCHAR
STARTCHAR Ncommaaccent
ENCODING 325
SWIDTH 668 0
DWIDTH 24 0
BBX 26 36 0 -9
BITMAP
00000016BDEFDA00000000BFFB
000019FFFFFFFF30000000EFF8
0004EFFEBFFFFF70000002FFF4
004FFF917FFFFFA0000005FFF1
02EFF800BFFFFFD0000008FFD0
0BFFC000EFFFFFF200000CFFA0
3FFF5002FFFFFFF500000EFF60
8FFF0006FFFFFFF900003FFF30
BFFC0009FFFFFFFC00006FFF00
BFFC000CFFDFFFFF10009FFC00
AFFD001FFF8DFFFF4000CFF800
5FFF004FFF5AFFFF7000FFF500
07EF407FFF16FFFFA003FFF200
000320BFFD02FFFFE006FFE000
000000EFF900EFFFF209FFA000
000002FFF600AFFFF60CFF7000
000006FFF3007FFFF90FFF4000
000009FFE0003FFFFC3FFF1000
00000CFFB0000EFFFF7FFC0000
00001FFF70000BFFFFDFF90000
00004FFF400008FFFFFFF60000
00007FFF000004FFFFFFF30000
0000AFFC000001FFFFFFE00000
0000EFF8000000CFFFFFB00000
0002FFF50000009FFFFF800000
0005FFF10000005FFFFF500000
0009FFD00000002FFFFF100000
00000000000000000000000000
00000000000000000000000000
0000000008ED30000000000000
000000002FFFA0000000000000
000000000CFFA0000000000000
0000000002FF50000000000000
0000000002FB00000000000000
000000000CC100000000000000
00000000051000000000000000
ENDCHAR
STARTCHAR ncommaaccent
ENCODING 326
SWIDTH 505 0
DWIDTH 18 0
BBX 22 27 -2 -9
BITMAP
0000AFFFF83ADFD8100000
0000DFFFFBFFFFFFB00000
0001FFFFFFFFFFFFF30000
0004FFFFFC22EFFFF60000
0008FFFFE200AFFFF60000
000BFFFF9000AFFFF40000
000EFFFF4000DFFFF20000
002FFFFF1001FFFFE00000
005FFFFC0004FFFFB00000
009FFFF90007FFFF700000
00CFFFF6000BFFFF400000
00FFFFF3000EFFFF100032
03FFFFE0001FFFFC0002F6
06FFFFB0003FFFFB000AE1
0AFFFF80003FFFFE218F70
0DFFFF50000EFFFFFFFC00
1FFFFF200007FFFFFFC100
4FFFFE0000006CFEC60000
0000000000000000000000
0000000000000000000000
0000007ED4000000000000
000001FFFB000000000000
000000CFFB000000000000
0000001EF6000000000000
0000001EC0000000000000
000000BD20000000000000
0000004100000000000000
ENDCHAR
STARTCHAR Ncaron
ENCODING 327
SWIDTH 668 0
DWIDTH 24 0
BBX 27 36 0 0
BITMAP
0000000000000000720000005710
0000000000000000CB00004CF500
00000000000000008F703BFE4000
00000000000000003FFBFFE30000
00000000000000000DFFFD300000
000000000000000009FFD2000000
000000000000000004FC10000000
0000000000000000007100000000
0000000000000000000000000000
00000016BDEFDA00000000BFFB00
000019FFFFFFFF30000000EFF800
0004EFFEBFFFFF70000002FFF400
004FFF917FFFFFA0000005FFF100
02EFF800BFFFFFD0000008FFD000
0BFFC000EFFFFFF200000CFFA000
3FFF5002FFFFFFF500000EFF6000
8FFF0006FFFFFFF900003FFF3000
BFFC0009FFFFFFFC00006FFF0000
BFFC000CFFDFFFFF10009FFC0000
AFFD001FFF8DFFFF4000CFF80000
5FFF004FFF5AFFFF7000FFF50000
07EF407FFF16FFFFA003FFF20000
000320BFFD02FFFFE006FFE00000
000000EFF900EFFFF209FFA00000
000002FFF600AFFFF60CFF700000
000006FFF3007FFFF90FFF400000
000009FFE0003FFFFC3FFF100000
00000CFFB0000EFFFF7FFC000000
00001FFF70000BFFFFDFF9000000
00004FFF400008FFFFFFF6000000
00007FFF000004FFFFFFF3000000
0000AFFC000001FFFFFFE0000000
0000EFF8000000CFFFFFB0000000
0002FFF50000009FFFFF80000000
0005FFF10000005FFFFF50000000
0009FFD00000002FFFFF10000000
ENDCHAR
STARTCHAR ncaron
ENCODING 328
SWIDTH 505 0
DWIDTH 18 0
BBX 22 27 -2 0
BITMAP
000000007D1000018E6000
000000002FA0018EE50000
000000000CF78EFE300000
0000000007FFFFD2000000
0000000003FFFC10000000
0000000000DFB100000000
0000000000790000000000
0000000000000000000000
0000000000000000000000
0000AFFFF83ADFD8100000
0000DFFFFBFFFFFFB00000
0001FFFFFFFFFFFFF30000
0004FFFFFC22EFFFF60000
0008FFFFE200AFFFF60000
000BFFFF9000AFFFF40000
000EFFFF4000DFFFF20000
002FFFFF1001FFFFE00000
005FFFFC0004FFFFB00000
009FFFF90007FFFF700000
00CFFFF6000BFFFF400000
00FFFFF3000EFFFF100032
03FFFFE0001FFFFC0002F6
06FFFFB0003FFFFB000AE1
0AFFFF80003FFFFE218F70
0DFFFF50000EFFFFFFFC00
1FFFFF200007FFFFFFC100
4FFFFE0000006CFEC60000
ENDCHAR
STARTCHAR napostrophe
ENCODING 329
SWIDTH 505 0
DWIDTH 18 0
BBX 22 27 -2 0
BITMAP
0002BEB200000000000000
0009FFF900000000000000
0007FFFA00000000000000
0000CFF700000000000000
00004FE100000000000000
00009F5000000000000000
0005F70000000000000000
0000300000000000000000
0000000000000000000000
0000AFFFF83ADFD8100000
0000DFFFFBFFFFFFB00000
0001FFFFFFFFFFFFF30000
0004FFFFFC22EFFFF60000
0008FFFFE200AFFFF60000
000BFFFF9000AFFFF40000
000EFFFF4000DFFFF20000
002FFFFF1001FFFFE00000
005FFFFC0004FFFFB00000
009FFFF90007FFFF700000
00CFFFF6000BFFFF400000
00FFFFF3000EFFFF100032
03FFFFE0001FFFFC0002F6
06FFFFB0003FFFFB000AE1
0AFFFF80003FFFFE218F70
0DFFFF50000EFFFFFFFC00
1FFFFF200007FFFFFFC100
4FFFFE0000006CFEC60000
ENDCHAR
STARTCHAR Eng
ENCODING 330
SWIDTH 723 0
DWIDTH 26 0
BBX 27 34 1 -7
BITMAP
000000038BEFEC700000000DFFA0
000003BFFFFFFFE00000001FFF60
00007FFFEDFFFFF30000004FFF30
0009FFF91AFFFFF60000008FFE00
007FFF600EFFFFF9000000BFFB00
02FFF8002FFFFFFD000000EFF700
09FFE1006FFFFFFF100002FFF400
0EFFA0009FFFFFFF400006FFF100
1FFF7000DFFFFFFF700009FFC000
2FFF6001FFFDFFFFB0000CFF9000
1FFF7004FFF6FFFFE0001FFF5000
0AFF9008FFE0EFFFF2004FFF2000
01AFD00BFFB0AFFFF5007FFD0000
0001310EFF706FFFF900AFFA0000
0000003FFF402FFFFC00EFF70000
0000007FFF100DFFFF02FFF30000
000000AFFC0009FFFF35FFE00000
000000DFF80005FFFF79FFB00000
000002FFF50001FFFFACFF800000
000005FFF10000CFFFEFFF400000
000009FFD000008FFFFFFF100000
00000CFF9000004FFFFFFD000000
00001FFF6000000EFFFFF9000000
00004FFF2000000BFFFFF6000000
00007FFE00000006FFFFF2000000
0000BFFB00000002FFFFD0000000
0000EFF700000000DFFF80000000
000000005BA50000DFFF20000000
00000003FFE20003FFFB00000000
00000006FF900009FFF300000000
00000006FFA0003FFF8000000000
00000002EFF514DFFA0000000000
000000005EFFFFFF800000000000
00000000027ABA82000000000000
ENDCHAR
STARTCHAR eng
ENCODING 331
SWIDTH 505 0
DWIDTH 18 0
BBX 18 27 -2 -9
BITMAP
0000BFFFF63ADFD800
0000EFFFF8FFFFFF90
0002FFFFFFFFFFFFE0
0005FFFFFD44FFFFF2
0008FFFFE100CFFFF2
000BFFFF8000CFFFF1
000EFFFF3000EFFFF0
003FFFFF0001FFFFD0
006FFFFC0004FFFFA0
009FFFF90007FFFF70
00CFFFF6000AFFFF40
01FFFFF2000EFFFF10
04FFFFE0002FFFFD00
07FFFFB0005FFFFA00
0AFFFF80008FFFF600
0DFFFF5000CFFFF300
1FFFFF1000FFFFF000
5FFFFD0003FFFFC000
000000029EFFFF9000
0000019FDDFFFF5000
00001CD40DFFFF2000
0000AC102FFFFD0000
0002F3007FFFF90000
0004F000DFFFF30000
0002F74BFFFF800000
0000AFFFFFFA000000
000006CEEB50000000
ENDCHAR
STARTCHAR Omacron
ENCODING 332
SWIDTH 665 0
DWIDTH 24 0
BBX 24 33 0 0
BITMAP
0000000000DFFFFFFFFFFA00
0000000002FFFFFFFFFFF700
000000000133333333333100
000000000000000000000000
000000000000000000000000
000000000000000000000000
00000000026ACEFFDB820000
00000005BFFFFFFFFFFF8000
000004DFFFB743359FFFF900
00009FFFA201566104FFFF40
000BFFE4008EFFA100AFFFC0
00AFFE301CFFFC00006FFFF2
06FFF400BFFFF200004FFFF5
0DFFA007FFFF8000003FFFF8
3FFF402EFFFF1000003FFFF9
6FFF109FFFFA0000003FFFF9
5FFE01FFFFF30000005FFFF8
1EFD07FFFFD00000006FFFF7
04BE1CFFFF800000009FFFF5
00002FFFFF40000000CFFFF2
00006FFFFF00000001FFFFE0
00009FFFFC00000005FFFFA0
0000CFFFF90000000AFFFF50
0000EFFFF60000001EFFFE10
0001FFFFF50000006FFFF900
0001FFFFF4000000DFFFF200
0001FFFFF4000007FFFF9000
0000FFFFF500002EFFFD1000
0000CFFFF80001CFFFF30000
00008FFFFE203CFFFF500000
00001EFFFFFEFFFFE5000000
000004EFFFFFFFFB20000000
00000018CEFEC83000000000
ENDCHAR
STARTCHAR omacron
ENCODING 333
SWIDTH 433 0
DWIDTH 16 0
BBX 21 24 -1 0
BITMAP
00002FFFFFFFFFFF600000
00006FFFFFFFFFFF200000
0000133333333333000000
0000000000000000000000
0000000000000000000000
0000000000000000000000
00000039DEFC7000000000
000019FFFFFFF900000000
0001CFFFF73BFF30000000
000AFFFF6005FF80000020
006FFFFC0009FFA0002AD0
01EFFFF4003FFFC46BFB20
07FFFFD0004FFFFFFB4000
0CFFFF70000AFFC4100000
1FFFFF300008FF70000000
5FFFFE00000BFF40000000
8FFFFC00001EFF10000000
9FFFFA00005FFB00000000
BFFFFA0000CFF600000000
AFFFFB0006FFD000000000
7FFFFF416FFF4000000000
1EFFFFFFFFF70000000000
05FFFFFFFE600000000000
0029DFFC82000000000000
ENDCHAR
STARTCHAR Obreve
ENCODING 334
SWIDTH 665 0
DWIDTH 24 0
BBX 24 34 0 0
BITMAP
00000000000FFF4000003FFD
00000000000DFF800000BFF8
000000000007FFF6114CFFB0
000000000000BFFFFFFFF800
00000000000006BEFDB72000
000000000000000000000000
000000000000000000000000
00000000026ACEFFDB820000
00000005BFFFFFFFFFFF8000
000004DFFFB743359FFFF900
00009FFFA201566104FFFF40
000BFFE4008EFFA100AFFFC0
00AFFE301CFFFC00006FFFF2
06FFF400BFFFF200004FFFF5
0DFFA007FFFF8000003FFFF8
3FFF402EFFFF1000003FFFF9
6FFF109FFFFA0000003FFFF9
5FFE01FFFFF30000005FFFF8
1EFD07FFFFD00000006FFFF7
04BE1CFFFF800000009FFFF5
00002FFFFF40000000CFFFF2
00006FFFFF00000001FFFFE0
00009FFFFC00000005FFFFA0
0000CFFFF90000000AFFFF50
0000EFFFF60000001EFFFE10
0001FFFFF50000006FFFF900
0001FFFFF4000000DFFFF200
0001FFFFF4000007FFFF9000
0000FFFFF500002EFFFD1000
0000CFFFF80001CFFFF30000
00008FFFFE203CFFFF500000
00001EFFFFFEFFFFE5000000
000004EFFFFFFFFB20000000
00000018CEFEC83000000000
ENDCHAR
STARTCHAR obreve
ENCODING 335
SWIDTH 433 0
DWIDTH 16 0
BBX 21 26 -1 0
BITMAP
00002FFF1000006FFB0000
00001FFF500001DFF50000
00000AFFE5115DFF900000
000001DFFFFFFFE7000000
00000017CEFDB710000000
0000000000000000000000
0000000000000000000000
0000000000000000000000
00000039DEFC7000000000
000019FFFFFFF900000000
0001CFFFF73BFF30000000
000AFFFF6005FF80000020
006FFFFC0009FFA0002AD0
01EFFFF4003FFFC46BFB20
07FFFFD0004FFFFFFB4000
0CFFFF70000AFFC4100000
1FFFFF300008FF70000000
5FFFFE00000BFF40000000
8FFFFC00001EFF10000000
9FFFFA00005FFB00000000
BFFFFA0000CFF600000000
AFFFFB0006FFD000000000
7FFFFF416FFF4000000000
1EFFFFFFFFF70000000000
05FFFFFFFE600000000000
0029DFFC82000000000000
ENDCHAR
STARTCHAR Ohungarumlaut
ENCODING 336
SWIDTH 665 0
DWIDTH 24 0
BBX 27 36 0 0
BITMAP
00000000000000009FFE20CFFD10
0000000000000002FFF504FFF300
0000000000000008FF900BFF7000
000000000000001EFD103FFB0000
000000000000007FF300AFE10000
00000000000000EF6002FF400000
00000000000006FB0009F8000000
0000000000000000000000000000
0000000000000000000000000000
00000000026ACEFFDB8200000000
00000005BFFFFFFFFFFF80000000
000004DFFFB743359FFFF9000000
00009FFFA201566104FFFF400000
000BFFE4008EFFA100AFFFC00000
00AFFE301CFFFC00006FFFF20000
06FFF400BFFFF200004FFFF50000
0DFFA007FFFF8000003FFFF80000
3FFF402EFFFF1000003FFFF90000
6FFF109FFFFA0000003FFFF90000
5FFE01FFFFF30000005FFFF80000
1EFD07FFFFD00000006FFFF70000
04BE1CFFFF800000009FFFF50000
00002FFFFF40000000CFFFF20000
00006FFFFF00000001FFFFE00000
00009FFFFC00000005FFFFA00000
0000CFFFF90000000AFFFF500000
0000EFFFF60000001EFFFE100000
0001FFFFF50000006FFFF9000000
0001FFFFF4000000DFFFF2000000
0001FFFFF4000007FFFF90000000
0000FFFFF500002EFFFD10000000
0000CFFFF80001CFFFF300000000
00008FFFFE203CFFFF5000000000
00001EFFFFFEFFFFE50000000000
000004EFFFFFFFFB200000000000
00000018CEFEC830000000000000
ENDCHAR
STARTCHAR ohungarumlaut
ENCODING 337
SWIDTH 433 0
DWIDTH 16 0
BBX 21 27 -1 0
BITMAP
000000000DFFC01EFFA000
000000005FFE207FFD1000
00000000CFF501EFF30000
00000004FF9006FF700000
0000000BFD100DFB000000
0000003FF3005FE1000000
000000AF7000CF40000000
0000000000000000000000
0000000000000000000000
00000039DEFC7000000000
000019FFFFFFF900000000
0001CFFFF73BFF30000000
000AFFFF6005FF80000020
006FFFFC0009FFA0002AD0
01EFFFF4003FFFC46BFB20
07FFFFD0004FFFFFFB4000
0CFFFF70000AFFC4100000
1FFFFF300008FF70000000
5FFFFE00000BFF40000000
8FFFFC00001EFF10000000
9FFFFA00005FFB00000000
BFFFFA0000CFF600000000
AFFFFB0006FFD000000000
7FFFFF416FFF4000000000
1EFFFFFFFFF70000000000
05FFFFFFFE600000000000
0029DFFC82000000000000
ENDCHAR
STARTCHAR OE
ENCODING 338
SWIDTH 846 0
DWIDTH 30 0
BBX 33 27 0 0
BITMAP
00000000026ACEFFECA9CEEFFFFFFFFFB0
00000005CFFFFFFFFFFFFFFFFFFFFFFF60
000004DFFFB743359FFFFFFFFFFFFFFD10
00009FFF9216BCB205FFFF6479BDEEA200
001BFFD403DFFF4000BFFFB00000000000
00AFFE303EFFF800007FFFF20000000000
06FFF401DFFFD000004FFFF50000000000
0EFFA00AFFFF6000003FFFF70000000000
4FFF403FFFFE1000003FFFF80000000000
6FFF00BFFFF80000003FFFF90000000000
5FFD03FFFFF20000004FFFF80000000000
1EFD08FFFFD00000006FFFF70000000000
029C1DFFFF800000008FFFFFFFFF100000
00003FFFFF40000000BFFFFFFFFC000000
00006FFFFF00000000EFFFE99995000000
0000AFFFFC00000003FFFFA00000000000
0000CFFFF900000008FFFF600000000000
0000EFFFF70000000DFFFE100000000000
0001FFFFF50000003FFFF9000000000000
0001FFFFF4000000AFFFF2000000000000
0001FFFFF4000002FFFF80000000000000
0000FFFFF400000AFFFD10000000000000
0000CFFFF600005FFFF300000000000000
00008FFFFA0004EFFFFFFFFFFFF7000000
00001EFFFF638FFFFFFFFFFFFFF4000000
000003EFFFFFFFFFFFFFFFFFFFF1000000
00000017CEFFEFFFFFFFFFFFFFE0000000
ENDCHAR
STARTCHAR oe
ENCODING 339
SWIDTH 663 0
DWIDTH 24 0
BBX 27 18 -1 0
BITMAP
00000039CEEC500017CEFD920000
00001AFFFFFFF603DFFFFFFD1000
0002DFFFD53BFE3EFFFE64EF7000
000CFFFE2004FFEFFFF300AF9000
007FFFF70009FFFFFF90009F8000
01EFFFE1006FFFFFFF2000CF4000
06FFFF9000AFFFFFFA0004FC0000
0AFFFF40007FFFFFF5002EE30000
0EFFFF000006FFFFF105ED300000
1FFFFC000007FFFFEADE81000000
3FFFFA00000AFFFFEA6100000000
3FFFF900000EFFFF700000001D90
4FFFF800005FFFFF60000000AD10
3FFFFB0000CFFFFF80000009F400
0FFFFF612AFFFFFFE20003CF5000
0AFFFFFFFFF9CFFFFFA9CFE40000
02EFFFFFFF802DFFFFFFFB200000
0028DEFD9200018DEED940000000
ENDCHAR
STARTCHAR Racute
ENCODING 340
SWIDTH 601 0
DWIDTH 22 0
BBX 21 37 0 -1
BITMAP
0000000000000000488810
0000000000000001EFFA00
0000000000000007FFE100
000000000000001EFF5000
000000000000007FFA0000
00000000000001EFE10000
00000000000007FF500000
0000000000000000000000
0000000000000000000000
0000000038BEFEDB720000
0000005CFFFFFFFFFF8000
00003CFFFB74335AFFFA00
0005FFFA200000009FFF60
006FFF50479BD7001FFFC0
03FFF600EFFFF4000CFFE0
0DFFA002FFFFF1000CFFF0
5FFF3005FFFFD0001FFFC0
AFFD0008FFFF90006FFF70
BFFA000CFFFF6001DFFD10
BFF9000FFFFF300BFFE300
7FF9003FFFFE14CFFD3000
1AFB007FFFFFFFFFFA2000
002400AFFFFFDFFFFFD100
000000DFFFF501BFFFF600
000001FFFFF2004FFFF900
000005FFFFD0004FFFF900
000008FFFFA0006FFFF700
00000BFFFF70008FFFF300
00000EFFFF3000CFFFE000
00003FFFFF0001FFFFB000
00006FFFFC0006FFFF7000
00009FFFF80009FFFF3000
0000DFFFF5000DFFFF0000
0001FFFFF2000FFFFD0000
0004FFFFD0001FFFFE1000
0008FFFFA0000BFFFF9000
0000000000000057752000
ENDCHAR
STARTCHAR racute
ENCODING 341
SWIDTH 376 0
DWIDTH 14 0
BBX 17 27 -2 0
BITMAP
0000000000009FFE20
000000000002FFF700
000000000009FFC000
00000000001EFF3000
00000000008FF80000
0000000001EFD00000
0000000005CC400000
000000000000000000
000000000000000000
0000AFFFF817DEB200
0000DFFFF7DFFFFB00
0001FFFFFFEDFFFE00
0004FFFFF702FFFB00
0008FFFFA000AEB200
000BFFFF6000000000
000EFFFF3000000000
002FFFFF0000000000
005FFFFC0000000000
009FFFF90000000000
00CFFFF60000000000
00FFFFF30000000000
03FFFFE00000000000
06FFFFB00000000000
0AFFFF800000000000
0DFFFF500000000000
1FFFFF200000000000
4FFFFE000000000000
ENDCHAR
STARTCHAR Rcommaaccent
ENCODING 342
SWIDTH 601 0
DWIDTH 22 0
BBX 21 36 0 -9
BITMAP
0000000038BEFEDB720000
0000005CFFFFFFFFFF8000
00003CFFFB74335AFFFA00
0005FFFA200000009FFF60
006FFF50479BD7001FFFC0
03FFF600EFFFF4000CFFE0
0DFFA002FFFFF1000CFFF0
5FFF3005FFFFD0001FFFC0
AFFD0008FFFF90006FFF70
BFFA000CFFFF6001DFFD10
BFF9000FFFFF300BFFE300
7FF9003FFFFE14CFFD3000
1AFB007FFFFFFFFFFA2000
002400AFFFFFDFFFFFD100
000000DFFFF501BFFFF600
000001FFFFF2004FFFF900
000005FFFFD0004FFFF900
000008FFFFA0006FFFF700
00000BFFFF70008FFFF300
00000EFFFF3000CFFFE000
00003FFFFF0001FFFFB000
00006FFFFC0006FFFF7000
00009FFFF80009FFFF3000
0000DFFFF5000DFFFF0000
0001FFFFF2000FFFFD0000
0004FFFFD0001FFFFE1000
0008FFFFA0000BFFFF9000
0000000000000057752000
0000000000000000000000
000000003DE80000000000
00000000AFFF2000000000
000000006FFF1000000000
000000000AFC0000000000
0000000009F30000000000
000000005F600000000000
0000000023000000000000
ENDCHAR
STARTCHAR rcommaaccent
ENCODING 343
SWIDTH 376 0
DWIDTH 14 0
BBX 16 27 -2 -9
BITMAP
0000AFFFF817DEB2
0000DFFFF7DFFFFB
0001FFFFFFEDFFFE
0004FFFFF702FFFB
0008FFFFA000AEB2
000BFFFF60000000
000EFFFF30000000
002FFFFF00000000
005FFFFC00000000
009FFFF900000000
00CFFFF600000000
00FFFFF300000000
03FFFFE000000000
06FFFFB000000000
0AFFFF8000000000
0DFFFF5000000000
1FFFFF2000000000
4FFFFE0000000000
0000000000000000
0000000000000000
0001BFC100000000
0005FFF700000000
0002EFF600000000
00005FF200000000
00004F8000000000
0002EA0000000000
0000500000000000
ENDCHAR
STARTCHAR Rcaron
ENCODING 344
SWIDTH 601 0
DWIDTH 22 0
BBX 23 37 0 -1
BITMAP
000000000000450000002740
0000000000005F400029FA10
0000000000001EE22AFF8000
0000000000000AFEFFF60000
00000000000005FFFE400000
00000000000001EFD2000000
00000000000000AC10000000
000000000000000000000000
000000000000000000000000
0000000038BEFEDB72000000
0000005CFFFFFFFFFF800000
00003CFFFB74335AFFFA0000
0005FFFA200000009FFF6000
006FFF50479BD7001FFFC000
03FFF600EFFFF4000CFFE000
0DFFA002FFFFF1000CFFF000
5FFF3005FFFFD0001FFFC000
AFFD0008FFFF90006FFF7000
BFFA000CFFFF6001DFFD1000
BFF9000FFFFF300BFFE30000
7FF9003FFFFE14CFFD300000
1AFB007FFFFFFFFFFA200000
002400AFFFFFDFFFFFD10000
000000DFFFF501BFFFF60000
000001FFFFF2004FFFF90000
000005FFFFD0004FFFF90000
000008FFFFA0006FFFF70000
00000BFFFF70008FFFF30000
00000EFFFF3000CFFFE00000
00003FFFFF0001FFFFB00000
00006FFFFC0006FFFF700000
00009FFFF80009FFFF300000
0000DFFFF5000DFFFF000000
0001FFFFF2000FFFFD000000
0004FFFFD0001FFFFE100000
0008FFFFA0000BFFFF900000
000000000000005775200000
ENDCHAR
STARTCHAR rcaron
ENCODING 345
SWIDTH 376 0
DWIDTH 14 0
BBX 17 27 -2 0
BITMAP
0000005D1000018E70
0000001FB0017EF500
0000000BF87EFE4000
00000006FFFFE30000
00000001FFFD200000
00000000BFC1000000
000000006A10000000
000000000000000000
000000000000000000
0000AFFFF817DEB200
0000DFFFF7DFFFFB00
0001FFFFFFEDFFFE00
0004FFFFF702FFFB00
0008FFFFA000AEB200
000BFFFF6000000000
000EFFFF3000000000
002FFFFF0000000000
005FFFFC0000000000
009FFFF90000000000
00CFFFF60000000000
00FFFFF30000000000
03FFFFE00000000000
06FFFFB00000000000
0AFFFF800000000000
0DFFFF500000000000
1FFFFF200000000000
4FFFFE000000000000
ENDCHAR
STARTCHAR Sacute
ENCODING 346
SWIDTH 570 0
DWIDTH 21 0
BBX 19 37 1 -1
BITMAP
00000000000000078860
000000000000005FFF40
00000000000000DFF900
00000000000005FFD100
0000000000000DFF4000
0000000000005FF90000
000000000000DFD10000
00000000000000000000
00000000000000000000
0000000038CEFEC71000
00000019FFFFFFFFE400
000001CFFFF844AFFF20
00000AFFFF50000CFF90
00003FFFFD000009FFD0
00007FFFFA00000AFFD0
00008FFFFB00002FFFA0
00006FFFFE1000CFFF30
00003FFFFF9000289300
00000CFFFFF600000000
000004FFFFFF40000000
0000008FFFFFE3000000
0000000BFFFFFE200000
00000001CFFFFFD10000
000000002EFFFFFB0000
0000120004FFFFFF5000
004CFFE5007FFFFFD000
05FFFFFF200CFFFFF300
1EFFFE841005FFFFF600
7FFFE2000001FFFFF700
AFFF80000000EFFFF600
BFFF50000000FFFFF300
9FFF60000005FFFFC000
5FFFC000001DFFFF4000
0CFFFB3015DFFFF60000
02DFFFFFFFFFFE500000
0018EFFFFFFE81000000
00000467763000000000
ENDCHAR
STARTCHAR sacute
ENCODING 347
SWIDTH 382 0
DWIDTH 14 0
BBX 17 27 -2 0
BITMAP
0000000000005FFF60
000000000000CFFB00
000000000004FFE200
00000000000BFF7000
00000000004FFC0000
0000000000BFF30000
0000000002BB700000
000000000000000000
000000058ACE800000
0000002FFFFF900000
0000007FFFFFA00000
000000CFFFFFA00000
000003FEFFFFB00000
000008F9FFFFC00000
00001EA6FFFFD00000
00006F45FFFFE00000
0000DC04FFFFF00000
0006F502FFFFF20000
000DC001FFFFF30000
01AFC100FFFFF40000
09FFF400EFFFF40680
1FEFC100FFFFF5AE30
2FD10004FFFFFFD300
0FF5004DFFFFFA1000
09FFEEFFFFFE500000
01CFFFFFFFC2000000
0007CEFDA500000000
ENDCHAR
STARTCHAR Scircumflex
ENCODING 348
SWIDTH 570 0
DWIDTH 21 0
BBX 19 37 1 -1
BITMAP
00000000000000053000
000000000000008FA000
0000000000001AFFF100
000000000002CFFFF500
00000000003DFF99FA00
0000000004EF9200CF10
000000006E8100001E50
00000000000000000000
00000000000000000000
0000000038CEFEC71000
00000019FFFFFFFFE400
000001CFFFF844AFFF20
00000AFFFF50000CFF90
00003FFFFD000009FFD0
00007FFFFA00000AFFD0
00008FFFFB00002FFFA0
00006FFFFE1000CFFF30
00003FFFFF9000289300
00000CFFFFF600000000
000004FFFFFF40000000
0000008FFFFFE3000000
0000000BFFFFFE200000
00000001CFFFFFD10000
000000002EFFFFFB0000
0000120004FFFFFF5000
004CFFE5007FFFFFD000
05FFFFFF200CFFFFF300
1EFFFE841005FFFFF600
7FFFE2000001FFFFF700
AFFF80000000EFFFF600
BFFF50000000FFFFF300
9FFF60000005FFFFC000
5FFFC000001DFFFF4000
0CFFFB3015DFFFF60000
02DFFFFFFFFFFE500000
0018EFFFFFFE81000000
00000467763000000000
ENDCHAR
STARTCHAR scircumflex
ENCODING 349
SWIDTH 382 0
DWIDTH 14 0
BBX 17 27 -2 0
BITMAP
000000000007E10000
00000000009FF50000
000000001BFFFA0000
00000001CFFFFE0000
0000002DFE82CF4000
000003EE81002E9000
00002B81000005A000
000000000000000000
000000058ACE800000
0000002FFFFF900000
0000007FFFFFA00000
000000CFFFFFA00000
000003FEFFFFB00000
000008F9FFFFC00000
00001EA6FFFFD00000
00006F45FFFFE00000
0000DC04FFFFF00000
0006F502FFFFF20000
000DC001FFFFF30000
01AFC100FFFFF40000
09FFF400EFFFF40680
1FEFC100FFFFF5AE30
2FD10004FFFFFFD300
0FF5004DFFFFFA1000
09FFEEFFFFFE500000
01CFFFFFFFC2000000
0007CEFDA500000000
ENDCHAR
STARTCHAR Scedilla
ENCODING 350
SWIDTH 570 0
DWIDTH 21 0
BBX 19 35 1 -8
BITMAP
0000000028CEFEC71000
00000019FFFFFFFFE400
000001CFFFF844AFFE20
00000AFFFF50000CFF90
00003FFFFD000009FFD0
00007FFFFA00000AFFD0
00008FFFFB00002EFFB0
00007FFFFE1000BFFF40
00004FFFFF90003AA500
00000DFFFFF500000000
000005FFFFFF30000000
0000009FFFFFE2000000
0000000CFFFFFD200000
00000002DFFFFFC10000
000000003FFFFFFA0000
0000000005FFFFFF5000
0029DEB3009FFFFFC000
03EFFFFE101DFFFFF200
1DFFFFB72007FFFFF600
6FFFF5000001FFFFF700
AFFF90000000EFFFF600
BFFF50000000EFFFF400
AFFF60000003FFFFD000
7FFFA000000BFFFF5000
1EFFF70001AFFFF80000
04EFFFDBBFFFFF700000
002BFFFFFFFFB3000000
0000257FC75100000000
0000005F411000000000
000000BFEFF900000000
000002C9CFFF50000000
000000001EFF60000000
000076004FFF20000000
00008FEDFFF700000000
000005CFEA4000000000
ENDCHAR
STARTCHAR scedilla
ENCODING 351
SWIDTH 382 0
DWIDTH 14 0
BBX 17 27 -2 -8
BITMAP
0000000468AC700000
0000001FFFFF900000
0000006FFFFFA00000
000000BFFFFFA00000
000002FEFFFFB00000
000008F9FFFFC00000
00000EB6FFFFD00000
00006F45FFFFE00000
0000CC04FFFFF00000
0005F502FFFFF20000
000DD001FFFFF30000
009FC100FFFFF40000
08FFF400EFFFF40570
0FEEB001FFFFF6AE40
2FD00005FFFFFFE300
0FF7116EFFFFFB2000
09FFFFFFFFFE600000
01CFFFFFFFD3000000
0017DFFEB600000000
00007F200000000000
0000DC674000000000
0006FFFFF700000000
000421BFFD00000000
0000006FFE00000000
02C301BFF900000000
01DFDEFFC100000000
0019EFC70000000000
ENDCHAR
STARTCHAR Scaron
ENCODING 352
SWIDTH 570 0
DWIDTH 21 0
BBX 22 37 1 -1
BITMAP
0000000000036000000176
000000000003F600018EC1
000000000000DF329EFA00
0000000000008FEFFF8000
0000000000003FFFF60000
0000000000000DFE400000
00000000000008D2000000
0000000000000000000000
0000000000000000000000
0000000038CEFEC7100000
00000019FFFFFFFFE40000
000001CFFFF844AFFF2000
00000AFFFF50000CFF9000
00003FFFFD000009FFD000
00007FFFFA00000AFFD000
00008FFFFB00002FFFA000
00006FFFFE1000CFFF3000
00003FFFFF900028930000
00000CFFFFF60000000000
000004FFFFFF4000000000
0000008FFFFFE300000000
0000000BFFFFFE20000000
00000001CFFFFFD1000000
000000002EFFFFFB000000
0000120004FFFFFF500000
004CFFE5007FFFFFD00000
05FFFFFF200CFFFFF30000
1EFFFE841005FFFFF60000
7FFFE2000001FFFFF70000
AFFF80000000EFFFF60000
BFFF50000000FFFFF30000
9FFF60000005FFFFC00000
5FFFC000001DFFFF400000
0CFFFB3015DFFFF6000000
02DFFFFFFFFFFE50000000
0018EFFFFFFE8100000000
0000046776300000000000
ENDCHAR
STARTCHAR scaron
ENCODING 353
SWIDTH 369 0
DWIDTH 13 0
BBX 18 27 -2 0
BITMAP
0000000D7000004CD2
00000008F4003BFB10
00000004FD4BFFA000
00000000EFFFF80000
000000009FFF700000
000000004FF5000000
000000000B40000000
000000000000000000
0000000579BD800000
0000001FFFFF900000
0000006FFFFFA00000
000000CFFFFFA00000
000002FEFFFFB00000
000008F9FFFFC00000
00000EA6FFFFD00000
00006F45FFFFE00000
0000DC04FFFFF00000
0006F502FFFFF20000
000DC001FFFFF30000
00AFC100FFFFF40000
09FFF400EFFFF40580
1FEFD100FFFFF59E30
2FD20004FFFFFEE300
0FF4003DFFFFFA1000
09FFDDFFFFFE600000
01CFFFFFFFC2000000
0007CEFDA500000000
ENDCHAR
STARTCHAR uni0162
ENCODING 354
SWIDTH 481 0
DWIDTH 17 0
BBX 26 35 0 -8
BITMAP
000000159CEEFEC95100000005
000019EFFFFFFFFFFEA52015CC
0005EFFFFFFFFFFFFFFFFFFFF9
006FFFD7315FFFFFFFFFFFFFF4
03FFFA10008FFFFFFFFFFFFFB0
0BFFC00000CFFFFC58BDEFD810
3FFF400000EFFFF80000000000
7FFE000003FFFFF40000000000
AFFB000006FFFFF10000000000
BFFA000009FFFFC00000000000
BFF900000DFFFF900000000000
9FF900001FFFFF500000000000
2EFA00004FFFFF200000000000
017800007FFFFE000000000000
00000000AFFFFA000000000000
00000000DFFFF7000000000000
00000002FFFFF3000000000000
00000005FFFFF0000000000000
00000008FFFFC0000000000000
0000000BFFFF80000000000000
0000000EFFFF50000000000000
0000003FFFFF10000000000000
0000006FFFFD00000000000000
0000009FFFFA00000000000000
000000CFFFF600000000000000
000001FFFFF300000000000000
000004FFFFE000000000000000
00000006F30000000000000000
0000000CB11000000000000000
0000004FEFFD30000000000000
0000009AAFFFC0000000000000
0000000008FFD0000000000000
000029201BFF90000000000000
00002EFDEFFC10000000000000
000002AEEC7100000000000000
ENDCHAR
STARTCHAR uni0163
ENCODING 355
SWIDTH 267 0
DWIDTH 10 0
BBX 13 32 -2 -8
BITMAP
00000002466000
000008FFFF9000
00000CFFFF6000
00000FFFFF3000
00003FFFFE0000
00007FFFFB0000
000DFFFFFFFA00
0002EFFFF62100
0002FFFFF10000
0005FFFFD00000
0008FFFFA00000
000CFFFF600000
000EFFFF300000
003FFFFF000000
006FFFFC000000
009FFFF9000000
00CFFFF5000000
01FFFFF2000590
03FFFFF0000DA0
04FFFFE0009F30
03FFFFFB8CFA00
01EFFFFFFFD100
008FFFFFFB1000
0008FFEA400000
0007F200000000
000DB241000000
004FFFFE400000
00899EFFC00000
000007FFD00000
2A200BFF900000
2EFDEFFC100000
029EFC70000000
ENDCHAR
STARTCHAR Tcaron
ENCODING 356
SWIDTH 481 0
DWIDTH 17 0
BBX 26 36 0 0
BITMAP
00000000000360000001760000
000000000003F600017ED20000
000000000000DE207EFC100000
0000000000009FDDFFB1000000
0000000000004FFFFA00000000
0000000000000EFF9000000000
0000000000000AF70000000000
00000000000003500000000000
00000000000000000000000000
000000159CEEFEC95100000005
000019EFFFFFFFFFFEA52015CC
0005EFFFFFFFFFFFFFFFFFFFF9
006FFFD7315FFFFFFFFFFFFFF4
03FFFA10008FFFFFFFFFFFFFB0
0BFFC00000CFFFFC58BDEFD810
3FFF400000EFFFF80000000000
7FFE000003FFFFF40000000000
AFFB000006FFFFF10000000000
BFFA000009FFFFC00000000000
BFF900000DFFFF900000000000
9FF900001FFFFF500000000000
2EFA00004FFFFF200000000000
017800007FFFFE000000000000
00000000AFFFFA000000000000
00000000DFFFF7000000000000
00000002FFFFF3000000000000
00000005FFFFF0000000000000
00000008FFFFC0000000000000
0000000BFFFF80000000000000
0000000EFFFF50000000000000
0000003FFFFF10000000000000
0000006FFFFD00000000000000
0000009FFFFA00000000000000
000000CFFFF600000000000000
000001FFFFF300000000000000
000004FFFFE000000000000000
ENDCHAR
STARTCHAR tcaron
ENCODING 357
SWIDTH 267 0
DWIDTH 10 0
BBX 16 27 -1 0
BITMAP
000000000001AEC3
000000000007FFFB
000000000005FFFC
000000002300AFF9
00005BDFFA002FF2
0000BFFFF7007F70
0000EFFFF303F800
0003FFFFE0003000
0006FFFFB0000000
00DFFFFFFFA00000
002EFFFF62100000
002FFFFF10000000
005FFFFD00000000
008FFFFA00000000
00CFFFF600000000
00EFFFF300000000
03FFFFF000000000
06FFFFC000000000
09FFFF9000000000
0CFFFF5000000000
1FFFFF2000590000
3FFFFF0000DA0000
4FFFFE0009F30000
3FFFFFB8CFA00000
1EFFFFFFFD100000
08FFFFFFB1000000
007DFEA400000000
ENDCHAR
ENDFONT
